<svg width="263" height="70" viewBox="0 0 263 70" fill="none" xmlns="http://www.w3.org/2000/svg">
<rect x="0.5" width="262" height="70" rx="20" fill="white"/>
<path d="M68.9959 32.264C68.6439 31.6187 68.1599 31.1273 67.5439 30.79C66.9279 30.4527 66.2093 30.284 65.3879 30.284C64.4786 30.284 63.6719 30.4893 62.9679 30.9C62.2639 31.3107 61.7139 31.8973 61.3179 32.66C60.9219 33.4227 60.7239 34.3027 60.7239 35.3C60.7239 36.3267 60.9219 37.2213 61.3179 37.984C61.7286 38.7467 62.2933 39.3333 63.0119 39.744C63.7306 40.1547 64.5666 40.36 65.5199 40.36C66.6933 40.36 67.6539 40.052 68.4019 39.436C69.1499 38.8053 69.6413 37.9327 69.8759 36.818H64.5959V34.464H72.9119V37.148C72.7066 38.2187 72.2666 39.2087 71.5919 40.118C70.9173 41.0273 70.0446 41.7607 68.9739 42.318C67.9179 42.8607 66.7299 43.132 65.4099 43.132C63.9286 43.132 62.5866 42.802 61.3839 42.142C60.1959 41.4673 59.2573 40.536 58.5679 39.348C57.8933 38.16 57.5559 36.8107 57.5559 35.3C57.5559 33.7893 57.8933 32.44 58.5679 31.252C59.2573 30.0493 60.1959 29.118 61.3839 28.458C62.5866 27.7833 63.9213 27.446 65.3879 27.446C67.1186 27.446 68.6219 27.8713 69.8979 28.722C71.1739 29.558 72.0539 30.7387 72.5379 32.264H68.9959ZM77.8707 30.13V33.98H83.0407V36.422H77.8707V40.492H83.7007V43H74.7907V27.622H83.7007V30.13H77.8707ZM96.5496 27.644V30.13H92.4576V43H89.3776V30.13H85.2856V27.644H96.5496ZM114.437 32.396C114.437 33.2173 114.239 33.9873 113.843 34.706C113.462 35.4247 112.853 36.004 112.017 36.444C111.196 36.884 110.154 37.104 108.893 37.104H106.319V43H103.239V27.644H108.893C110.081 27.644 111.093 27.8493 111.929 28.26C112.765 28.6707 113.388 29.2353 113.799 29.954C114.224 30.6727 114.437 31.4867 114.437 32.396ZM108.761 34.618C109.612 34.618 110.242 34.4273 110.653 34.046C111.064 33.65 111.269 33.1 111.269 32.396C111.269 30.9 110.433 30.152 108.761 30.152H106.319V34.618H108.761ZM119.304 40.558H124.364V43H116.224V27.644H119.304V40.558ZM135.338 40.074H129.222L128.21 43H124.976L130.498 27.622H134.084L139.606 43H136.35L135.338 40.074ZM134.502 37.61L132.28 31.186L130.058 37.61H134.502ZM154.404 43H151.324L144.35 32.462V43H141.27V27.622H144.35L151.324 38.182V27.622H154.404V43ZM167.497 27.644V30.13H163.405V43H160.325V30.13H156.233V27.644H167.497ZM172.425 27.644V43H169.345V27.644H172.425ZM188.202 43H185.122L178.148 32.462V43H175.068V27.622H178.148L185.122 38.182V27.622H188.202V43ZM201.537 32.264C201.185 31.6187 200.701 31.1273 200.085 30.79C199.469 30.4527 198.751 30.284 197.929 30.284C197.02 30.284 196.213 30.4893 195.509 30.9C194.805 31.3107 194.255 31.8973 193.859 32.66C193.463 33.4227 193.265 34.3027 193.265 35.3C193.265 36.3267 193.463 37.2213 193.859 37.984C194.27 38.7467 194.835 39.3333 195.553 39.744C196.272 40.1547 197.108 40.36 198.061 40.36C199.235 40.36 200.195 40.052 200.943 39.436C201.691 38.8053 202.183 37.9327 202.417 36.818H197.137V34.464H205.453V37.148C205.248 38.2187 204.808 39.2087 204.133 40.118C203.459 41.0273 202.586 41.7607 201.515 42.318C200.459 42.8607 199.271 43.132 197.951 43.132C196.47 43.132 195.128 42.802 193.925 42.142C192.737 41.4673 191.799 40.536 191.109 39.348C190.435 38.16 190.097 36.8107 190.097 35.3C190.097 33.7893 190.435 32.44 191.109 31.252C191.799 30.0493 192.737 29.118 193.925 28.458C195.128 27.7833 196.463 27.446 197.929 27.446C199.66 27.446 201.163 27.8713 202.439 28.722C203.715 29.558 204.595 30.7387 205.079 32.264H201.537Z" fill="black"/>
</svg>
