<svg width="542" height="307" viewBox="0 0 542 307" fill="none" xmlns="http://www.w3.org/2000/svg">
<path d="M91.8806 43.44C91.8806 46.4267 91.1606 49.2267 89.7206 51.84C88.334 54.4533 86.1206 56.56 83.0806 58.16C80.094 59.76 76.3073 60.56 71.7206 60.56L62.3606 60.56L62.3606 82H51.1606L51.1606 26.16H71.7206C76.0406 26.16 79.7206 26.9067 82.7606 28.4C85.8006 29.8933 88.0673 31.9467 89.5606 34.56C91.1073 37.1733 91.8806 40.1333 91.8806 43.44ZM71.2406 51.52C74.334 51.52 76.6273 50.8267 78.1206 49.44C79.614 48 80.3606 46 80.3606 43.44C80.3606 38 77.3206 35.28 71.2406 35.28L62.3606 35.28V51.52L71.2406 51.52ZM113.433 22.8V82H102.233V22.8H113.433ZM124.018 59.68C124.018 55.2 124.898 51.2267 126.658 47.76C128.471 44.2933 130.898 41.6267 133.938 39.76C137.031 37.8933 140.471 36.96 144.258 36.96C147.565 36.96 150.445 37.6267 152.898 38.96C155.405 40.2933 157.405 41.9733 158.898 44V37.68H170.178V82H158.898V75.52C157.458 77.6 155.458 79.3333 152.898 80.72C150.391 82.0533 147.485 82.72 144.178 82.72C140.445 82.72 137.031 81.76 133.938 79.84C130.898 77.92 128.471 75.2267 126.658 71.76C124.898 68.24 124.018 64.2133 124.018 59.68ZM158.898 59.84C158.898 57.12 158.365 54.8 157.298 52.88C156.231 50.9067 154.791 49.4133 152.978 48.4C151.165 47.3333 149.218 46.8 147.138 46.8C145.058 46.8 143.138 47.3067 141.378 48.32C139.618 49.3333 138.178 50.8267 137.058 52.8C135.991 54.72 135.458 57.0133 135.458 59.68C135.458 62.3467 135.991 64.6933 137.058 66.72C138.178 68.6933 139.618 70.2133 141.378 71.28C143.191 72.3467 145.111 72.88 147.138 72.88C149.218 72.88 151.165 72.3733 152.978 71.36C154.791 70.2933 156.231 68.8 157.298 66.88C158.365 64.9067 158.898 62.56 158.898 59.84ZM208.077 37.04C213.357 37.04 217.624 38.72 220.877 42.08C224.13 45.3867 225.757 50.0267 225.757 56V82H214.557V57.52C214.557 54 213.677 51.3067 211.917 49.44C210.157 47.52 207.757 46.56 204.717 46.56C201.624 46.56 199.17 47.52 197.357 49.44C195.597 51.3067 194.717 54 194.717 57.52V82H183.517V37.68L194.717 37.68V43.2C196.21 41.28 198.104 39.7867 200.397 38.72C202.744 37.6 205.304 37.04 208.077 37.04ZM251.848 46.88V68.32C251.848 69.8133 252.194 70.9067 252.888 71.6C253.634 72.24 254.861 72.56 256.568 72.56H261.768V82H254.728C245.288 82 240.568 77.4133 240.568 68.24V46.88H235.288V37.68H240.568V26.72H251.848V37.68H261.768V46.88H251.848ZM289.183 82.72C285.556 82.72 282.303 82.08 279.423 80.8C276.543 79.4667 274.25 77.68 272.543 75.44C270.89 73.2 269.983 70.72 269.823 68H281.103C281.316 69.7067 282.143 71.12 283.583 72.24C285.076 73.36 286.916 73.92 289.103 73.92C291.236 73.92 292.89 73.4933 294.063 72.64C295.29 71.7867 295.903 70.6933 295.903 69.36C295.903 67.92 295.156 66.8533 293.663 66.16C292.223 65.4133 289.903 64.6133 286.703 63.76C283.396 62.96 280.676 62.1333 278.543 61.28C276.463 60.4267 274.65 59.12 273.103 57.36C271.61 55.6 270.863 53.2267 270.863 50.24C270.863 47.7867 271.556 45.5467 272.943 43.52C274.383 41.4933 276.41 39.8933 279.023 38.72C281.69 37.5467 284.81 36.96 288.383 36.96C293.663 36.96 297.876 38.2933 301.023 40.96C304.17 43.5733 305.903 47.12 306.223 51.6H295.503C295.343 49.84 294.596 48.4533 293.263 47.44C291.983 46.3733 290.25 45.84 288.063 45.84C286.036 45.84 284.463 46.2133 283.343 46.96C282.276 47.7067 281.743 48.7467 281.743 50.08C281.743 51.5733 282.49 52.72 283.983 53.52C285.476 54.2667 287.796 55.04 290.943 55.84C294.143 56.64 296.783 57.4667 298.863 58.32C300.943 59.1733 302.73 60.5067 304.223 62.32C305.77 64.08 306.57 66.4267 306.623 69.36C306.623 71.92 305.903 74.2133 304.463 76.24C303.076 78.2667 301.05 79.8667 298.383 81.04C295.77 82.16 292.703 82.72 289.183 82.72ZM336.799 59.68C336.799 55.2 337.679 51.2267 339.439 47.76C341.253 44.2933 343.679 41.6267 346.719 39.76C349.813 37.8933 353.253 36.96 357.039 36.96C360.346 36.96 363.226 37.6267 365.679 38.96C368.186 40.2933 370.186 41.9733 371.679 44V37.68H382.959V82H371.679V75.52C370.239 77.6 368.239 79.3333 365.679 80.72C363.173 82.0533 360.266 82.72 356.959 82.72C353.226 82.72 349.813 81.76 346.719 79.84C343.679 77.92 341.253 75.2267 339.439 71.76C337.679 68.24 336.799 64.2133 336.799 59.68ZM371.679 59.84C371.679 57.12 371.146 54.8 370.079 52.88C369.013 50.9067 367.573 49.4133 365.759 48.4C363.946 47.3333 361.999 46.8 359.919 46.8C357.839 46.8 355.919 47.3067 354.159 48.32C352.399 49.3333 350.959 50.8267 349.839 52.8C348.773 54.72 348.239 57.0133 348.239 59.68C348.239 62.3467 348.773 64.6933 349.839 66.72C350.959 68.6933 352.399 70.2133 354.159 71.28C355.973 72.3467 357.893 72.88 359.919 72.88C361.999 72.88 363.946 72.3733 365.759 71.36C367.573 70.2933 369.013 68.8 370.079 66.88C371.146 64.9067 371.679 62.56 371.679 59.84ZM407.498 44.56C408.938 42.2133 410.805 40.3733 413.098 39.04C415.445 37.7067 418.111 37.04 421.098 37.04V48.8H418.138C414.618 48.8 411.951 49.6267 410.138 51.28C408.378 52.9333 407.498 55.8133 407.498 59.92V82H396.298V37.68H407.498V44.56ZM472.242 58.88C472.242 60.48 472.135 61.92 471.922 63.2L439.522 63.2C439.789 66.4 440.909 68.9067 442.882 70.72C444.855 72.5333 447.282 73.44 450.162 73.44C454.322 73.44 457.282 71.6533 459.042 68.08H471.122C469.842 72.3467 467.389 75.8667 463.762 78.64C460.135 81.36 455.682 82.72 450.402 82.72C446.135 82.72 442.295 81.7867 438.882 79.92C435.522 78 432.882 75.3067 430.962 71.84C429.095 68.3733 428.162 64.3733 428.162 59.84C428.162 55.2533 429.095 51.2267 430.962 47.76C432.829 44.2933 435.442 41.6267 438.802 39.76C442.162 37.8933 446.029 36.96 450.402 36.96C454.615 36.96 458.375 37.8667 461.682 39.68C465.042 41.4933 467.629 44.08 469.442 47.44C471.309 50.7467 472.242 54.56 472.242 58.88ZM460.642 55.68C460.589 52.8 459.549 50.5067 457.522 48.8C455.495 47.04 453.015 46.16 450.082 46.16C447.309 46.16 444.962 47.0133 443.042 48.72C441.175 50.3733 440.029 52.6933 439.602 55.68L460.642 55.68ZM48.4188 162.72C44.1521 162.72 40.3121 161.787 36.8988 159.92C33.4854 158 30.7921 155.307 28.8188 151.84C26.8988 148.373 25.9388 144.373 25.9388 139.84C25.9388 135.307 26.9254 131.307 28.8988 127.84C30.9254 124.373 33.6721 121.707 37.1388 119.84C40.6054 117.92 44.4721 116.96 48.7388 116.96C53.0054 116.96 56.8721 117.92 60.3388 119.84C63.8054 121.707 66.5254 124.373 68.4988 127.84C70.5254 131.307 71.5388 135.307 71.5388 139.84C71.5388 144.373 70.4988 148.373 68.4187 151.84C66.3921 155.307 63.6188 158 60.0988 159.92C56.6321 161.787 52.7388 162.72 48.4188 162.72ZM48.4188 152.96C50.4454 152.96 52.3388 152.48 54.0988 151.52C55.9121 150.507 57.3521 149.013 58.4188 147.04C59.4854 145.067 60.0188 142.667 60.0188 139.84C60.0188 135.627 58.8988 132.4 56.6588 130.16C54.4721 127.867 51.7788 126.72 48.5788 126.72C45.3788 126.72 42.6854 127.867 40.4988 130.16C38.3654 132.4 37.2988 135.627 37.2988 139.84C37.2988 144.053 38.3388 147.307 40.4188 149.6C42.5521 151.84 45.2188 152.96 48.4188 152.96ZM123.994 117.68L123.994 162H112.714V156.4C111.274 158.32 109.381 159.84 107.034 160.96C104.741 162.027 102.234 162.56 99.5144 162.56C96.0477 162.56 92.981 161.84 90.3144 160.4C87.6477 158.907 85.541 156.747 83.9944 153.92C82.501 151.04 81.7544 147.627 81.7544 143.68L81.7544 117.68H92.9544L92.9544 142.08C92.9544 145.6 93.8344 148.32 95.5944 150.24C97.3544 152.107 99.7544 153.04 102.794 153.04C105.888 153.04 108.314 152.107 110.074 150.24C111.834 148.32 112.714 145.6 112.714 142.08L112.714 117.68H123.994ZM148.645 124.56C150.085 122.213 151.952 120.373 154.245 119.04C156.592 117.707 159.258 117.04 162.245 117.04V128.8H159.285C155.765 128.8 153.098 129.627 151.285 131.28C149.525 132.933 148.645 135.813 148.645 139.92V162H137.445V117.68H148.645V124.56ZM234.371 123.44C234.371 126.427 233.651 129.227 232.211 131.84C230.825 134.453 228.611 136.56 225.571 138.16C222.585 139.76 218.798 140.56 214.211 140.56H204.851V162H193.651V106.16H214.211C218.531 106.16 222.211 106.907 225.251 108.4C228.291 109.893 230.558 111.947 232.051 114.56C233.598 117.173 234.371 120.133 234.371 123.44ZM213.731 131.52C216.825 131.52 219.118 130.827 220.611 129.44C222.105 128 222.851 126 222.851 123.44C222.851 118 219.811 115.28 213.731 115.28H204.851V131.52H213.731ZM241.843 139.68C241.843 135.2 242.723 131.227 244.483 127.76C246.296 124.293 248.723 121.627 251.763 119.76C254.856 117.893 258.296 116.96 262.083 116.96C265.39 116.96 268.27 117.627 270.723 118.96C273.23 120.293 275.23 121.973 276.723 124V117.68H288.003V162H276.723V155.52C275.283 157.6 273.283 159.333 270.723 160.72C268.216 162.053 265.31 162.72 262.003 162.72C258.27 162.72 254.856 161.76 251.763 159.84C248.723 157.92 246.296 155.227 244.483 151.76C242.723 148.24 241.843 144.213 241.843 139.68ZM276.723 139.84C276.723 137.12 276.19 134.8 275.123 132.88C274.056 130.907 272.616 129.413 270.803 128.4C268.99 127.333 267.043 126.8 264.963 126.8C262.883 126.8 260.963 127.307 259.203 128.32C257.443 129.333 256.003 130.827 254.883 132.8C253.816 134.72 253.283 137.013 253.283 139.68C253.283 142.347 253.816 144.693 254.883 146.72C256.003 148.693 257.443 150.213 259.203 151.28C261.016 152.347 262.936 152.88 264.963 152.88C267.043 152.88 268.99 152.373 270.803 151.36C272.616 150.293 274.056 148.8 275.123 146.88C276.19 144.907 276.723 142.56 276.723 139.84ZM318.302 162.72C314.675 162.72 311.422 162.08 308.542 160.8C305.662 159.467 303.369 157.68 301.662 155.44C300.009 153.2 299.102 150.72 298.942 148H310.222C310.435 149.707 311.262 151.12 312.702 152.24C314.195 153.36 316.035 153.92 318.222 153.92C320.355 153.92 322.009 153.493 323.182 152.64C324.409 151.787 325.022 150.693 325.022 149.36C325.022 147.92 324.275 146.853 322.782 146.16C321.342 145.413 319.022 144.613 315.822 143.76C312.515 142.96 309.795 142.133 307.662 141.28C305.582 140.427 303.769 139.12 302.222 137.36C300.729 135.6 299.982 133.227 299.982 130.24C299.982 127.787 300.675 125.547 302.062 123.52C303.502 121.493 305.529 119.893 308.142 118.72C310.809 117.547 313.929 116.96 317.502 116.96C322.782 116.96 326.995 118.293 330.142 120.96C333.289 123.573 335.022 127.12 335.342 131.6H324.622C324.462 129.84 323.715 128.453 322.382 127.44C321.102 126.373 319.369 125.84 317.182 125.84C315.155 125.84 313.582 126.213 312.462 126.96C311.395 127.707 310.862 128.747 310.862 130.08C310.862 131.573 311.609 132.72 313.102 133.52C314.595 134.267 316.915 135.04 320.062 135.84C323.262 136.64 325.902 137.467 327.982 138.32C330.062 139.173 331.849 140.507 333.342 142.32C334.889 144.08 335.689 146.427 335.742 149.36C335.742 151.92 335.022 154.213 333.582 156.24C332.195 158.267 330.169 159.867 327.502 161.04C324.889 162.16 321.822 162.72 318.302 162.72ZM364.296 162.72C360.669 162.72 357.416 162.08 354.536 160.8C351.656 159.467 349.362 157.68 347.656 155.44C346.002 153.2 345.096 150.72 344.936 148H356.216C356.429 149.707 357.256 151.12 358.696 152.24C360.189 153.36 362.029 153.92 364.216 153.92C366.349 153.92 368.002 153.493 369.176 152.64C370.402 151.787 371.016 150.693 371.016 149.36C371.016 147.92 370.269 146.853 368.776 146.16C367.336 145.413 365.016 144.613 361.816 143.76C358.509 142.96 355.789 142.133 353.656 141.28C351.576 140.427 349.762 139.12 348.216 137.36C346.722 135.6 345.976 133.227 345.976 130.24C345.976 127.787 346.669 125.547 348.056 123.52C349.496 121.493 351.522 119.893 354.136 118.72C356.802 117.547 359.922 116.96 363.496 116.96C368.776 116.96 372.989 118.293 376.136 120.96C379.282 123.573 381.016 127.12 381.336 131.6H370.616C370.456 129.84 369.709 128.453 368.376 127.44C367.096 126.373 365.362 125.84 363.176 125.84C361.149 125.84 359.576 126.213 358.456 126.96C357.389 127.707 356.856 128.747 356.856 130.08C356.856 131.573 357.602 132.72 359.096 133.52C360.589 134.267 362.909 135.04 366.056 135.84C369.256 136.64 371.896 137.467 373.976 138.32C376.056 139.173 377.842 140.507 379.336 142.32C380.882 144.08 381.682 146.427 381.736 149.36C381.736 151.92 381.016 154.213 379.576 156.24C378.189 158.267 376.162 159.867 373.496 161.04C370.882 162.16 367.816 162.72 364.296 162.72ZM399.009 112.4C397.036 112.4 395.383 111.787 394.049 110.56C392.769 109.28 392.129 107.707 392.129 105.84C392.129 103.973 392.769 102.427 394.049 101.2C395.383 99.92 397.036 99.28 399.009 99.28C400.983 99.28 402.609 99.92 403.889 101.2C405.223 102.427 405.889 103.973 405.889 105.84C405.889 107.707 405.223 109.28 403.889 110.56C402.609 111.787 400.983 112.4 399.009 112.4ZM404.529 117.68V162H393.329V117.68H404.529ZM437.675 162.72C433.408 162.72 429.568 161.787 426.155 159.92C422.742 158 420.048 155.307 418.075 151.84C416.155 148.373 415.195 144.373 415.195 139.84C415.195 135.307 416.182 131.307 418.155 127.84C420.182 124.373 422.928 121.707 426.395 119.84C429.862 117.92 433.728 116.96 437.995 116.96C442.262 116.96 446.128 117.92 449.595 119.84C453.062 121.707 455.782 124.373 457.755 127.84C459.782 131.307 460.795 135.307 460.795 139.84C460.795 144.373 459.755 148.373 457.675 151.84C455.648 155.307 452.875 158 449.355 159.92C445.888 161.787 441.995 162.72 437.675 162.72ZM437.675 152.96C439.702 152.96 441.595 152.48 443.355 151.52C445.168 150.507 446.608 149.013 447.675 147.04C448.742 145.067 449.275 142.667 449.275 139.84C449.275 135.627 448.155 132.4 445.915 130.16C443.728 127.867 441.035 126.72 437.835 126.72C434.635 126.72 431.942 127.867 429.755 130.16C427.622 132.4 426.555 135.627 426.555 139.84C426.555 144.053 427.595 147.307 429.675 149.6C431.808 151.84 434.475 152.96 437.675 152.96ZM495.971 117.04C501.251 117.04 505.517 118.72 508.771 122.08C512.024 125.387 513.651 130.027 513.651 136V162H502.451V137.52C502.451 134 501.571 131.307 499.811 129.44C498.051 127.52 495.651 126.56 492.611 126.56C489.517 126.56 487.064 127.52 485.251 129.44C483.491 131.307 482.611 134 482.611 137.52V162H471.411V117.68H482.611V123.2C484.104 121.28 485.997 119.787 488.291 118.72C490.637 117.6 493.197 117.04 495.971 117.04Z" fill="black"/>
<path d="M65.8552 225.294V230.42H71.4432V232.07H65.8552V237.35H72.1032V239H63.8532V223.644H72.1032V225.294H65.8552ZM79.6205 237.152L83.3605 226.944H85.4945L80.7645 239H78.4325L73.7025 226.944H75.8585L79.6205 237.152ZM98.4645 232.51C98.4645 232.891 98.4425 233.295 98.3985 233.72H88.7625C88.8358 234.908 89.2392 235.839 89.9725 236.514C90.7205 237.174 91.6225 237.504 92.6785 237.504C93.5438 237.504 94.2625 237.306 94.8345 236.91C95.4212 236.499 95.8318 235.957 96.0665 235.282H98.2225C97.8998 236.441 97.2545 237.387 96.2865 238.12C95.3185 238.839 94.1158 239.198 92.6785 239.198C91.5345 239.198 90.5078 238.941 89.5985 238.428C88.7038 237.915 87.9998 237.189 87.4865 236.25C86.9732 235.297 86.7165 234.197 86.7165 232.95C86.7165 231.703 86.9658 230.611 87.4645 229.672C87.9632 228.733 88.6598 228.015 89.5545 227.516C90.4638 227.003 91.5052 226.746 92.6785 226.746C93.8225 226.746 94.8345 226.995 95.7145 227.494C96.5945 227.993 97.2692 228.682 97.7385 229.562C98.2225 230.427 98.4645 231.41 98.4645 232.51ZM96.3965 232.092C96.3965 231.329 96.2278 230.677 95.8905 230.134C95.5532 229.577 95.0912 229.159 94.5045 228.88C93.9325 228.587 93.2945 228.44 92.5905 228.44C91.5785 228.44 90.7132 228.763 89.9945 229.408C89.2905 230.053 88.8872 230.948 88.7845 232.092H96.3965ZM106.981 226.724C108.448 226.724 109.636 227.171 110.545 228.066C111.454 228.946 111.909 230.222 111.909 231.894V239H109.929V232.18C109.929 230.977 109.628 230.061 109.027 229.43C108.426 228.785 107.604 228.462 106.563 228.462C105.507 228.462 104.664 228.792 104.033 229.452C103.417 230.112 103.109 231.073 103.109 232.334V239H101.107V226.944H103.109V228.66C103.505 228.044 104.04 227.567 104.715 227.23C105.404 226.893 106.16 226.724 106.981 226.724ZM122.079 224.986C121.697 224.986 121.375 224.854 121.111 224.59C120.847 224.326 120.715 224.003 120.715 223.622C120.715 223.241 120.847 222.918 121.111 222.654C121.375 222.39 121.697 222.258 122.079 222.258C122.445 222.258 122.753 222.39 123.003 222.654C123.267 222.918 123.399 223.241 123.399 223.622C123.399 224.003 123.267 224.326 123.003 224.59C122.753 224.854 122.445 224.986 122.079 224.986ZM123.047 226.944V239H121.045V226.944H123.047ZM131.365 228.594H128.835V239H126.833V228.594H125.271V226.944H126.833V226.086C126.833 224.737 127.177 223.754 127.867 223.138C128.571 222.507 129.693 222.192 131.233 222.192V223.864C130.353 223.864 129.729 224.04 129.363 224.392C129.011 224.729 128.835 225.294 128.835 226.086V226.944H131.365V228.594ZM149.948 226.944L142.688 244.676H140.62L142.996 238.868L138.134 226.944H140.356L144.14 236.712L147.88 226.944H149.948ZM157.219 239.198C156.089 239.198 155.063 238.941 154.139 238.428C153.229 237.915 152.511 237.189 151.983 236.25C151.469 235.297 151.213 234.197 151.213 232.95C151.213 231.718 151.477 230.633 152.005 229.694C152.547 228.741 153.281 228.015 154.205 227.516C155.129 227.003 156.163 226.746 157.307 226.746C158.451 226.746 159.485 227.003 160.409 227.516C161.333 228.015 162.059 228.733 162.587 229.672C163.129 230.611 163.401 231.703 163.401 232.95C163.401 234.197 163.122 235.297 162.565 236.25C162.022 237.189 161.281 237.915 160.343 238.428C159.404 238.941 158.363 239.198 157.219 239.198ZM157.219 237.438C157.937 237.438 158.612 237.269 159.243 236.932C159.873 236.595 160.379 236.089 160.761 235.414C161.157 234.739 161.355 233.918 161.355 232.95C161.355 231.982 161.164 231.161 160.783 230.486C160.401 229.811 159.903 229.313 159.287 228.99C158.671 228.653 158.003 228.484 157.285 228.484C156.551 228.484 155.877 228.653 155.261 228.99C154.659 229.313 154.175 229.811 153.809 230.486C153.442 231.161 153.259 231.982 153.259 232.95C153.259 233.933 153.435 234.761 153.787 235.436C154.153 236.111 154.637 236.617 155.239 236.954C155.84 237.277 156.5 237.438 157.219 237.438ZM176.725 226.944V239H174.723V237.218C174.342 237.834 173.806 238.318 173.117 238.67C172.442 239.007 171.694 239.176 170.873 239.176C169.934 239.176 169.091 238.985 168.343 238.604C167.595 238.208 167.001 237.621 166.561 236.844C166.136 236.067 165.923 235.121 165.923 234.006V226.944H167.903V233.742C167.903 234.93 168.204 235.847 168.805 236.492C169.406 237.123 170.228 237.438 171.269 237.438C172.34 237.438 173.183 237.108 173.799 236.448C174.415 235.788 174.723 234.827 174.723 233.566V226.944H176.725ZM185.222 232.928C185.222 231.696 185.472 230.618 185.97 229.694C186.469 228.755 187.151 228.029 188.016 227.516C188.896 227.003 189.879 226.746 190.964 226.746C191.903 226.746 192.776 226.966 193.582 227.406C194.389 227.831 195.005 228.396 195.43 229.1V222.72H197.454V239H195.43V236.734C195.034 237.453 194.448 238.047 193.67 238.516C192.893 238.971 191.984 239.198 190.942 239.198C189.872 239.198 188.896 238.934 188.016 238.406C187.151 237.878 186.469 237.137 185.97 236.184C185.472 235.231 185.222 234.145 185.222 232.928ZM195.43 232.95C195.43 232.041 195.247 231.249 194.88 230.574C194.514 229.899 194.015 229.386 193.384 229.034C192.768 228.667 192.086 228.484 191.338 228.484C190.59 228.484 189.908 228.66 189.292 229.012C188.676 229.364 188.185 229.877 187.818 230.552C187.452 231.227 187.268 232.019 187.268 232.928C187.268 233.852 187.452 234.659 187.818 235.348C188.185 236.023 188.676 236.543 189.292 236.91C189.908 237.262 190.59 237.438 191.338 237.438C192.086 237.438 192.768 237.262 193.384 236.91C194.015 236.543 194.514 236.023 194.88 235.348C195.247 234.659 195.43 233.859 195.43 232.95ZM206.096 239.198C204.966 239.198 203.94 238.941 203.016 238.428C202.106 237.915 201.388 237.189 200.86 236.25C200.346 235.297 200.09 234.197 200.09 232.95C200.09 231.718 200.354 230.633 200.882 229.694C201.424 228.741 202.158 228.015 203.082 227.516C204.006 227.003 205.04 226.746 206.184 226.746C207.328 226.746 208.362 227.003 209.286 227.516C210.21 228.015 210.936 228.733 211.464 229.672C212.006 230.611 212.278 231.703 212.278 232.95C212.278 234.197 211.999 235.297 211.442 236.25C210.899 237.189 210.158 237.915 209.22 238.428C208.281 238.941 207.24 239.198 206.096 239.198ZM206.096 237.438C206.814 237.438 207.489 237.269 208.12 236.932C208.75 236.595 209.256 236.089 209.638 235.414C210.034 234.739 210.232 233.918 210.232 232.95C210.232 231.982 210.041 231.161 209.66 230.486C209.278 229.811 208.78 229.313 208.164 228.99C207.548 228.653 206.88 228.484 206.162 228.484C205.428 228.484 204.754 228.653 204.138 228.99C203.536 229.313 203.052 229.811 202.686 230.486C202.319 231.161 202.136 231.982 202.136 232.95C202.136 233.933 202.312 234.761 202.664 235.436C203.03 236.111 203.514 236.617 204.116 236.954C204.717 237.277 205.377 237.438 206.096 237.438ZM220.784 226.724C222.25 226.724 223.438 227.171 224.348 228.066C225.257 228.946 225.712 230.222 225.712 231.894V239H223.732V232.18C223.732 230.977 223.431 230.061 222.83 229.43C222.228 228.785 221.407 228.462 220.366 228.462C219.31 228.462 218.466 228.792 217.836 229.452C217.22 230.112 216.912 231.073 216.912 232.334V239H214.91V226.944H216.912V228.66C217.308 228.044 217.843 227.567 218.518 227.23C219.207 226.893 219.962 226.724 220.784 226.724ZM229.29 223.666H231.512L229.4 228.66H227.992L229.29 223.666ZM236.237 228.594V235.7C236.237 236.287 236.361 236.705 236.611 236.954C236.86 237.189 237.293 237.306 237.909 237.306H239.383V239H237.579C236.464 239 235.628 238.743 235.071 238.23C234.513 237.717 234.235 236.873 234.235 235.7V228.594H232.673V226.944H234.235V223.908H236.237V226.944H239.383V228.594H236.237ZM253.657 226.724C254.567 226.724 255.388 226.922 256.121 227.318C256.855 227.699 257.427 228.279 257.837 229.056C258.263 229.833 258.475 230.779 258.475 231.894V239H256.495V232.18C256.495 230.977 256.195 230.061 255.593 229.43C254.992 228.785 254.171 228.462 253.129 228.462C252.073 228.462 251.23 228.792 250.599 229.452C249.983 230.112 249.675 231.073 249.675 232.334V239H247.673V222.72H249.675V228.66C250.071 228.044 250.614 227.567 251.303 227.23C252.007 226.893 252.792 226.724 253.657 226.724ZM260.998 232.928C260.998 231.696 261.247 230.618 261.746 229.694C262.244 228.755 262.926 228.029 263.792 227.516C264.672 227.003 265.647 226.746 266.718 226.746C267.774 226.746 268.69 226.973 269.468 227.428C270.245 227.883 270.824 228.455 271.206 229.144V226.944H273.23V239H271.206V236.756C270.81 237.46 270.216 238.047 269.424 238.516C268.646 238.971 267.737 239.198 266.696 239.198C265.625 239.198 264.657 238.934 263.792 238.406C262.926 237.878 262.244 237.137 261.746 236.184C261.247 235.231 260.998 234.145 260.998 232.928ZM271.206 232.95C271.206 232.041 271.022 231.249 270.656 230.574C270.289 229.899 269.79 229.386 269.16 229.034C268.544 228.667 267.862 228.484 267.114 228.484C266.366 228.484 265.684 228.66 265.068 229.012C264.452 229.364 263.96 229.877 263.594 230.552C263.227 231.227 263.044 232.019 263.044 232.928C263.044 233.852 263.227 234.659 263.594 235.348C263.96 236.023 264.452 236.543 265.068 236.91C265.684 237.262 266.366 237.438 267.114 237.438C267.862 237.438 268.544 237.262 269.16 236.91C269.79 236.543 270.289 236.023 270.656 235.348C271.022 234.659 271.206 233.859 271.206 232.95ZM281.101 237.152L284.841 226.944H286.975L282.245 239H279.913L275.183 226.944H277.339L281.101 237.152ZM299.945 232.51C299.945 232.891 299.923 233.295 299.879 233.72H290.243C290.316 234.908 290.72 235.839 291.453 236.514C292.201 237.174 293.103 237.504 294.159 237.504C295.024 237.504 295.743 237.306 296.315 236.91C296.902 236.499 297.312 235.957 297.547 235.282H299.703C299.38 236.441 298.735 237.387 297.767 238.12C296.799 238.839 295.596 239.198 294.159 239.198C293.015 239.198 291.988 238.941 291.079 238.428C290.184 237.915 289.48 237.189 288.967 236.25C288.454 235.297 288.197 234.197 288.197 232.95C288.197 231.703 288.446 230.611 288.945 229.672C289.444 228.733 290.14 228.015 291.035 227.516C291.944 227.003 292.986 226.746 294.159 226.746C295.303 226.746 296.315 226.995 297.195 227.494C298.075 227.993 298.75 228.682 299.219 229.562C299.703 230.427 299.945 231.41 299.945 232.51ZM297.877 232.092C297.877 231.329 297.708 230.677 297.371 230.134C297.034 229.577 296.572 229.159 295.985 228.88C295.413 228.587 294.775 228.44 294.071 228.44C293.059 228.44 292.194 228.763 291.475 229.408C290.771 230.053 290.368 230.948 290.265 232.092H297.877ZM307.705 232.928C307.705 231.696 307.954 230.618 308.453 229.694C308.951 228.755 309.633 228.029 310.499 227.516C311.379 227.003 312.354 226.746 313.425 226.746C314.481 226.746 315.397 226.973 316.175 227.428C316.952 227.883 317.531 228.455 317.913 229.144V226.944H319.937V239H317.913V236.756C317.517 237.46 316.923 238.047 316.131 238.516C315.353 238.971 314.444 239.198 313.403 239.198C312.332 239.198 311.364 238.934 310.499 238.406C309.633 237.878 308.951 237.137 308.453 236.184C307.954 235.231 307.705 234.145 307.705 232.928ZM317.913 232.95C317.913 232.041 317.729 231.249 317.363 230.574C316.996 229.899 316.497 229.386 315.867 229.034C315.251 228.667 314.569 228.484 313.821 228.484C313.073 228.484 312.391 228.66 311.775 229.012C311.159 229.364 310.667 229.877 310.301 230.552C309.934 231.227 309.751 232.019 309.751 232.928C309.751 233.852 309.934 234.659 310.301 235.348C310.667 236.023 311.159 236.543 311.775 236.91C312.391 237.262 313.073 237.438 313.821 237.438C314.569 237.438 315.251 237.262 315.867 236.91C316.497 236.543 316.996 236.023 317.363 235.348C317.729 234.659 317.913 233.859 317.913 232.95ZM334.157 226.746C335.199 226.746 336.108 226.973 336.885 227.428C337.677 227.883 338.264 228.455 338.645 229.144V226.944H340.669V239.264C340.669 240.364 340.435 241.339 339.965 242.19C339.496 243.055 338.821 243.73 337.941 244.214C337.076 244.698 336.064 244.94 334.905 244.94C333.321 244.94 332.001 244.566 330.945 243.818C329.889 243.07 329.266 242.051 329.075 240.76H331.055C331.275 241.493 331.73 242.08 332.419 242.52C333.109 242.975 333.937 243.202 334.905 243.202C336.005 243.202 336.9 242.857 337.589 242.168C338.293 241.479 338.645 240.511 338.645 239.264V236.734C338.249 237.438 337.663 238.025 336.885 238.494C336.108 238.963 335.199 239.198 334.157 239.198C333.087 239.198 332.111 238.934 331.231 238.406C330.366 237.878 329.684 237.137 329.185 236.184C328.687 235.231 328.437 234.145 328.437 232.928C328.437 231.696 328.687 230.618 329.185 229.694C329.684 228.755 330.366 228.029 331.231 227.516C332.111 227.003 333.087 226.746 334.157 226.746ZM338.645 232.95C338.645 232.041 338.462 231.249 338.095 230.574C337.729 229.899 337.23 229.386 336.599 229.034C335.983 228.667 335.301 228.484 334.553 228.484C333.805 228.484 333.123 228.66 332.507 229.012C331.891 229.364 331.4 229.877 331.033 230.552C330.667 231.227 330.483 232.019 330.483 232.928C330.483 233.852 330.667 234.659 331.033 235.348C331.4 236.023 331.891 236.543 332.507 236.91C333.123 237.262 333.805 237.438 334.553 237.438C335.301 237.438 335.983 237.262 336.599 236.91C337.23 236.543 337.729 236.023 338.095 235.348C338.462 234.659 338.645 233.859 338.645 232.95ZM346.054 228.902C346.406 228.213 346.905 227.677 347.55 227.296C348.21 226.915 349.01 226.724 349.948 226.724V228.792H349.42C347.176 228.792 346.054 230.009 346.054 232.444V239H344.052V226.944H346.054V228.902ZM363.259 232.51C363.259 232.891 363.237 233.295 363.193 233.72H353.557C353.631 234.908 354.034 235.839 354.767 236.514C355.515 237.174 356.417 237.504 357.473 237.504C358.339 237.504 359.057 237.306 359.629 236.91C360.216 236.499 360.627 235.957 360.861 235.282H363.017C362.695 236.441 362.049 237.387 361.081 238.12C360.113 238.839 358.911 239.198 357.473 239.198C356.329 239.198 355.303 238.941 354.393 238.428C353.499 237.915 352.795 237.189 352.281 236.25C351.768 235.297 351.511 234.197 351.511 232.95C351.511 231.703 351.761 230.611 352.259 229.672C352.758 228.733 353.455 228.015 354.349 227.516C355.259 227.003 356.3 226.746 357.473 226.746C358.617 226.746 359.629 226.995 360.509 227.494C361.389 227.993 362.064 228.682 362.533 229.562C363.017 230.427 363.259 231.41 363.259 232.51ZM361.191 232.092C361.191 231.329 361.023 230.677 360.685 230.134C360.348 229.577 359.886 229.159 359.299 228.88C358.727 228.587 358.089 228.44 357.385 228.44C356.373 228.44 355.508 228.763 354.789 229.408C354.085 230.053 353.682 230.948 353.579 232.092H361.191ZM376.902 232.51C376.902 232.891 376.88 233.295 376.836 233.72H367.2C367.273 234.908 367.677 235.839 368.41 236.514C369.158 237.174 370.06 237.504 371.116 237.504C371.981 237.504 372.7 237.306 373.272 236.91C373.859 236.499 374.269 235.957 374.504 235.282H376.66C376.337 236.441 375.692 237.387 374.724 238.12C373.756 238.839 372.553 239.198 371.116 239.198C369.972 239.198 368.945 238.941 368.036 238.428C367.141 237.915 366.437 237.189 365.924 236.25C365.411 235.297 365.154 234.197 365.154 232.95C365.154 231.703 365.403 230.611 365.902 229.672C366.401 228.733 367.097 228.015 367.992 227.516C368.901 227.003 369.943 226.746 371.116 226.746C372.26 226.746 373.272 226.995 374.152 227.494C375.032 227.993 375.707 228.682 376.176 229.562C376.66 230.427 376.902 231.41 376.902 232.51ZM374.834 232.092C374.834 231.329 374.665 230.677 374.328 230.134C373.991 229.577 373.529 229.159 372.942 228.88C372.37 228.587 371.732 228.44 371.028 228.44C370.016 228.44 369.151 228.763 368.432 229.408C367.728 230.053 367.325 230.948 367.222 232.092H374.834ZM385.419 226.724C386.885 226.724 388.073 227.171 388.983 228.066C389.892 228.946 390.347 230.222 390.347 231.894V239H388.367V232.18C388.367 230.977 388.066 230.061 387.465 229.43C386.863 228.785 386.042 228.462 385.001 228.462C383.945 228.462 383.101 228.792 382.471 229.452C381.855 230.112 381.547 231.073 381.547 232.334V239H379.545V226.944H381.547V228.66C381.943 228.044 382.478 227.567 383.153 227.23C383.842 226.893 384.597 226.724 385.419 226.724ZM401.924 228.594V235.7C401.924 236.287 402.049 236.705 402.298 236.954C402.547 237.189 402.98 237.306 403.596 237.306H405.07V239H403.266C402.151 239 401.315 238.743 400.758 238.23C400.201 237.717 399.922 236.873 399.922 235.7V228.594H398.36V226.944H399.922V223.908H401.924V226.944H405.07V228.594H401.924ZM413.48 226.724C414.389 226.724 415.21 226.922 415.944 227.318C416.677 227.699 417.249 228.279 417.66 229.056C418.085 229.833 418.298 230.779 418.298 231.894V239H416.318V232.18C416.318 230.977 416.017 230.061 415.416 229.43C414.814 228.785 413.993 228.462 412.952 228.462C411.896 228.462 411.052 228.792 410.422 229.452C409.806 230.112 409.498 231.073 409.498 232.334V239H407.496V222.72H409.498V228.66C409.894 228.044 410.436 227.567 411.126 227.23C411.83 226.893 412.614 226.724 413.48 226.724ZM432.26 226.944V239H430.258V237.218C429.877 237.834 429.341 238.318 428.652 238.67C427.977 239.007 427.229 239.176 426.408 239.176C425.469 239.176 424.626 238.985 423.878 238.604C423.13 238.208 422.536 237.621 422.096 236.844C421.671 236.067 421.458 235.121 421.458 234.006V226.944H423.438V233.742C423.438 234.93 423.739 235.847 424.34 236.492C424.941 237.123 425.763 237.438 426.804 237.438C427.875 237.438 428.718 237.108 429.334 236.448C429.95 235.788 430.258 234.827 430.258 233.566V226.944H432.26ZM450.138 226.724C451.077 226.724 451.913 226.922 452.646 227.318C453.38 227.699 453.959 228.279 454.384 229.056C454.81 229.833 455.022 230.779 455.022 231.894V239H453.042V232.18C453.042 230.977 452.742 230.061 452.14 229.43C451.554 228.785 450.754 228.462 449.742 228.462C448.701 228.462 447.872 228.799 447.256 229.474C446.64 230.134 446.332 231.095 446.332 232.356V239H444.352V232.18C444.352 230.977 444.052 230.061 443.45 229.43C442.864 228.785 442.064 228.462 441.052 228.462C440.011 228.462 439.182 228.799 438.566 229.474C437.95 230.134 437.642 231.095 437.642 232.356V239H435.64V226.944H437.642V228.682C438.038 228.051 438.566 227.567 439.226 227.23C439.901 226.893 440.642 226.724 441.448 226.724C442.46 226.724 443.355 226.951 444.132 227.406C444.91 227.861 445.489 228.528 445.87 229.408C446.208 228.557 446.765 227.897 447.542 227.428C448.32 226.959 449.185 226.724 450.138 226.724ZM460.308 229.188C460.719 228.469 461.32 227.883 462.112 227.428C462.904 226.973 463.806 226.746 464.818 226.746C465.904 226.746 466.879 227.003 467.744 227.516C468.61 228.029 469.292 228.755 469.79 229.694C470.289 230.618 470.538 231.696 470.538 232.928C470.538 234.145 470.289 235.231 469.79 236.184C469.292 237.137 468.602 237.878 467.722 238.406C466.857 238.934 465.889 239.198 464.818 239.198C463.777 239.198 462.86 238.971 462.068 238.516C461.291 238.061 460.704 237.482 460.308 236.778V239H458.306V222.72H460.308V229.188ZM468.492 232.928C468.492 232.019 468.309 231.227 467.942 230.552C467.576 229.877 467.077 229.364 466.446 229.012C465.83 228.66 465.148 228.484 464.4 228.484C463.667 228.484 462.985 228.667 462.354 229.034C461.738 229.386 461.24 229.907 460.858 230.596C460.492 231.271 460.308 232.055 460.308 232.95C460.308 233.859 460.492 234.659 460.858 235.348C461.24 236.023 461.738 236.543 462.354 236.91C462.985 237.262 463.667 237.438 464.4 237.438C465.148 237.438 465.83 237.262 466.446 236.91C467.077 236.543 467.576 236.023 467.942 235.348C468.309 234.659 468.492 233.852 468.492 232.928ZM475.241 236.228L472.777 242.146H471.435L473.041 236.228H475.241ZM102.543 259.944L95.2828 277.676H93.2148L95.5908 271.868L90.7288 259.944H92.9508L96.7348 269.712L100.475 259.944H102.543ZM109.813 272.198C108.684 272.198 107.657 271.941 106.733 271.428C105.824 270.915 105.105 270.189 104.577 269.25C104.064 268.297 103.807 267.197 103.807 265.95C103.807 264.718 104.071 263.633 104.599 262.694C105.142 261.741 105.875 261.015 106.799 260.516C107.723 260.003 108.757 259.746 109.901 259.746C111.045 259.746 112.079 260.003 113.003 260.516C113.927 261.015 114.653 261.733 115.181 262.672C115.724 263.611 115.995 264.703 115.995 265.95C115.995 267.197 115.717 268.297 115.159 269.25C114.617 270.189 113.876 270.915 112.937 271.428C111.999 271.941 110.957 272.198 109.813 272.198ZM109.813 270.438C110.532 270.438 111.207 270.269 111.837 269.932C112.468 269.595 112.974 269.089 113.355 268.414C113.751 267.739 113.949 266.918 113.949 265.95C113.949 264.982 113.759 264.161 113.377 263.486C112.996 262.811 112.497 262.313 111.881 261.99C111.265 261.653 110.598 261.484 109.879 261.484C109.146 261.484 108.471 261.653 107.855 261.99C107.254 262.313 106.77 262.811 106.403 263.486C106.037 264.161 105.853 264.982 105.853 265.95C105.853 266.933 106.029 267.761 106.381 268.436C106.748 269.111 107.232 269.617 107.833 269.954C108.435 270.277 109.095 270.438 109.813 270.438ZM129.32 259.944V272H127.318V270.218C126.936 270.834 126.401 271.318 125.712 271.67C125.037 272.007 124.289 272.176 123.468 272.176C122.529 272.176 121.686 271.985 120.938 271.604C120.19 271.208 119.596 270.621 119.156 269.844C118.73 269.067 118.518 268.121 118.518 267.006V259.944H120.498V266.742C120.498 267.93 120.798 268.847 121.4 269.492C122.001 270.123 122.822 270.438 123.864 270.438C124.934 270.438 125.778 270.108 126.394 269.448C127.01 268.788 127.318 267.827 127.318 266.566V259.944H129.32ZM137.817 265.95C137.817 264.703 138.066 263.618 138.565 262.694C139.064 261.755 139.753 261.029 140.633 260.516C141.528 260.003 142.547 259.746 143.691 259.746C145.172 259.746 146.39 260.105 147.343 260.824C148.311 261.543 148.949 262.54 149.257 263.816H147.101C146.896 263.083 146.492 262.503 145.891 262.078C145.304 261.653 144.571 261.44 143.691 261.44C142.547 261.44 141.623 261.836 140.919 262.628C140.215 263.405 139.863 264.513 139.863 265.95C139.863 267.402 140.215 268.524 140.919 269.316C141.623 270.108 142.547 270.504 143.691 270.504C144.571 270.504 145.304 270.299 145.891 269.888C146.478 269.477 146.881 268.891 147.101 268.128H149.257C148.934 269.36 148.289 270.35 147.321 271.098C146.353 271.831 145.143 272.198 143.691 272.198C142.547 272.198 141.528 271.941 140.633 271.428C139.753 270.915 139.064 270.189 138.565 269.25C138.066 268.311 137.817 267.211 137.817 265.95ZM151.18 265.928C151.18 264.696 151.43 263.618 151.928 262.694C152.427 261.755 153.109 261.029 153.974 260.516C154.854 260.003 155.83 259.746 156.9 259.746C157.956 259.746 158.873 259.973 159.65 260.428C160.428 260.883 161.007 261.455 161.388 262.144V259.944H163.412V272H161.388V269.756C160.992 270.46 160.398 271.047 159.606 271.516C158.829 271.971 157.92 272.198 156.878 272.198C155.808 272.198 154.84 271.934 153.974 271.406C153.109 270.878 152.427 270.137 151.928 269.184C151.43 268.231 151.18 267.145 151.18 265.928ZM161.388 265.95C161.388 265.041 161.205 264.249 160.838 263.574C160.472 262.899 159.973 262.386 159.342 262.034C158.726 261.667 158.044 261.484 157.296 261.484C156.548 261.484 155.866 261.66 155.25 262.012C154.634 262.364 154.143 262.877 153.776 263.552C153.41 264.227 153.226 265.019 153.226 265.928C153.226 266.852 153.41 267.659 153.776 268.348C154.143 269.023 154.634 269.543 155.25 269.91C155.866 270.262 156.548 270.438 157.296 270.438C158.044 270.438 158.726 270.262 159.342 269.91C159.973 269.543 160.472 269.023 160.838 268.348C161.205 267.659 161.388 266.859 161.388 265.95ZM172.67 259.724C174.136 259.724 175.324 260.171 176.234 261.066C177.143 261.946 177.598 263.222 177.598 264.894V272H175.618V265.18C175.618 263.977 175.317 263.061 174.716 262.43C174.114 261.785 173.293 261.462 172.252 261.462C171.196 261.462 170.352 261.792 169.722 262.452C169.106 263.112 168.798 264.073 168.798 265.334V272H166.796V259.944H168.798V261.66C169.194 261.044 169.729 260.567 170.404 260.23C171.093 259.893 171.848 259.724 172.67 259.724ZM191.001 272.198C190.077 272.198 189.248 272.044 188.515 271.736C187.782 271.413 187.202 270.973 186.777 270.416C186.352 269.844 186.117 269.191 186.073 268.458H188.141C188.2 269.059 188.478 269.551 188.977 269.932C189.49 270.313 190.158 270.504 190.979 270.504C191.742 270.504 192.343 270.335 192.783 269.998C193.223 269.661 193.443 269.235 193.443 268.722C193.443 268.194 193.208 267.805 192.739 267.556C192.27 267.292 191.544 267.035 190.561 266.786C189.666 266.551 188.933 266.317 188.361 266.082C187.804 265.833 187.32 265.473 186.909 265.004C186.513 264.52 186.315 263.889 186.315 263.112C186.315 262.496 186.498 261.931 186.865 261.418C187.232 260.905 187.752 260.501 188.427 260.208C189.102 259.9 189.872 259.746 190.737 259.746C192.072 259.746 193.15 260.083 193.971 260.758C194.792 261.433 195.232 262.357 195.291 263.53H193.289C193.245 262.899 192.988 262.393 192.519 262.012C192.064 261.631 191.448 261.44 190.671 261.44C189.952 261.44 189.38 261.594 188.955 261.902C188.53 262.21 188.317 262.613 188.317 263.112C188.317 263.508 188.442 263.838 188.691 264.102C188.955 264.351 189.278 264.557 189.659 264.718C190.055 264.865 190.598 265.033 191.287 265.224C192.152 265.459 192.856 265.693 193.399 265.928C193.942 266.148 194.404 266.485 194.785 266.94C195.181 267.395 195.386 267.989 195.401 268.722C195.401 269.382 195.218 269.976 194.851 270.504C194.484 271.032 193.964 271.45 193.289 271.758C192.629 272.051 191.866 272.198 191.001 272.198ZM200.669 261.594V268.7C200.669 269.287 200.794 269.705 201.043 269.954C201.293 270.189 201.725 270.306 202.341 270.306H203.815V272H202.011C200.897 272 200.061 271.743 199.503 271.23C198.946 270.717 198.667 269.873 198.667 268.7V261.594H197.105V259.944H198.667V256.908H200.669V259.944H203.815V261.594H200.669ZM207.275 257.986C206.894 257.986 206.571 257.854 206.307 257.59C206.043 257.326 205.911 257.003 205.911 256.622C205.911 256.241 206.043 255.918 206.307 255.654C206.571 255.39 206.894 255.258 207.275 255.258C207.642 255.258 207.95 255.39 208.199 255.654C208.463 255.918 208.595 256.241 208.595 256.622C208.595 257.003 208.463 257.326 208.199 257.59C207.95 257.854 207.642 257.986 207.275 257.986ZM208.243 259.944V272H206.241V259.944H208.243ZM213.657 255.72V272H211.655V255.72H213.657ZM219.071 255.72V272H217.069V255.72H219.071ZM234.332 259.724C235.242 259.724 236.063 259.922 236.796 260.318C237.53 260.699 238.102 261.279 238.512 262.056C238.938 262.833 239.15 263.779 239.15 264.894V272H237.17V265.18C237.17 263.977 236.87 263.061 236.268 262.43C235.667 261.785 234.846 261.462 233.804 261.462C232.748 261.462 231.905 261.792 231.274 262.452C230.658 263.112 230.35 264.073 230.35 265.334V272H228.348V255.72H230.35V261.66C230.746 261.044 231.289 260.567 231.978 260.23C232.682 259.893 233.467 259.724 234.332 259.724ZM241.673 265.928C241.673 264.696 241.922 263.618 242.421 262.694C242.919 261.755 243.601 261.029 244.467 260.516C245.347 260.003 246.322 259.746 247.393 259.746C248.449 259.746 249.365 259.973 250.143 260.428C250.92 260.883 251.499 261.455 251.881 262.144V259.944H253.905V272H251.881V269.756C251.485 270.46 250.891 271.047 250.099 271.516C249.321 271.971 248.412 272.198 247.371 272.198C246.3 272.198 245.332 271.934 244.467 271.406C243.601 270.878 242.919 270.137 242.421 269.184C241.922 268.231 241.673 267.145 241.673 265.928ZM251.881 265.95C251.881 265.041 251.697 264.249 251.331 263.574C250.964 262.899 250.465 262.386 249.835 262.034C249.219 261.667 248.537 261.484 247.789 261.484C247.041 261.484 246.359 261.66 245.743 262.012C245.127 262.364 244.635 262.877 244.269 263.552C243.902 264.227 243.719 265.019 243.719 265.928C243.719 266.852 243.902 267.659 244.269 268.348C244.635 269.023 245.127 269.543 245.743 269.91C246.359 270.262 247.041 270.438 247.789 270.438C248.537 270.438 249.219 270.262 249.835 269.91C250.465 269.543 250.964 269.023 251.331 268.348C251.697 267.659 251.881 266.859 251.881 265.95ZM261.776 270.152L265.516 259.944H267.65L262.92 272H260.588L255.858 259.944H258.014L261.776 270.152ZM280.62 265.51C280.62 265.891 280.598 266.295 280.554 266.72H270.918C270.991 267.908 271.394 268.839 272.128 269.514C272.876 270.174 273.778 270.504 274.834 270.504C275.699 270.504 276.418 270.306 276.99 269.91C277.576 269.499 277.987 268.957 278.222 268.282H280.378C280.055 269.441 279.41 270.387 278.442 271.12C277.474 271.839 276.271 272.198 274.834 272.198C273.69 272.198 272.663 271.941 271.754 271.428C270.859 270.915 270.155 270.189 269.642 269.25C269.128 268.297 268.872 267.197 268.872 265.95C268.872 264.703 269.121 263.611 269.62 262.672C270.118 261.733 270.815 261.015 271.71 260.516C272.619 260.003 273.66 259.746 274.834 259.746C275.978 259.746 276.99 259.995 277.87 260.494C278.75 260.993 279.424 261.682 279.894 262.562C280.378 263.427 280.62 264.41 280.62 265.51ZM278.552 265.092C278.552 264.329 278.383 263.677 278.046 263.134C277.708 262.577 277.246 262.159 276.66 261.88C276.088 261.587 275.45 261.44 274.746 261.44C273.734 261.44 272.868 261.763 272.15 262.408C271.446 263.053 271.042 263.948 270.94 265.092H278.552ZM288.38 265.928C288.38 264.696 288.629 263.618 289.128 262.694C289.626 261.755 290.308 261.029 291.174 260.516C292.054 260.003 293.029 259.746 294.1 259.746C295.156 259.746 296.072 259.973 296.85 260.428C297.627 260.883 298.206 261.455 298.588 262.144V259.944H300.612V272H298.588V269.756C298.192 270.46 297.598 271.047 296.806 271.516C296.028 271.971 295.119 272.198 294.078 272.198C293.007 272.198 292.039 271.934 291.174 271.406C290.308 270.878 289.626 270.137 289.128 269.184C288.629 268.231 288.38 267.145 288.38 265.928ZM298.588 265.95C298.588 265.041 298.404 264.249 298.038 263.574C297.671 262.899 297.172 262.386 296.542 262.034C295.926 261.667 295.244 261.484 294.496 261.484C293.748 261.484 293.066 261.66 292.45 262.012C291.834 262.364 291.342 262.877 290.976 263.552C290.609 264.227 290.426 265.019 290.426 265.928C290.426 266.852 290.609 267.659 290.976 268.348C291.342 269.023 291.834 269.543 292.45 269.91C293.066 270.262 293.748 270.438 294.496 270.438C295.244 270.438 295.926 270.262 296.542 269.91C297.172 269.543 297.671 269.023 298.038 268.348C298.404 267.659 298.588 266.859 298.588 265.95ZM314.832 259.746C315.873 259.746 316.783 259.973 317.56 260.428C318.352 260.883 318.939 261.455 319.32 262.144V259.944H321.344V272.264C321.344 273.364 321.109 274.339 320.64 275.19C320.171 276.055 319.496 276.73 318.616 277.214C317.751 277.698 316.739 277.94 315.58 277.94C313.996 277.94 312.676 277.566 311.62 276.818C310.564 276.07 309.941 275.051 309.75 273.76H311.73C311.95 274.493 312.405 275.08 313.094 275.52C313.783 275.975 314.612 276.202 315.58 276.202C316.68 276.202 317.575 275.857 318.264 275.168C318.968 274.479 319.32 273.511 319.32 272.264V269.734C318.924 270.438 318.337 271.025 317.56 271.494C316.783 271.963 315.873 272.198 314.832 272.198C313.761 272.198 312.786 271.934 311.906 271.406C311.041 270.878 310.359 270.137 309.86 269.184C309.361 268.231 309.112 267.145 309.112 265.928C309.112 264.696 309.361 263.618 309.86 262.694C310.359 261.755 311.041 261.029 311.906 260.516C312.786 260.003 313.761 259.746 314.832 259.746ZM319.32 265.95C319.32 265.041 319.137 264.249 318.77 263.574C318.403 262.899 317.905 262.386 317.274 262.034C316.658 261.667 315.976 261.484 315.228 261.484C314.48 261.484 313.798 261.66 313.182 262.012C312.566 262.364 312.075 262.877 311.708 263.552C311.341 264.227 311.158 265.019 311.158 265.928C311.158 266.852 311.341 267.659 311.708 268.348C312.075 269.023 312.566 269.543 313.182 269.91C313.798 270.262 314.48 270.438 315.228 270.438C315.976 270.438 316.658 270.262 317.274 269.91C317.905 269.543 318.403 269.023 318.77 268.348C319.137 267.659 319.32 266.859 319.32 265.95ZM326.729 261.902C327.081 261.213 327.58 260.677 328.225 260.296C328.885 259.915 329.685 259.724 330.623 259.724V261.792H330.095C327.851 261.792 326.729 263.009 326.729 265.444V272H324.727V259.944H326.729V261.902ZM343.934 265.51C343.934 265.891 343.912 266.295 343.868 266.72H334.232C334.306 267.908 334.709 268.839 335.442 269.514C336.19 270.174 337.092 270.504 338.148 270.504C339.014 270.504 339.732 270.306 340.304 269.91C340.891 269.499 341.302 268.957 341.536 268.282H343.692C343.37 269.441 342.724 270.387 341.756 271.12C340.788 271.839 339.586 272.198 338.148 272.198C337.004 272.198 335.978 271.941 335.068 271.428C334.174 270.915 333.47 270.189 332.956 269.25C332.443 268.297 332.186 267.197 332.186 265.95C332.186 264.703 332.436 263.611 332.934 262.672C333.433 261.733 334.13 261.015 335.024 260.516C335.934 260.003 336.975 259.746 338.148 259.746C339.292 259.746 340.304 259.995 341.184 260.494C342.064 260.993 342.739 261.682 343.208 262.562C343.692 263.427 343.934 264.41 343.934 265.51ZM341.866 265.092C341.866 264.329 341.698 263.677 341.36 263.134C341.023 262.577 340.561 262.159 339.974 261.88C339.402 261.587 338.764 261.44 338.06 261.44C337.048 261.44 336.183 261.763 335.464 262.408C334.76 263.053 334.357 263.948 334.254 265.092H341.866ZM357.577 265.51C357.577 265.891 357.555 266.295 357.511 266.72H347.875C347.948 267.908 348.351 268.839 349.085 269.514C349.833 270.174 350.735 270.504 351.791 270.504C352.656 270.504 353.375 270.306 353.947 269.91C354.533 269.499 354.944 268.957 355.179 268.282H357.335C357.012 269.441 356.367 270.387 355.399 271.12C354.431 271.839 353.228 272.198 351.791 272.198C350.647 272.198 349.62 271.941 348.711 271.428C347.816 270.915 347.112 270.189 346.599 269.25C346.085 268.297 345.829 267.197 345.829 265.95C345.829 264.703 346.078 263.611 346.577 262.672C347.075 261.733 347.772 261.015 348.667 260.516C349.576 260.003 350.617 259.746 351.791 259.746C352.935 259.746 353.947 259.995 354.827 260.494C355.707 260.993 356.381 261.682 356.851 262.562C357.335 263.427 357.577 264.41 357.577 265.51ZM355.509 265.092C355.509 264.329 355.34 263.677 355.003 263.134C354.665 262.577 354.203 262.159 353.617 261.88C353.045 261.587 352.407 261.44 351.703 261.44C350.691 261.44 349.825 261.763 349.107 262.408C348.403 263.053 347.999 263.948 347.897 265.092H355.509ZM366.093 259.724C367.56 259.724 368.748 260.171 369.657 261.066C370.567 261.946 371.021 263.222 371.021 264.894V272H369.041V265.18C369.041 263.977 368.741 263.061 368.139 262.43C367.538 261.785 366.717 261.462 365.675 261.462C364.619 261.462 363.776 261.792 363.145 262.452C362.529 263.112 362.221 264.073 362.221 265.334V272H360.219V259.944H362.221V261.66C362.617 261.044 363.153 260.567 363.827 260.23C364.517 259.893 365.272 259.724 366.093 259.724ZM386.141 259.724C387.05 259.724 387.872 259.922 388.605 260.318C389.338 260.699 389.91 261.279 390.321 262.056C390.746 262.833 390.959 263.779 390.959 264.894V272H388.979V265.18C388.979 263.977 388.678 263.061 388.077 262.43C387.476 261.785 386.654 261.462 385.613 261.462C384.557 261.462 383.714 261.792 383.083 262.452C382.467 263.112 382.159 264.073 382.159 265.334V272H380.157V255.72H382.159V261.66C382.555 261.044 383.098 260.567 383.787 260.23C384.491 259.893 385.276 259.724 386.141 259.724ZM399.487 272.198C398.358 272.198 397.331 271.941 396.407 271.428C395.498 270.915 394.779 270.189 394.251 269.25C393.738 268.297 393.481 267.197 393.481 265.95C393.481 264.718 393.745 263.633 394.273 262.694C394.816 261.741 395.549 261.015 396.473 260.516C397.397 260.003 398.431 259.746 399.575 259.746C400.719 259.746 401.753 260.003 402.677 260.516C403.601 261.015 404.327 261.733 404.855 262.672C405.398 263.611 405.669 264.703 405.669 265.95C405.669 267.197 405.39 268.297 404.833 269.25C404.29 270.189 403.55 270.915 402.611 271.428C401.672 271.941 400.631 272.198 399.487 272.198ZM399.487 270.438C400.206 270.438 400.88 270.269 401.511 269.932C402.142 269.595 402.648 269.089 403.029 268.414C403.425 267.739 403.623 266.918 403.623 265.95C403.623 264.982 403.432 264.161 403.051 263.486C402.67 262.811 402.171 262.313 401.555 261.99C400.939 261.653 400.272 261.484 399.553 261.484C398.82 261.484 398.145 261.653 397.529 261.99C396.928 262.313 396.444 262.811 396.077 263.486C395.71 264.161 395.527 264.982 395.527 265.95C395.527 266.933 395.703 267.761 396.055 268.436C396.422 269.111 396.906 269.617 397.507 269.954C398.108 270.277 398.768 270.438 399.487 270.438ZM422.799 259.724C423.738 259.724 424.574 259.922 425.307 260.318C426.041 260.699 426.62 261.279 427.045 262.056C427.471 262.833 427.683 263.779 427.683 264.894V272H425.703V265.18C425.703 263.977 425.403 263.061 424.801 262.43C424.215 261.785 423.415 261.462 422.403 261.462C421.362 261.462 420.533 261.799 419.917 262.474C419.301 263.134 418.993 264.095 418.993 265.356V272H417.013V265.18C417.013 263.977 416.713 263.061 416.111 262.43C415.525 261.785 414.725 261.462 413.713 261.462C412.672 261.462 411.843 261.799 411.227 262.474C410.611 263.134 410.303 264.095 410.303 265.356V272H408.301V259.944H410.303V261.682C410.699 261.051 411.227 260.567 411.887 260.23C412.562 259.893 413.303 259.724 414.109 259.724C415.121 259.724 416.016 259.951 416.793 260.406C417.571 260.861 418.15 261.528 418.531 262.408C418.869 261.557 419.426 260.897 420.203 260.428C420.981 259.959 421.846 259.724 422.799 259.724ZM441.967 265.51C441.967 265.891 441.945 266.295 441.901 266.72H432.265C432.339 267.908 432.742 268.839 433.475 269.514C434.223 270.174 435.125 270.504 436.181 270.504C437.047 270.504 437.765 270.306 438.337 269.91C438.924 269.499 439.335 268.957 439.569 268.282H441.725C441.403 269.441 440.757 270.387 439.789 271.12C438.821 271.839 437.619 272.198 436.181 272.198C435.037 272.198 434.011 271.941 433.101 271.428C432.207 270.915 431.503 270.189 430.989 269.25C430.476 268.297 430.219 267.197 430.219 265.95C430.219 264.703 430.469 263.611 430.967 262.672C431.466 261.733 432.163 261.015 433.057 260.516C433.967 260.003 435.008 259.746 436.181 259.746C437.325 259.746 438.337 259.995 439.217 260.494C440.097 260.993 440.772 261.682 441.241 262.562C441.725 263.427 441.967 264.41 441.967 265.51ZM439.899 265.092C439.899 264.329 439.731 263.677 439.393 263.134C439.056 262.577 438.594 262.159 438.007 261.88C437.435 261.587 436.797 261.44 436.093 261.44C435.081 261.44 434.216 261.763 433.497 262.408C432.793 263.053 432.39 263.948 432.287 265.092H439.899ZM445.248 272.132C444.867 272.132 444.544 272 444.28 271.736C444.016 271.472 443.884 271.149 443.884 270.768C443.884 270.387 444.016 270.064 444.28 269.8C444.544 269.536 444.867 269.404 445.248 269.404C445.615 269.404 445.923 269.536 446.172 269.8C446.436 270.064 446.568 270.387 446.568 270.768C446.568 271.149 446.436 271.472 446.172 271.736C445.923 272 445.615 272.132 445.248 272.132Z" fill="black"/>
</svg>
