<svg width="205" height="21" viewBox="0 0 205 21" fill="none" xmlns="http://www.w3.org/2000/svg">
<path d="M7.29566 1.285V16.3068H4.72668V1.285H7.29566ZM12.0106 1.285V3.34844H0.0529957V1.285H12.0106ZM15.4978 7.26897V16.3068H13.0114V5.14363H15.3843L15.4978 7.26897ZM18.9128 5.07141L18.8922 7.38246C18.7409 7.35494 18.5758 7.33431 18.397 7.32055C18.225 7.3068 18.053 7.29992 17.8811 7.29992C17.4547 7.29992 17.0798 7.36182 16.7565 7.48563C16.4333 7.60256 16.1616 7.77451 15.9415 8.00149C15.7282 8.22159 15.5632 8.48983 15.4462 8.80623C15.3293 9.12262 15.2605 9.47685 15.2399 9.8689L14.6725 9.91017C14.6725 9.2086 14.7412 8.55862 14.8788 7.96022C15.0164 7.36182 15.2227 6.83565 15.4978 6.38169C15.7798 5.92773 16.1306 5.57351 16.5502 5.31902C16.9766 5.06453 17.4684 4.93728 18.0255 4.93728C18.1769 4.93728 18.3385 4.95104 18.5104 4.97855C18.6893 5.00606 18.8234 5.03702 18.9128 5.07141ZM27.1872 13.6759V5.14363H29.684V16.3068H27.3316L27.1872 13.6759ZM27.538 11.3546L28.3737 11.3339C28.3737 12.0837 28.2911 12.7749 28.1261 13.4077C27.961 14.0336 27.7065 14.5804 27.3626 15.0481C27.0187 15.509 26.5785 15.8701 26.042 16.1314C25.5055 16.3859 24.8624 16.5132 24.1127 16.5132C23.5693 16.5132 23.0706 16.4341 22.6167 16.2759C22.1627 16.1177 21.7707 15.8735 21.4405 15.5434C21.1173 15.2132 20.8662 14.7833 20.6874 14.2537C20.5085 13.7241 20.4191 13.0913 20.4191 12.3553V5.14363H22.9056V12.376C22.9056 12.7818 22.9537 13.1223 23.05 13.3974C23.1463 13.6656 23.277 13.8823 23.4421 14.0474C23.6071 14.2124 23.7997 14.3294 24.0198 14.3981C24.2399 14.4669 24.4738 14.5013 24.7214 14.5013C25.4298 14.5013 25.987 14.3638 26.3928 14.0886C26.8055 13.8066 27.0978 13.4283 27.2697 12.9537C27.4486 12.4791 27.538 11.9461 27.538 11.3546ZM38.4948 13.2839C38.4948 13.0363 38.4329 12.8127 38.3091 12.6133C38.1853 12.4069 37.948 12.2212 37.5972 12.0561C37.2533 11.8911 36.7444 11.7397 36.0703 11.6022C35.4788 11.4715 34.9354 11.3167 34.4402 11.1379C33.9518 10.9522 33.5323 10.7287 33.1815 10.4673C32.8307 10.2059 32.559 9.89641 32.3664 9.53875C32.1738 9.18109 32.0775 8.7684 32.0775 8.30069C32.0775 7.84673 32.1773 7.41685 32.3767 7.01104C32.5762 6.60523 32.8617 6.24757 33.2331 5.93805C33.6045 5.62853 34.055 5.38436 34.5846 5.20553C35.1211 5.0267 35.7195 4.93728 36.3798 4.93728C37.3152 4.93728 38.1165 5.09548 38.7837 5.41187C39.4578 5.72139 39.9736 6.14439 40.3313 6.68089C40.689 7.2105 40.8678 7.8089 40.8678 8.47608H38.3813C38.3813 8.18032 38.3057 7.90519 38.1544 7.6507C38.0099 7.38933 37.7898 7.17955 37.4941 7.02135C37.1983 6.85628 36.8269 6.77374 36.3798 6.77374C35.9534 6.77374 35.5991 6.84252 35.3171 6.98009C35.042 7.11077 34.8357 7.28272 34.6981 7.49595C34.5674 7.70917 34.5021 7.94302 34.5021 8.19751C34.5021 8.38322 34.5365 8.55174 34.6053 8.70306C34.6809 8.8475 34.8047 8.98162 34.9767 9.10543C35.1486 9.22235 35.3825 9.3324 35.6782 9.43558C35.9809 9.53875 36.3592 9.63848 36.8131 9.73478C37.666 9.91361 38.3985 10.144 39.0107 10.426C39.6297 10.7012 40.1043 11.0588 40.4345 11.499C40.7646 11.9323 40.9297 12.4826 40.9297 13.1498C40.9297 13.645 40.8231 14.0989 40.6099 14.5116C40.4035 14.9174 40.1009 15.2717 39.7019 15.5743C39.303 15.8701 38.825 16.1005 38.2679 16.2656C37.7176 16.4306 37.0986 16.5132 36.4108 16.5132C35.3997 16.5132 34.5434 16.3343 33.8418 15.9767C33.1402 15.6121 32.6072 15.1479 32.2426 14.5839C31.885 14.013 31.7061 13.4215 31.7061 12.8093H34.11C34.1375 13.2701 34.2648 13.6381 34.4918 13.9132C34.7256 14.1815 35.0145 14.3775 35.3584 14.5013C35.7092 14.6182 36.0703 14.6767 36.4417 14.6767C36.8888 14.6767 37.2637 14.6182 37.5663 14.5013C37.8689 14.3775 38.0993 14.2124 38.2575 14.0061C38.4157 13.7929 38.4948 13.5521 38.4948 13.2839ZM48.2239 5.14363V6.95945H41.9305V5.14363H48.2239ZM43.7463 2.40957H46.2327V13.222C46.2327 13.5659 46.2809 13.8307 46.3772 14.0164C46.4803 14.1952 46.6213 14.3156 46.8002 14.3775C46.979 14.4394 47.1888 14.4704 47.4295 14.4704C47.6015 14.4704 47.7666 14.46 47.9247 14.4394C48.0829 14.4188 48.2102 14.3981 48.3065 14.3775L48.3168 16.2759C48.1105 16.3378 47.8697 16.3928 47.5946 16.4409C47.3264 16.4891 47.0168 16.5132 46.6661 16.5132C46.0952 16.5132 45.5896 16.4134 45.1494 16.214C44.7092 16.0076 44.3653 15.674 44.1177 15.2132C43.8701 14.7524 43.7463 14.1402 43.7463 13.3767V2.40957ZM55.0642 16.5132C54.2389 16.5132 53.4926 16.379 52.8254 16.1108C52.1651 15.8357 51.6011 15.4539 51.1334 14.9656C50.6726 14.4772 50.3183 13.9029 50.0707 13.2426C49.8231 12.5823 49.6993 11.8704 49.6993 11.107V10.6943C49.6993 9.82075 49.8265 9.02977 50.081 8.32132C50.3355 7.61287 50.6898 7.0076 51.1437 6.5055C51.5977 5.99651 52.1342 5.6079 52.7532 5.33965C53.3722 5.07141 54.0428 4.93728 54.765 4.93728C55.5629 4.93728 56.261 5.07141 56.8594 5.33965C57.4578 5.6079 57.9531 5.9862 58.3451 6.47454C58.744 6.95601 59.0398 7.53034 59.2324 8.19751C59.4318 8.86469 59.5316 9.60065 59.5316 10.4054V11.4681H50.9064V9.68319H57.0761V9.48716C57.0623 9.04008 56.9729 8.62052 56.8078 8.22847C56.6496 7.83641 56.4055 7.52002 56.0753 7.27928C55.7452 7.03855 55.305 6.91818 54.7547 6.91818C54.342 6.91818 53.9741 7.0076 53.6508 7.18643C53.3344 7.35838 53.0696 7.60943 52.8564 7.93958C52.6431 8.26973 52.4781 8.66867 52.3611 9.13638C52.2511 9.59721 52.1961 10.1165 52.1961 10.6943V11.107C52.1961 11.5953 52.2614 12.0493 52.3921 12.4688C52.5297 12.8815 52.7291 13.2426 52.9905 13.5521C53.2519 13.8617 53.5682 14.1058 53.9397 14.2847C54.3111 14.4566 54.7341 14.5426 55.2087 14.5426C55.8071 14.5426 56.3401 14.4222 56.8078 14.1815C57.2756 13.9407 57.6814 13.6003 58.0253 13.1601L59.3356 14.4291C59.0948 14.7799 58.7819 15.1169 58.3967 15.4402C58.0115 15.7566 57.5404 16.0145 56.9832 16.214C56.433 16.4134 55.7933 16.5132 55.0642 16.5132ZM68.2806 13.9958V0.459623H70.7773V16.3068H68.5179L68.2806 13.9958ZM61.0173 10.849V10.6324C61.0173 9.78636 61.117 9.01601 61.3165 8.32132C61.5159 7.61975 61.8048 7.01792 62.1831 6.51581C62.5614 6.00683 63.0222 5.61822 63.5656 5.34997C64.109 5.07485 64.7211 4.93728 65.4021 4.93728C66.0761 4.93728 66.6676 5.06797 67.1766 5.32934C67.6856 5.5907 68.1189 5.96556 68.4766 6.45391C68.8342 6.93538 69.1197 7.51314 69.3329 8.1872C69.5461 8.85438 69.6975 9.59721 69.7869 10.4157V11.107C69.6975 11.9048 69.5461 12.6339 69.3329 13.2942C69.1197 13.9545 68.8342 14.5254 68.4766 15.0069C68.1189 15.4883 67.6822 15.8597 67.1663 16.1211C66.6573 16.3825 66.0624 16.5132 65.3814 16.5132C64.7074 16.5132 64.0987 16.3722 63.5553 16.0902C63.0188 15.8082 62.5614 15.4127 62.1831 14.9037C61.8048 14.3947 61.5159 13.7963 61.3165 13.1085C61.117 12.4138 61.0173 11.6607 61.0173 10.849ZM63.5037 10.6324V10.849C63.5037 11.358 63.5484 11.8326 63.6378 12.2728C63.7341 12.713 63.882 13.1016 64.0815 13.4386C64.2809 13.7688 64.5389 14.0302 64.8553 14.2228C65.1785 14.4085 65.5637 14.5013 66.0108 14.5013C66.5748 14.5013 67.0391 14.3775 67.4036 14.1299C67.7681 13.8823 68.0536 13.5487 68.2599 13.1291C68.4731 12.7027 68.6176 12.2281 68.6932 11.7054V9.83795C68.652 9.43214 68.566 9.05384 68.4353 8.70306C68.3115 8.35227 68.143 8.0462 67.9298 7.78483C67.7166 7.51658 67.4517 7.31024 67.1354 7.1658C66.8258 7.01448 66.4579 6.93882 66.0314 6.93882C65.5775 6.93882 65.1923 7.03511 64.8759 7.2277C64.5595 7.42029 64.2981 7.68509 64.0918 8.02212C63.8923 8.35915 63.7444 8.7512 63.6481 9.19828C63.5518 9.64536 63.5037 10.1234 63.5037 10.6324ZM78.6493 0.459623H81.1358V13.9236L80.8985 16.3068H78.6493V0.459623ZM88.4197 10.6221V10.8387C88.4197 11.6641 88.3269 12.4241 88.1411 13.1188C87.9623 13.8066 87.6872 14.405 87.3158 14.914C86.9512 15.423 86.4973 15.8185 85.9539 16.1005C85.4174 16.3756 84.7949 16.5132 84.0865 16.5132C83.3918 16.5132 82.7865 16.3825 82.2707 16.1211C81.7548 15.8597 81.3215 15.4883 80.9707 15.0069C80.6268 14.5254 80.3482 13.9511 80.135 13.2839C79.9218 12.6167 79.7705 11.8808 79.681 11.076V10.3848C79.7705 9.57314 79.9218 8.83718 80.135 8.17688C80.3482 7.5097 80.6268 6.93538 80.9707 6.45391C81.3215 5.96556 81.7514 5.5907 82.2603 5.32934C82.7762 5.06797 83.378 4.93728 84.0659 4.93728C84.7812 4.93728 85.4105 5.07485 85.9539 5.34997C86.5041 5.6251 86.9615 6.01715 87.3261 6.52613C87.6906 7.02823 87.9623 7.62663 88.1411 8.32132C88.3269 9.01601 88.4197 9.78292 88.4197 10.6221ZM85.9333 10.8387V10.6221C85.9333 10.12 85.892 9.6488 85.8095 9.2086C85.7269 8.76152 85.5894 8.36947 85.3968 8.03244C85.2111 7.69541 84.9566 7.4306 84.6333 7.23802C84.3169 7.03855 83.9214 6.93882 83.4468 6.93882C83.0066 6.93882 82.6283 7.01448 82.3119 7.1658C81.9955 7.31711 81.7307 7.52346 81.5175 7.78483C81.3043 8.0462 81.1358 8.34883 81.012 8.69274C80.895 9.03665 80.8159 9.40806 80.7747 9.807V11.6744C80.8366 12.1903 80.9673 12.6649 81.1667 13.0982C81.3731 13.5246 81.6619 13.8685 82.0334 14.1299C82.4048 14.3844 82.8828 14.5116 83.4675 14.5116C83.9283 14.5116 84.3169 14.4188 84.6333 14.2331C84.9497 14.0474 85.2007 13.7894 85.3865 13.4593C85.579 13.1223 85.7166 12.7302 85.7991 12.2831C85.8886 11.836 85.9333 11.3546 85.9333 10.8387ZM93.6402 15.0894L96.6735 5.14363H99.3353L94.8576 18.0092C94.7545 18.2843 94.6203 18.5835 94.4553 18.9068C94.2902 19.23 94.0735 19.5361 93.8053 19.825C93.5439 20.1207 93.2172 20.358 92.8251 20.5369C92.4331 20.7226 91.9585 20.8154 91.4014 20.8154C91.1813 20.8154 90.9681 20.7948 90.7617 20.7535C90.5622 20.7191 90.3731 20.6813 90.1943 20.64L90.1839 18.7417C90.2527 18.7486 90.3353 18.7554 90.4316 18.7623C90.5347 18.7692 90.6173 18.7726 90.6792 18.7726C91.0919 18.7726 91.4358 18.721 91.7109 18.6179C91.986 18.5216 92.2096 18.3634 92.3815 18.1433C92.5603 17.9232 92.7117 17.6274 92.8355 17.256L93.6402 15.0894ZM91.9276 5.14363L94.5791 13.5005L95.0227 16.1211L93.2997 16.5648L89.2451 5.14363H91.9276ZM111.138 5.14363V6.95945H104.845V5.14363H111.138ZM106.66 2.40957H109.147V13.222C109.147 13.5659 109.195 13.8307 109.291 14.0164C109.395 14.1952 109.536 14.3156 109.714 14.3775C109.893 14.4394 110.103 14.4704 110.344 14.4704C110.516 14.4704 110.681 14.46 110.839 14.4394C110.997 14.4188 111.124 14.3981 111.221 14.3775L111.231 16.2759C111.025 16.3378 110.784 16.3928 110.509 16.4409C110.241 16.4891 109.931 16.5132 109.58 16.5132C109.009 16.5132 108.504 16.4134 108.064 16.214C107.623 16.0076 107.28 15.674 107.032 15.2132C106.784 14.7524 106.66 14.1402 106.66 13.3767V2.40957ZM112.335 10.849V10.6117C112.335 9.807 112.452 9.06072 112.686 8.37291C112.92 7.67822 113.257 7.07638 113.697 6.5674C114.144 6.05154 114.687 5.65261 115.327 5.3706C115.973 5.08172 116.703 4.93728 117.514 4.93728C118.333 4.93728 119.062 5.08172 119.701 5.3706C120.348 5.65261 120.895 6.05154 121.342 6.5674C121.789 7.07638 122.129 7.67822 122.363 8.37291C122.597 9.06072 122.714 9.807 122.714 10.6117V10.849C122.714 11.6538 122.597 12.4 122.363 13.0879C122.129 13.7757 121.789 14.3775 121.342 14.8934C120.895 15.4024 120.351 15.8013 119.712 16.0902C119.072 16.3722 118.346 16.5132 117.535 16.5132C116.716 16.5132 115.984 16.3722 115.337 16.0902C114.698 15.8013 114.154 15.4024 113.707 14.8934C113.26 14.3775 112.92 13.7757 112.686 13.0879C112.452 12.4 112.335 11.6538 112.335 10.849ZM114.821 10.6117V10.849C114.821 11.3511 114.873 11.8257 114.976 12.2728C115.079 12.7199 115.241 13.1119 115.461 13.449C115.681 13.786 115.963 14.0508 116.307 14.2434C116.651 14.436 117.06 14.5323 117.535 14.5323C117.996 14.5323 118.395 14.436 118.732 14.2434C119.076 14.0508 119.358 13.786 119.578 13.449C119.798 13.1119 119.959 12.7199 120.063 12.2728C120.173 11.8257 120.228 11.3511 120.228 10.849V10.6117C120.228 10.1165 120.173 9.6488 120.063 9.2086C119.959 8.76152 119.794 8.36603 119.567 8.02212C119.347 7.67822 119.065 7.40997 118.721 7.21738C118.384 7.01792 117.982 6.91818 117.514 6.91818C117.046 6.91818 116.641 7.01792 116.297 7.21738C115.96 7.40997 115.681 7.67822 115.461 8.02212C115.241 8.36603 115.079 8.76152 114.976 9.2086C114.873 9.6488 114.821 10.1165 114.821 10.6117ZM127.295 7.2896V20.5988H124.808V5.14363H127.099L127.295 7.2896ZM134.568 10.6221V10.8387C134.568 11.6503 134.472 12.4035 134.28 13.0982C134.094 13.786 133.815 14.3878 133.444 14.9037C133.079 15.4127 132.629 15.8082 132.092 16.0902C131.556 16.3722 130.937 16.5132 130.235 16.5132C129.541 16.5132 128.932 16.3859 128.409 16.1314C127.893 15.8701 127.457 15.5021 127.099 15.0275C126.741 14.5529 126.452 13.9958 126.232 13.3561C126.019 12.7096 125.868 12.0011 125.778 11.2308V10.3951C125.868 9.57658 126.019 8.83374 126.232 8.16656C126.452 7.49938 126.741 6.92506 127.099 6.44359C127.457 5.96212 127.893 5.5907 128.409 5.32934C128.925 5.06797 129.527 4.93728 130.215 4.93728C130.916 4.93728 131.539 5.07485 132.082 5.34997C132.625 5.61822 133.083 6.00339 133.454 6.5055C133.826 7.00072 134.104 7.59912 134.29 8.30069C134.476 8.99538 134.568 9.76917 134.568 10.6221ZM132.082 10.8387V10.6221C132.082 10.1062 132.034 9.62816 131.938 9.18796C131.841 8.74089 131.69 8.34883 131.484 8.0118C131.277 7.67478 131.013 7.41341 130.689 7.2277C130.373 7.03511 129.991 6.93882 129.544 6.93882C129.104 6.93882 128.726 7.01448 128.409 7.1658C128.093 7.31024 127.828 7.51314 127.615 7.77451C127.401 8.03588 127.236 8.34195 127.119 8.69274C127.003 9.03665 126.92 9.4115 126.872 9.81731V11.8188C126.954 12.3141 127.095 12.768 127.295 13.1807C127.494 13.5934 127.776 13.9236 128.141 14.1712C128.512 14.4119 128.987 14.5323 129.565 14.5323C130.012 14.5323 130.393 14.436 130.71 14.2434C131.026 14.0508 131.284 13.786 131.484 13.449C131.69 13.1051 131.841 12.7096 131.938 12.2625C132.034 11.8154 132.082 11.3408 132.082 10.8387ZM141.956 0.459623H144.442V13.9236L144.205 16.3068H141.956V0.459623ZM151.726 10.6221V10.8387C151.726 11.6641 151.633 12.4241 151.447 13.1188C151.269 13.8066 150.993 14.405 150.622 14.914C150.258 15.423 149.804 15.8185 149.26 16.1005C148.724 16.3756 148.101 16.5132 147.393 16.5132C146.698 16.5132 146.093 16.3825 145.577 16.1211C145.061 15.8597 144.628 15.4883 144.277 15.0069C143.933 14.5254 143.654 13.9511 143.441 13.2839C143.228 12.6167 143.077 11.8808 142.987 11.076V10.3848C143.077 9.57314 143.228 8.83718 143.441 8.17688C143.654 7.5097 143.933 6.93538 144.277 6.45391C144.628 5.96556 145.058 5.5907 145.567 5.32934C146.082 5.06797 146.684 4.93728 147.372 4.93728C148.087 4.93728 148.717 5.07485 149.26 5.34997C149.81 5.6251 150.268 6.01715 150.632 6.52613C150.997 7.02823 151.269 7.62663 151.447 8.32132C151.633 9.01601 151.726 9.78292 151.726 10.6221ZM149.24 10.8387V10.6221C149.24 10.12 149.198 9.6488 149.116 9.2086C149.033 8.76152 148.896 8.36947 148.703 8.03244C148.517 7.69541 148.263 7.4306 147.94 7.23802C147.623 7.03855 147.228 6.93882 146.753 6.93882C146.313 6.93882 145.935 7.01448 145.618 7.1658C145.302 7.31711 145.037 7.52346 144.824 7.78483C144.611 8.0462 144.442 8.34883 144.318 8.69274C144.201 9.03665 144.122 9.40806 144.081 9.807V11.6744C144.143 12.1903 144.274 12.6649 144.473 13.0982C144.679 13.5246 144.968 13.8685 145.34 14.1299C145.711 14.3844 146.189 14.5116 146.774 14.5116C147.235 14.5116 147.623 14.4188 147.94 14.2331C148.256 14.0474 148.507 13.7894 148.693 13.4593C148.885 13.1223 149.023 12.7302 149.105 12.2831C149.195 11.836 149.24 11.3546 149.24 10.8387ZM156.327 7.26897V16.3068H153.841V5.14363H156.214L156.327 7.26897ZM159.742 5.07141L159.722 7.38246C159.57 7.35494 159.405 7.33431 159.227 7.32055C159.055 7.3068 158.883 7.29992 158.711 7.29992C158.284 7.29992 157.909 7.36182 157.586 7.48563C157.263 7.60256 156.991 7.77451 156.771 8.00149C156.558 8.22159 156.393 8.48983 156.276 8.80623C156.159 9.12262 156.09 9.47685 156.07 9.8689L155.502 9.91017C155.502 9.2086 155.571 8.55862 155.708 7.96022C155.846 7.36182 156.052 6.83565 156.327 6.38169C156.609 5.92773 156.96 5.57351 157.38 5.31902C157.806 5.06453 158.298 4.93728 158.855 4.93728C159.006 4.93728 159.168 4.95104 159.34 4.97855C159.519 5.00606 159.653 5.03702 159.742 5.07141ZM167.222 14.068V8.74433C167.222 8.34539 167.15 8.00149 167.006 7.71261C166.861 7.42373 166.641 7.20019 166.345 7.04199C166.057 6.88379 165.692 6.80469 165.252 6.80469C164.846 6.80469 164.495 6.87348 164.199 7.01104C163.904 7.1486 163.673 7.33431 163.508 7.56817C163.343 7.80202 163.261 8.06683 163.261 8.36259H160.784C160.784 7.92239 160.891 7.49595 161.104 7.08326C161.318 6.67057 161.627 6.30259 162.033 5.97932C162.439 5.65605 162.924 5.40156 163.488 5.21585C164.052 5.03014 164.684 4.93728 165.386 4.93728C166.225 4.93728 166.968 5.07828 167.614 5.36029C168.268 5.64229 168.78 6.06873 169.152 6.63962C169.53 7.20363 169.719 7.91207 169.719 8.76496V13.7275C169.719 14.2365 169.754 14.6939 169.822 15.0997C169.898 15.4986 170.005 15.846 170.142 16.1417V16.3068H167.594C167.477 16.0386 167.384 15.6981 167.315 15.2854C167.253 14.8659 167.222 14.46 167.222 14.068ZM167.583 9.51811L167.604 11.0554H165.819C165.358 11.0554 164.953 11.1001 164.602 11.1895C164.251 11.272 163.959 11.3958 163.725 11.5609C163.491 11.726 163.316 11.9255 163.199 12.1593C163.082 12.3932 163.023 12.658 163.023 12.9537C163.023 13.2495 163.092 13.5212 163.23 13.7688C163.367 14.0095 163.567 14.1987 163.828 14.3362C164.096 14.4738 164.42 14.5426 164.798 14.5426C165.307 14.5426 165.75 14.4394 166.129 14.2331C166.514 14.0198 166.817 13.7619 167.037 13.4593C167.257 13.1498 167.374 12.8574 167.387 12.5823L168.192 13.6863C168.11 13.9683 167.969 14.2709 167.769 14.5942C167.57 14.9174 167.308 15.227 166.985 15.5227C166.669 15.8116 166.287 16.0489 165.84 16.2346C165.4 16.4203 164.891 16.5132 164.313 16.5132C163.584 16.5132 162.934 16.3687 162.363 16.0798C161.792 15.7841 161.345 15.3886 161.022 14.8934C160.698 14.3913 160.537 13.8238 160.537 13.191C160.537 12.5995 160.647 12.0768 160.867 11.6228C161.094 11.162 161.424 10.7768 161.857 10.4673C162.298 10.1578 162.834 9.92392 163.467 9.76573C164.1 9.60065 164.822 9.51811 165.634 9.51811H167.583ZM174.785 7.5269V16.3068H172.298V5.14363H174.64L174.785 7.5269ZM174.341 10.3125L173.536 10.3022C173.543 9.51124 173.653 8.78559 173.867 8.12529C174.087 7.46499 174.389 6.89755 174.775 6.42296C175.167 5.94837 175.634 5.58383 176.178 5.32934C176.721 5.06797 177.326 4.93728 177.994 4.93728C178.53 4.93728 179.015 5.01294 179.448 5.16426C179.888 5.3087 180.263 5.546 180.573 5.87615C180.889 6.2063 181.13 6.63618 181.295 7.1658C181.46 7.68853 181.543 8.33164 181.543 9.09511V16.3068H179.046V9.08479C179.046 8.5483 178.967 8.12529 178.809 7.81578C178.657 7.49938 178.434 7.27585 178.138 7.14516C177.849 7.0076 177.488 6.93882 177.055 6.93882C176.628 6.93882 176.246 7.02823 175.909 7.20706C175.572 7.3859 175.287 7.63007 175.053 7.93958C174.826 8.2491 174.651 8.60676 174.527 9.01257C174.403 9.41838 174.341 9.8517 174.341 10.3125ZM190.89 13.9958V0.459623H193.387V16.3068H191.127L190.89 13.9958ZM183.627 10.849V10.6324C183.627 9.78636 183.726 9.01601 183.926 8.32132C184.125 7.61975 184.414 7.01792 184.793 6.51581C185.171 6.00683 185.632 5.61822 186.175 5.34997C186.718 5.07485 187.331 4.93728 188.012 4.93728C188.686 4.93728 189.277 5.06797 189.786 5.32934C190.295 5.5907 190.728 5.96556 191.086 6.45391C191.444 6.93538 191.729 7.51314 191.942 8.1872C192.156 8.85438 192.307 9.59721 192.396 10.4157V11.107C192.307 11.9048 192.156 12.6339 191.942 13.2942C191.729 13.9545 191.444 14.5254 191.086 15.0069C190.728 15.4883 190.292 15.8597 189.776 16.1211C189.267 16.3825 188.672 16.5132 187.991 16.5132C187.317 16.5132 186.708 16.3722 186.165 16.0902C185.628 15.8082 185.171 15.4127 184.793 14.9037C184.414 14.3947 184.125 13.7963 183.926 13.1085C183.726 12.4138 183.627 11.6607 183.627 10.849ZM186.113 10.6324V10.849C186.113 11.358 186.158 11.8326 186.247 12.2728C186.344 12.713 186.491 13.1016 186.691 13.4386C186.89 13.7688 187.148 14.0302 187.465 14.2228C187.788 14.4085 188.173 14.5013 188.62 14.5013C189.184 14.5013 189.649 14.3775 190.013 14.1299C190.378 13.8823 190.663 13.5487 190.869 13.1291C191.083 12.7027 191.227 12.2281 191.303 11.7054V9.83795C191.261 9.43214 191.175 9.05384 191.045 8.70306C190.921 8.35227 190.752 8.0462 190.539 7.78483C190.326 7.51658 190.061 7.31024 189.745 7.1658C189.435 7.01448 189.067 6.93882 188.641 6.93882C188.187 6.93882 187.802 7.03511 187.485 7.2277C187.169 7.42029 186.908 7.68509 186.701 8.02212C186.502 8.35915 186.354 8.7512 186.258 9.19828C186.161 9.64536 186.113 10.1234 186.113 10.6324ZM202.249 13.2839C202.249 13.0363 202.187 12.8127 202.064 12.6133C201.94 12.4069 201.702 12.2212 201.352 12.0561C201.008 11.8911 200.499 11.7397 199.825 11.6022C199.233 11.4715 198.69 11.3167 198.195 11.1379C197.706 10.9522 197.287 10.7287 196.936 10.4673C196.585 10.2059 196.313 9.89641 196.121 9.53875C195.928 9.18109 195.832 8.7684 195.832 8.30069C195.832 7.84673 195.932 7.41685 196.131 7.01104C196.331 6.60523 196.616 6.24757 196.987 5.93805C197.359 5.62853 197.809 5.38436 198.339 5.20553C198.876 5.0267 199.474 4.93728 200.134 4.93728C201.07 4.93728 201.871 5.09548 202.538 5.41187C203.212 5.72139 203.728 6.14439 204.086 6.68089C204.443 7.2105 204.622 7.8089 204.622 8.47608H202.136C202.136 8.18032 202.06 7.90519 201.909 7.6507C201.764 7.38933 201.544 7.17955 201.248 7.02135C200.953 6.85628 200.581 6.77374 200.134 6.77374C199.708 6.77374 199.354 6.84252 199.072 6.98009C198.796 7.11077 198.59 7.28272 198.453 7.49595C198.322 7.70917 198.256 7.94302 198.256 8.19751C198.256 8.38322 198.291 8.55174 198.36 8.70306C198.435 8.8475 198.559 8.98162 198.731 9.10543C198.903 9.22235 199.137 9.3324 199.433 9.43558C199.735 9.53875 200.114 9.63848 200.568 9.73478C201.42 9.91361 202.153 10.144 202.765 10.426C203.384 10.7012 203.859 11.0588 204.189 11.499C204.519 11.9323 204.684 12.4826 204.684 13.1498C204.684 13.645 204.577 14.0989 204.364 14.5116C204.158 14.9174 203.855 15.2717 203.456 15.5743C203.057 15.8701 202.579 16.1005 202.022 16.2656C201.472 16.4306 200.853 16.5132 200.165 16.5132C199.154 16.5132 198.298 16.3343 197.596 15.9767C196.895 15.6121 196.362 15.1479 195.997 14.5839C195.639 14.013 195.461 13.4215 195.461 12.8093H197.864C197.892 13.2701 198.019 13.6381 198.246 13.9132C198.48 14.1815 198.769 14.3775 199.113 14.5013C199.464 14.6182 199.825 14.6767 200.196 14.6767C200.643 14.6767 201.018 14.6182 201.321 14.5013C201.623 14.3775 201.854 14.2124 202.012 14.0061C202.17 13.7929 202.249 13.5521 202.249 13.2839Z" fill="black"/>
</svg>
