<svg width="446" height="338" viewBox="0 0 446 338" fill="none" xmlns="http://www.w3.org/2000/svg">
<path d="M36.04 11.824L20.824 46H15.784L0.568 11.824H7L18.376 38.224L29.752 11.824H36.04ZM38.8578 21.76H44.8098V46H38.8578V21.76ZM45.1458 10.768V16.672H38.4738V10.768H45.1458ZM64.4294 21.184C65.3574 21.184 66.1574 21.312 66.8294 21.568L66.7814 27.04C65.7574 26.624 64.7014 26.416 63.6134 26.416C61.5654 26.416 59.9974 27.008 58.9094 28.192C57.8534 29.376 57.3254 30.944 57.3254 32.896V46H51.3734V28.624C51.3734 26.064 51.2454 23.776 50.9894 21.76H56.6054L57.0854 26.032C57.6934 24.464 58.6534 23.264 59.9654 22.432C61.2774 21.6 62.7654 21.184 64.4294 21.184ZM80.0054 26.272V37.12C80.0054 39.968 81.3334 41.392 83.9894 41.392C84.7254 41.392 85.5254 41.264 86.3894 41.008V45.76C85.3334 46.144 84.0534 46.336 82.5494 46.336C79.7974 46.336 77.6854 45.568 76.2134 44.032C74.7414 42.496 74.0054 40.288 74.0054 37.408V26.272H69.3494V21.76H74.0054V15.856L80.0054 13.84V21.76H86.4374V26.272H80.0054ZM112.641 21.76V46H106.785V42.256C106.017 43.6 104.993 44.624 103.713 45.328C102.433 46.032 100.961 46.384 99.2969 46.384C93.3769 46.384 90.4169 43.056 90.4169 36.4V21.76H96.3689V36.448C96.3689 38.208 96.7209 39.504 97.4249 40.336C98.1609 41.168 99.2809 41.584 100.785 41.584C102.545 41.584 103.953 41.008 105.009 39.856C106.065 38.704 106.593 37.168 106.593 35.248V21.76H112.641ZM142.339 21.76V46H136.435V42.112C135.699 43.456 134.643 44.512 133.267 45.28C131.891 46.016 130.323 46.384 128.563 46.384C126.451 46.384 124.579 45.872 122.947 44.848C121.315 43.824 120.051 42.368 119.155 40.48C118.259 38.592 117.811 36.4 117.811 33.904C117.811 31.408 118.259 29.2 119.155 27.28C120.083 25.328 121.363 23.824 122.995 22.768C124.627 21.68 126.483 21.136 128.563 21.136C130.323 21.136 131.891 21.52 133.267 22.288C134.643 23.024 135.699 24.064 136.435 25.408V21.76H142.339ZM130.195 41.68C132.179 41.68 133.715 40.992 134.803 39.616C135.891 38.24 136.435 36.304 136.435 33.808C136.435 31.248 135.891 29.28 134.803 27.904C133.715 26.528 132.163 25.84 130.147 25.84C128.163 25.84 126.611 26.56 125.491 28C124.403 29.408 123.859 31.376 123.859 33.904C123.859 36.4 124.403 38.32 125.491 39.664C126.611 41.008 128.179 41.68 130.195 41.68ZM148.873 10.672H154.825V46H148.873V10.672ZM188.433 21.136C194.225 21.136 197.121 24.464 197.121 31.12V46H191.121V31.408C191.121 29.488 190.753 28.096 190.017 27.232C189.281 26.336 188.145 25.888 186.609 25.888C184.785 25.888 183.313 26.48 182.193 27.664C181.073 28.816 180.513 30.352 180.513 32.272V46H174.561V10.672H180.513V25.264C181.345 23.952 182.449 22.944 183.825 22.24C185.201 21.504 186.737 21.136 188.433 21.136ZM224.699 34.192H207.995C208.123 36.784 208.763 38.704 209.915 39.952C211.099 41.168 212.843 41.776 215.147 41.776C217.803 41.776 220.267 40.912 222.539 39.184L224.267 43.312C223.115 44.24 221.691 44.992 219.995 45.568C218.331 46.112 216.635 46.384 214.907 46.384C210.939 46.384 207.819 45.264 205.547 43.024C203.275 40.784 202.139 37.712 202.139 33.808C202.139 31.344 202.635 29.152 203.627 27.232C204.619 25.312 206.011 23.824 207.803 22.768C209.595 21.68 211.627 21.136 213.899 21.136C217.227 21.136 219.851 22.224 221.771 24.4C223.723 26.544 224.699 29.504 224.699 33.28V34.192ZM214.043 25.456C212.443 25.456 211.131 25.936 210.107 26.896C209.115 27.824 208.475 29.184 208.187 30.976H219.467C219.275 29.152 218.715 27.776 217.787 26.848C216.891 25.92 215.643 25.456 214.043 25.456ZM252.964 21.76V46H247.06V42.112C246.324 43.456 245.268 44.512 243.892 45.28C242.516 46.016 240.948 46.384 239.188 46.384C237.076 46.384 235.204 45.872 233.572 44.848C231.94 43.824 230.676 42.368 229.78 40.48C228.884 38.592 228.436 36.4 228.436 33.904C228.436 31.408 228.884 29.2 229.78 27.28C230.708 25.328 231.988 23.824 233.62 22.768C235.252 21.68 237.108 21.136 239.188 21.136C240.948 21.136 242.516 21.52 243.892 22.288C245.268 23.024 246.324 24.064 247.06 25.408V21.76H252.964ZM240.82 41.68C242.804 41.68 244.34 40.992 245.428 39.616C246.516 38.24 247.06 36.304 247.06 33.808C247.06 31.248 246.516 29.28 245.428 27.904C244.34 26.528 242.788 25.84 240.772 25.84C238.788 25.84 237.236 26.56 236.116 28C235.028 29.408 234.484 31.376 234.484 33.904C234.484 36.4 235.028 38.32 236.116 39.664C237.236 41.008 238.804 41.68 240.82 41.68ZM259.498 10.672H265.45V46H259.498V10.672ZM279.646 26.272V37.12C279.646 39.968 280.974 41.392 283.63 41.392C284.366 41.392 285.166 41.264 286.03 41.008V45.76C284.974 46.144 283.694 46.336 282.19 46.336C279.438 46.336 277.326 45.568 275.854 44.032C274.382 42.496 273.646 40.288 273.646 37.408V26.272H268.99V21.76H273.646V15.856L279.646 13.84V21.76H286.078V26.272H279.646ZM304.074 21.136C309.866 21.136 312.762 24.464 312.762 31.12V46H306.762V31.408C306.762 29.488 306.394 28.096 305.658 27.232C304.922 26.336 303.786 25.888 302.25 25.888C300.426 25.888 298.954 26.48 297.834 27.664C296.714 28.816 296.154 30.352 296.154 32.272V46H290.202V10.672H296.154V25.264C296.986 23.952 298.09 22.944 299.466 22.24C300.842 21.504 302.378 21.136 304.074 21.136ZM330.115 46.384C327.587 46.384 325.395 45.872 323.539 44.848C321.683 43.824 320.259 42.384 319.267 40.528C318.275 38.64 317.779 36.432 317.779 33.904C317.779 31.376 318.291 29.152 319.315 27.232C320.371 25.312 321.843 23.824 323.731 22.768C325.651 21.68 327.859 21.136 330.355 21.136C332.083 21.136 333.747 21.408 335.347 21.952C336.979 22.496 338.275 23.248 339.235 24.208L337.555 28.432C336.531 27.6 335.443 26.976 334.291 26.56C333.139 26.112 332.003 25.888 330.883 25.888C328.707 25.888 327.011 26.576 325.795 27.952C324.579 29.296 323.971 31.248 323.971 33.808C323.971 36.368 324.563 38.32 325.747 39.664C326.963 41.008 328.675 41.68 330.883 41.68C332.003 41.68 333.139 41.456 334.291 41.008C335.443 40.56 336.531 39.92 337.555 39.088L339.235 43.312C338.211 44.272 336.883 45.024 335.251 45.568C333.619 46.112 331.907 46.384 330.115 46.384ZM366.448 21.76V46H360.544V42.112C359.808 43.456 358.752 44.512 357.376 45.28C356 46.016 354.432 46.384 352.672 46.384C350.56 46.384 348.688 45.872 347.056 44.848C345.424 43.824 344.16 42.368 343.264 40.48C342.368 38.592 341.92 36.4 341.92 33.904C341.92 31.408 342.368 29.2 343.264 27.28C344.192 25.328 345.472 23.824 347.104 22.768C348.736 21.68 350.592 21.136 352.672 21.136C354.432 21.136 356 21.52 357.376 22.288C358.752 23.024 359.808 24.064 360.544 25.408V21.76H366.448ZM354.304 41.68C356.288 41.68 357.824 40.992 358.912 39.616C360 38.24 360.544 36.304 360.544 33.808C360.544 31.248 360 29.28 358.912 27.904C357.824 26.528 356.272 25.84 354.256 25.84C352.272 25.84 350.72 26.56 349.6 28C348.512 29.408 347.968 31.376 347.968 33.904C347.968 36.4 348.512 38.32 349.6 39.664C350.72 41.008 352.288 41.68 354.304 41.68ZM386.039 21.184C386.967 21.184 387.767 21.312 388.439 21.568L388.391 27.04C387.367 26.624 386.311 26.416 385.223 26.416C383.175 26.416 381.607 27.008 380.519 28.192C379.463 29.376 378.935 30.944 378.935 32.896V46H372.983V28.624C372.983 26.064 372.855 23.776 372.599 21.76H378.215L378.695 26.032C379.303 24.464 380.263 23.264 381.575 22.432C382.887 21.6 384.375 21.184 386.039 21.184ZM412.527 34.192H395.823C395.951 36.784 396.591 38.704 397.743 39.952C398.927 41.168 400.671 41.776 402.975 41.776C405.631 41.776 408.095 40.912 410.367 39.184L412.095 43.312C410.943 44.24 409.519 44.992 407.823 45.568C406.159 46.112 404.463 46.384 402.735 46.384C398.767 46.384 395.647 45.264 393.375 43.024C391.103 40.784 389.967 37.712 389.967 33.808C389.967 31.344 390.463 29.152 391.455 27.232C392.447 25.312 393.839 23.824 395.631 22.768C397.423 21.68 399.455 21.136 401.727 21.136C405.055 21.136 407.679 22.224 409.599 24.4C411.551 26.544 412.527 29.504 412.527 33.28V34.192ZM401.871 25.456C400.271 25.456 398.959 25.936 397.935 26.896C396.943 27.824 396.303 29.184 396.015 30.976H407.295C407.103 29.152 406.543 27.776 405.615 26.848C404.719 25.92 403.471 25.456 401.871 25.456ZM15.736 71.424C13.144 71.424 11.848 72.848 11.848 75.696V77.76H17.272V82.272H11.848V102H5.848V82.272H1.24V77.76H5.848V75.408C5.848 72.528 6.568 70.32 8.008 68.784C9.48 67.216 11.576 66.432 14.296 66.432C15.8 66.432 17.064 66.624 18.088 67.008V71.76C17.192 71.536 16.408 71.424 15.736 71.424ZM32.6466 102.384C30.1826 102.384 28.0066 101.872 26.1186 100.848C24.2626 99.824 22.8226 98.368 21.7986 96.48C20.8066 94.56 20.3106 92.32 20.3106 89.76C20.3106 87.2 20.8066 84.976 21.7986 83.088C22.8226 81.168 24.2626 79.696 26.1186 78.672C28.0066 77.648 30.1826 77.136 32.6466 77.136C35.0786 77.136 37.2226 77.648 39.0786 78.672C40.9346 79.696 42.3586 81.168 43.3506 83.088C44.3746 84.976 44.8866 87.2 44.8866 89.76C44.8866 92.32 44.3746 94.56 43.3506 96.48C42.3586 98.368 40.9346 99.824 39.0786 100.848C37.2226 101.872 35.0786 102.384 32.6466 102.384ZM32.5986 97.68C34.6466 97.68 36.1986 97.024 37.2546 95.712C38.3426 94.368 38.8866 92.384 38.8866 89.76C38.8866 87.168 38.3426 85.2 37.2546 83.856C36.1666 82.48 34.6306 81.792 32.6466 81.792C30.6306 81.792 29.0786 82.48 27.9906 83.856C26.9026 85.2 26.3586 87.168 26.3586 89.76C26.3586 92.384 26.8866 94.368 27.9426 95.712C29.0306 97.024 30.5826 97.68 32.5986 97.68ZM63.1169 77.184C64.0449 77.184 64.8449 77.312 65.5169 77.568L65.4689 83.04C64.4449 82.624 63.3889 82.416 62.3009 82.416C60.2529 82.416 58.6849 83.008 57.5969 84.192C56.5409 85.376 56.0129 86.944 56.0129 88.896V102H50.0609V84.624C50.0609 82.064 49.9329 79.776 49.6769 77.76H55.2929L55.7729 82.032C56.3809 80.464 57.3409 79.264 58.6529 78.432C59.9649 77.6 61.4529 77.184 63.1169 77.184ZM104.974 77.76L93.6936 103.632C92.4136 106.64 90.7816 108.832 88.7976 110.208C86.8136 111.584 84.3656 112.496 81.4536 112.944L80.1096 108.336C82.3816 107.824 84.0776 107.168 85.1976 106.368C86.3496 105.6 87.2776 104.448 87.9816 102.912L88.7496 101.136L78.6696 77.76H84.9576L91.9176 95.184L99.0216 77.76H104.974ZM118.662 102.384C116.198 102.384 114.022 101.872 112.134 100.848C110.278 99.824 108.838 98.368 107.814 96.48C106.822 94.56 106.326 92.32 106.326 89.76C106.326 87.2 106.822 84.976 107.814 83.088C108.838 81.168 110.278 79.696 112.134 78.672C114.022 77.648 116.198 77.136 118.662 77.136C121.094 77.136 123.238 77.648 125.094 78.672C126.95 79.696 128.374 81.168 129.366 83.088C130.39 84.976 130.902 87.2 130.902 89.76C130.902 92.32 130.39 94.56 129.366 96.48C128.374 98.368 126.95 99.824 125.094 100.848C123.238 101.872 121.094 102.384 118.662 102.384ZM118.614 97.68C120.662 97.68 122.214 97.024 123.27 95.712C124.358 94.368 124.902 92.384 124.902 89.76C124.902 87.168 124.358 85.2 123.27 83.856C122.182 82.48 120.646 81.792 118.662 81.792C116.646 81.792 115.094 82.48 114.006 83.856C112.918 85.2 112.374 87.168 112.374 89.76C112.374 92.384 112.902 94.368 113.958 95.712C115.046 97.024 116.598 97.68 118.614 97.68ZM158.156 77.76V102H152.301V98.256C151.533 99.6 150.509 100.624 149.229 101.328C147.949 102.032 146.477 102.384 144.812 102.384C138.893 102.384 135.933 99.056 135.933 92.4V77.76H141.885V92.448C141.885 94.208 142.237 95.504 142.941 96.336C143.677 97.168 144.797 97.584 146.301 97.584C148.061 97.584 149.469 97.008 150.525 95.856C151.581 94.704 152.109 93.168 152.109 91.248V77.76H158.156Z" fill="black"/>
<path d="M6.607 147.182H1.252V146.048H13.264V147.182H7.909V161H6.607V147.182ZM18.1892 150.227C18.5392 150.227 18.8472 150.255 19.1132 150.311L19.0502 151.466C18.7842 151.41 18.4622 151.382 18.0842 151.382C17.0202 151.382 16.2222 151.725 15.6902 152.411C15.1722 153.083 14.9132 153.888 14.9132 154.826V161H13.6532V153.398C13.6532 152.306 13.5972 151.333 13.4852 150.479H14.7032L14.8712 152.432C15.1372 151.718 15.5642 151.172 16.1522 150.794C16.7542 150.416 17.4332 150.227 18.1892 150.227ZM29.6944 150.479V161H28.4134V158.984C28.1054 159.684 27.6364 160.223 27.0064 160.601C26.3904 160.965 25.6484 161.147 24.7804 161.147C23.8424 161.147 23.0164 160.93 22.3024 160.496C21.6024 160.048 21.0564 159.418 20.6644 158.606C20.2864 157.78 20.0974 156.821 20.0974 155.729C20.0974 154.637 20.2934 153.678 20.6854 152.852C21.0774 152.012 21.6234 151.368 22.3234 150.92C23.0374 150.458 23.8564 150.227 24.7804 150.227C25.6344 150.227 26.3694 150.409 26.9854 150.773C27.6154 151.137 28.0914 151.669 28.4134 152.369V150.479H29.6944ZM24.9694 160.013C26.0614 160.013 26.9084 159.635 27.5104 158.879C28.1124 158.123 28.4134 157.059 28.4134 155.687C28.4134 154.301 28.1124 153.23 27.5104 152.474C26.9084 151.718 26.0544 151.34 24.9484 151.34C23.8424 151.34 22.9814 151.732 22.3654 152.516C21.7494 153.286 21.4414 154.357 21.4414 155.729C21.4414 157.087 21.7494 158.144 22.3654 158.9C22.9814 159.642 23.8494 160.013 24.9694 160.013ZM36.8096 146.615C36.2076 146.615 35.7456 146.776 35.4236 147.098C35.1016 147.42 34.9406 147.994 34.9406 148.82V150.479H37.6496V151.508H34.9406V161H33.6596V151.508H31.6016V150.479H33.6596V148.589C33.6596 147.539 33.9186 146.755 34.4366 146.237C34.9546 145.719 35.6686 145.46 36.5786 145.46C36.9986 145.46 37.4326 145.516 37.8806 145.628V146.783C37.5026 146.671 37.1456 146.615 36.8096 146.615ZM48.8076 150.479V161H47.5266V158.984C47.2186 159.684 46.7496 160.223 46.1196 160.601C45.5036 160.965 44.7616 161.147 43.8936 161.147C42.9556 161.147 42.1296 160.93 41.4156 160.496C40.7156 160.048 40.1696 159.418 39.7776 158.606C39.3996 157.78 39.2106 156.821 39.2106 155.729C39.2106 154.637 39.4066 153.678 39.7986 152.852C40.1906 152.012 40.7366 151.368 41.4366 150.92C42.1506 150.458 42.9696 150.227 43.8936 150.227C44.7476 150.227 45.4826 150.409 46.0986 150.773C46.7286 151.137 47.2046 151.669 47.5266 152.369V150.479H48.8076ZM44.0826 160.013C45.1746 160.013 46.0216 159.635 46.6236 158.879C47.2256 158.123 47.5266 157.059 47.5266 155.687C47.5266 154.301 47.2256 153.23 46.6236 152.474C46.0216 151.718 45.1676 151.34 44.0616 151.34C42.9556 151.34 42.0946 151.732 41.4786 152.516C40.8626 153.286 40.5546 154.357 40.5546 155.729C40.5546 157.087 40.8626 158.144 41.4786 158.9C42.0946 159.642 42.9626 160.013 44.0826 160.013ZM52.2899 145.544H53.5499V161H52.2899V145.544ZM66.0772 150.479V161.042C66.0772 162.568 65.6992 163.723 64.9432 164.507C64.1872 165.291 63.0742 165.683 61.6042 165.683C60.0362 165.683 58.6712 165.305 57.5092 164.549L57.7612 163.436C58.4472 163.842 59.0772 164.129 59.6512 164.297C60.2252 164.465 60.8832 164.549 61.6252 164.549C62.6752 164.549 63.4662 164.262 63.9982 163.688C64.5442 163.114 64.8172 162.274 64.8172 161.168V158.459C64.4952 159.173 64.0192 159.726 63.3892 160.118C62.7592 160.496 62.0032 160.685 61.1212 160.685C60.1972 160.685 59.3782 160.468 58.6642 160.034C57.9502 159.586 57.3902 158.97 56.9842 158.186C56.5922 157.388 56.3962 156.478 56.3962 155.456C56.3962 154.42 56.5922 153.51 56.9842 152.726C57.3902 151.928 57.9502 151.312 58.6642 150.878C59.3782 150.444 60.1972 150.227 61.1212 150.227C62.0032 150.227 62.7522 150.409 63.3682 150.773C63.9982 151.137 64.4742 151.669 64.7962 152.369V150.479H66.0772ZM61.2892 159.53C62.3812 159.53 63.2352 159.166 63.8512 158.438C64.4812 157.71 64.7962 156.716 64.7962 155.456C64.7962 154.182 64.4812 153.181 63.8512 152.453C63.2352 151.711 62.3812 151.34 61.2892 151.34C60.1832 151.34 59.3152 151.711 58.6852 152.453C58.0552 153.181 57.7402 154.182 57.7402 155.456C57.7402 156.73 58.0552 157.731 58.6852 158.459C59.3152 159.173 60.1832 159.53 61.2892 159.53ZM78.4825 150.479V161H77.2015V158.984C76.8935 159.684 76.4245 160.223 75.7945 160.601C75.1785 160.965 74.4365 161.147 73.5685 161.147C72.6305 161.147 71.8045 160.93 71.0905 160.496C70.3905 160.048 69.8445 159.418 69.4525 158.606C69.0745 157.78 68.8855 156.821 68.8855 155.729C68.8855 154.637 69.0815 153.678 69.4735 152.852C69.8655 152.012 70.4115 151.368 71.1115 150.92C71.8255 150.458 72.6445 150.227 73.5685 150.227C74.4225 150.227 75.1575 150.409 75.7735 150.773C76.4035 151.137 76.8795 151.669 77.2015 152.369V150.479H78.4825ZM73.7575 160.013C74.8495 160.013 75.6965 159.635 76.2985 158.879C76.9005 158.123 77.2015 157.059 77.2015 155.687C77.2015 154.301 76.9005 153.23 76.2985 152.474C75.6965 151.718 74.8425 151.34 73.7365 151.34C72.6305 151.34 71.7695 151.732 71.1535 152.516C70.5375 153.286 70.2295 154.357 70.2295 155.729C70.2295 157.087 70.5375 158.144 71.1535 158.9C71.7695 159.642 72.6375 160.013 73.7575 160.013ZM86.5007 150.227C86.8507 150.227 87.1587 150.255 87.4247 150.311L87.3617 151.466C87.0957 151.41 86.7737 151.382 86.3957 151.382C85.3317 151.382 84.5337 151.725 84.0017 152.411C83.4837 153.083 83.2247 153.888 83.2247 154.826V161H81.9647V153.398C81.9647 152.306 81.9087 151.333 81.7967 150.479H83.0147L83.1827 152.432C83.4487 151.718 83.8757 151.172 84.4637 150.794C85.0657 150.416 85.7447 150.227 86.5007 150.227ZM99.5525 150.227C100.477 150.227 101.289 150.458 101.989 150.92C102.703 151.368 103.256 152.012 103.648 152.852C104.04 153.678 104.236 154.637 104.236 155.729C104.236 156.821 104.04 157.773 103.648 158.585C103.27 159.397 102.724 160.027 102.01 160.475C101.296 160.923 100.477 161.147 99.5525 161.147C98.6705 161.147 97.9145 160.958 97.2845 160.58C96.6685 160.188 96.2065 159.628 95.8985 158.9V165.536H94.6385V153.398C94.6385 152.306 94.5825 151.333 94.4705 150.479H95.6885L95.8565 152.537C96.1645 151.795 96.6335 151.228 97.2635 150.836C97.9075 150.43 98.6705 150.227 99.5525 150.227ZM99.3845 160.013C100.491 160.013 101.352 159.642 101.968 158.9C102.584 158.144 102.892 157.087 102.892 155.729C102.892 154.357 102.584 153.286 101.968 152.516C101.352 151.732 100.498 151.34 99.4055 151.34C98.2855 151.34 97.4245 151.718 96.8225 152.474C96.2205 153.23 95.9195 154.301 95.9195 155.687C95.9195 157.059 96.2205 158.123 96.8225 158.879C97.4245 159.635 98.2785 160.013 99.3845 160.013ZM111.582 150.227C111.932 150.227 112.24 150.255 112.506 150.311L112.443 151.466C112.177 151.41 111.855 151.382 111.477 151.382C110.413 151.382 109.615 151.725 109.083 152.411C108.565 153.083 108.306 153.888 108.306 154.826V161H107.046V153.398C107.046 152.306 106.99 151.333 106.878 150.479H108.096L108.264 152.432C108.53 151.718 108.957 151.172 109.545 150.794C110.147 150.416 110.826 150.227 111.582 150.227ZM118.341 161.147C117.375 161.147 116.521 160.923 115.779 160.475C115.051 160.027 114.484 159.39 114.078 158.564C113.686 157.738 113.49 156.779 113.49 155.687C113.49 154.595 113.686 153.636 114.078 152.81C114.484 151.984 115.051 151.347 115.779 150.899C116.521 150.451 117.375 150.227 118.341 150.227C119.293 150.227 120.133 150.451 120.861 150.899C121.589 151.347 122.149 151.984 122.541 152.81C122.947 153.636 123.15 154.595 123.15 155.687C123.15 156.779 122.947 157.738 122.541 158.564C122.149 159.39 121.589 160.027 120.861 160.475C120.133 160.923 119.293 161.147 118.341 161.147ZM118.32 160.013C119.44 160.013 120.301 159.642 120.903 158.9C121.519 158.144 121.827 157.073 121.827 155.687C121.827 154.315 121.519 153.251 120.903 152.495C120.287 151.725 119.433 151.34 118.341 151.34C117.235 151.34 116.374 151.725 115.758 152.495C115.142 153.251 114.834 154.315 114.834 155.687C114.834 157.087 115.135 158.158 115.737 158.9C116.339 159.642 117.2 160.013 118.32 160.013ZM134.776 150.479L130.261 161H128.938L124.486 150.479H125.851L129.652 159.719L133.474 150.479H134.776ZM136.885 150.479H138.145V161H136.885V150.479ZM138.397 146.132V147.77H136.696V146.132H138.397ZM150.588 145.544V161H149.307V158.984C148.999 159.684 148.53 160.223 147.9 160.601C147.284 160.965 146.542 161.147 145.674 161.147C144.75 161.147 143.931 160.923 143.217 160.475C142.517 160.013 141.971 159.369 141.579 158.543C141.187 157.703 140.991 156.737 140.991 155.645C140.991 154.553 141.18 153.601 141.558 152.789C141.95 151.963 142.496 151.333 143.196 150.899C143.91 150.451 144.736 150.227 145.674 150.227C146.528 150.227 147.263 150.409 147.879 150.773C148.509 151.137 148.985 151.669 149.307 152.369V145.544H150.588ZM145.842 160.013C146.948 160.013 147.802 159.635 148.404 158.879C149.006 158.123 149.307 157.059 149.307 155.687C149.307 154.315 149.006 153.251 148.404 152.495C147.802 151.725 146.955 151.34 145.863 151.34C144.743 151.34 143.875 151.718 143.259 152.474C142.643 153.23 142.335 154.287 142.335 155.645C142.335 157.017 142.643 158.088 143.259 158.858C143.875 159.628 144.736 160.013 145.842 160.013ZM154.742 155.582V155.645C154.742 157.059 155.064 158.144 155.708 158.9C156.366 159.642 157.318 160.013 158.564 160.013C159.824 160.013 160.979 159.579 162.029 158.711L162.533 159.719C162.071 160.153 161.483 160.503 160.769 160.769C160.055 161.021 159.32 161.147 158.564 161.147C156.968 161.147 155.708 160.664 154.784 159.698C153.86 158.732 153.398 157.402 153.398 155.708C153.398 154.63 153.601 153.678 154.007 152.852C154.427 152.012 155.008 151.368 155.75 150.92C156.492 150.458 157.346 150.227 158.312 150.227C159.698 150.227 160.776 150.675 161.546 151.571C162.33 152.467 162.722 153.713 162.722 155.309V155.582H154.742ZM158.312 151.277C157.346 151.277 156.562 151.571 155.96 152.159C155.358 152.733 154.98 153.545 154.826 154.595H161.504C161.42 153.517 161.105 152.698 160.559 152.138C160.013 151.564 159.264 151.277 158.312 151.277ZM168.895 161.147C167.187 161.147 165.836 160.678 164.842 159.74L165.304 158.753C165.864 159.215 166.424 159.544 166.984 159.74C167.558 159.936 168.216 160.034 168.958 160.034C169.826 160.034 170.484 159.887 170.932 159.593C171.394 159.285 171.625 158.844 171.625 158.27C171.625 157.794 171.471 157.423 171.163 157.157C170.869 156.877 170.379 156.653 169.693 156.485L167.908 156.086C167.068 155.89 166.403 155.54 165.913 155.036C165.437 154.532 165.199 153.944 165.199 153.272C165.199 152.348 165.549 151.613 166.249 151.067C166.963 150.507 167.908 150.227 169.084 150.227C169.826 150.227 170.512 150.346 171.142 150.584C171.786 150.822 172.318 151.165 172.738 151.613L172.255 152.6C171.289 151.76 170.232 151.34 169.084 151.34C168.272 151.34 167.642 151.501 167.194 151.823C166.746 152.145 166.522 152.593 166.522 153.167C166.522 153.643 166.662 154.028 166.942 154.322C167.236 154.616 167.684 154.833 168.286 154.973L170.092 155.414C171.982 155.834 172.927 156.765 172.927 158.207C172.927 159.089 172.563 159.803 171.835 160.349C171.107 160.881 170.127 161.147 168.895 161.147ZM186.116 150.227C187.04 150.227 187.852 150.458 188.552 150.92C189.266 151.368 189.819 152.012 190.211 152.852C190.603 153.678 190.799 154.637 190.799 155.729C190.799 156.821 190.603 157.773 190.211 158.585C189.833 159.397 189.287 160.027 188.573 160.475C187.859 160.923 187.04 161.147 186.116 161.147C185.234 161.147 184.478 160.958 183.848 160.58C183.232 160.188 182.77 159.628 182.462 158.9V165.536H181.202V153.398C181.202 152.306 181.146 151.333 181.034 150.479H182.252L182.42 152.537C182.728 151.795 183.197 151.228 183.827 150.836C184.471 150.43 185.234 150.227 186.116 150.227ZM185.948 160.013C187.054 160.013 187.915 159.642 188.531 158.9C189.147 158.144 189.455 157.087 189.455 155.729C189.455 154.357 189.147 153.286 188.531 152.516C187.915 151.732 187.061 151.34 185.969 151.34C184.849 151.34 183.988 151.718 183.386 152.474C182.784 153.23 182.483 154.301 182.483 155.687C182.483 157.059 182.784 158.123 183.386 158.879C183.988 159.635 184.842 160.013 185.948 160.013ZM198.145 150.227C198.495 150.227 198.803 150.255 199.069 150.311L199.006 151.466C198.74 151.41 198.418 151.382 198.04 151.382C196.976 151.382 196.178 151.725 195.646 152.411C195.128 153.083 194.869 153.888 194.869 154.826V161H193.609V153.398C193.609 152.306 193.553 151.333 193.441 150.479H194.659L194.827 152.432C195.093 151.718 195.52 151.172 196.108 150.794C196.71 150.416 197.389 150.227 198.145 150.227ZM204.904 161.147C203.938 161.147 203.084 160.923 202.342 160.475C201.614 160.027 201.047 159.39 200.641 158.564C200.249 157.738 200.053 156.779 200.053 155.687C200.053 154.595 200.249 153.636 200.641 152.81C201.047 151.984 201.614 151.347 202.342 150.899C203.084 150.451 203.938 150.227 204.904 150.227C205.856 150.227 206.696 150.451 207.424 150.899C208.152 151.347 208.712 151.984 209.104 152.81C209.51 153.636 209.713 154.595 209.713 155.687C209.713 156.779 209.51 157.738 209.104 158.564C208.712 159.39 208.152 160.027 207.424 160.475C206.696 160.923 205.856 161.147 204.904 161.147ZM204.883 160.013C206.003 160.013 206.864 159.642 207.466 158.9C208.082 158.144 208.39 157.073 208.39 155.687C208.39 154.315 208.082 153.251 207.466 152.495C206.85 151.725 205.996 151.34 204.904 151.34C203.798 151.34 202.937 151.725 202.321 152.495C201.705 153.251 201.397 154.315 201.397 155.687C201.397 157.087 201.698 158.158 202.3 158.9C202.902 159.642 203.763 160.013 204.883 160.013ZM221.526 150.479V161.042C221.526 162.568 221.148 163.723 220.392 164.507C219.636 165.291 218.523 165.683 217.053 165.683C215.485 165.683 214.12 165.305 212.958 164.549L213.21 163.436C213.896 163.842 214.526 164.129 215.1 164.297C215.674 164.465 216.332 164.549 217.074 164.549C218.124 164.549 218.915 164.262 219.447 163.688C219.993 163.114 220.266 162.274 220.266 161.168V158.459C219.944 159.173 219.468 159.726 218.838 160.118C218.208 160.496 217.452 160.685 216.57 160.685C215.646 160.685 214.827 160.468 214.113 160.034C213.399 159.586 212.839 158.97 212.433 158.186C212.041 157.388 211.845 156.478 211.845 155.456C211.845 154.42 212.041 153.51 212.433 152.726C212.839 151.928 213.399 151.312 214.113 150.878C214.827 150.444 215.646 150.227 216.57 150.227C217.452 150.227 218.201 150.409 218.817 150.773C219.447 151.137 219.923 151.669 220.245 152.369V150.479H221.526ZM216.738 159.53C217.83 159.53 218.684 159.166 219.3 158.438C219.93 157.71 220.245 156.716 220.245 155.456C220.245 154.182 219.93 153.181 219.3 152.453C218.684 151.711 217.83 151.34 216.738 151.34C215.632 151.34 214.764 151.711 214.134 152.453C213.504 153.181 213.189 154.182 213.189 155.456C213.189 156.73 213.504 157.731 214.134 158.459C214.764 159.173 215.632 159.53 216.738 159.53ZM229.543 150.227C229.893 150.227 230.201 150.255 230.467 150.311L230.404 151.466C230.138 151.41 229.816 151.382 229.438 151.382C228.374 151.382 227.576 151.725 227.044 152.411C226.526 153.083 226.267 153.888 226.267 154.826V161H225.007V153.398C225.007 152.306 224.951 151.333 224.839 150.479H226.057L226.225 152.432C226.491 151.718 226.918 151.172 227.506 150.794C228.108 150.416 228.787 150.227 229.543 150.227ZM232.795 155.582V155.645C232.795 157.059 233.117 158.144 233.761 158.9C234.419 159.642 235.371 160.013 236.617 160.013C237.877 160.013 239.032 159.579 240.082 158.711L240.586 159.719C240.124 160.153 239.536 160.503 238.822 160.769C238.108 161.021 237.373 161.147 236.617 161.147C235.021 161.147 233.761 160.664 232.837 159.698C231.913 158.732 231.451 157.402 231.451 155.708C231.451 154.63 231.654 153.678 232.06 152.852C232.48 152.012 233.061 151.368 233.803 150.92C234.545 150.458 235.399 150.227 236.365 150.227C237.751 150.227 238.829 150.675 239.599 151.571C240.383 152.467 240.775 153.713 240.775 155.309V155.582H232.795ZM236.365 151.277C235.399 151.277 234.615 151.571 234.013 152.159C233.411 152.733 233.033 153.545 232.879 154.595H239.557C239.473 153.517 239.158 152.698 238.612 152.138C238.066 151.564 237.317 151.277 236.365 151.277ZM246.948 161.147C245.24 161.147 243.889 160.678 242.895 159.74L243.357 158.753C243.917 159.215 244.477 159.544 245.037 159.74C245.611 159.936 246.269 160.034 247.011 160.034C247.879 160.034 248.537 159.887 248.985 159.593C249.447 159.285 249.678 158.844 249.678 158.27C249.678 157.794 249.524 157.423 249.216 157.157C248.922 156.877 248.432 156.653 247.746 156.485L245.961 156.086C245.121 155.89 244.456 155.54 243.966 155.036C243.49 154.532 243.252 153.944 243.252 153.272C243.252 152.348 243.602 151.613 244.302 151.067C245.016 150.507 245.961 150.227 247.137 150.227C247.879 150.227 248.565 150.346 249.195 150.584C249.839 150.822 250.371 151.165 250.791 151.613L250.308 152.6C249.342 151.76 248.285 151.34 247.137 151.34C246.325 151.34 245.695 151.501 245.247 151.823C244.799 152.145 244.575 152.593 244.575 153.167C244.575 153.643 244.715 154.028 244.995 154.322C245.289 154.616 245.737 154.833 246.339 154.973L248.145 155.414C250.035 155.834 250.98 156.765 250.98 158.207C250.98 159.089 250.616 159.803 249.888 160.349C249.16 160.881 248.18 161.147 246.948 161.147ZM257.325 161.147C255.617 161.147 254.266 160.678 253.272 159.74L253.734 158.753C254.294 159.215 254.854 159.544 255.414 159.74C255.988 159.936 256.646 160.034 257.388 160.034C258.256 160.034 258.914 159.887 259.362 159.593C259.824 159.285 260.055 158.844 260.055 158.27C260.055 157.794 259.901 157.423 259.593 157.157C259.299 156.877 258.809 156.653 258.123 156.485L256.338 156.086C255.498 155.89 254.833 155.54 254.343 155.036C253.867 154.532 253.629 153.944 253.629 153.272C253.629 152.348 253.979 151.613 254.679 151.067C255.393 150.507 256.338 150.227 257.514 150.227C258.256 150.227 258.942 150.346 259.572 150.584C260.216 150.822 260.748 151.165 261.168 151.613L260.685 152.6C259.719 151.76 258.662 151.34 257.514 151.34C256.702 151.34 256.072 151.501 255.624 151.823C255.176 152.145 254.952 152.593 254.952 153.167C254.952 153.643 255.092 154.028 255.372 154.322C255.666 154.616 256.114 154.833 256.716 154.973L258.522 155.414C260.412 155.834 261.357 156.765 261.357 158.207C261.357 159.089 260.993 159.803 260.265 160.349C259.537 160.881 258.557 161.147 257.325 161.147ZM264.279 150.479H265.539V161H264.279V150.479ZM265.791 146.132V147.77H264.09V146.132H265.791ZM277.982 150.479L273.467 161H272.144L267.692 150.479H269.057L272.858 159.719L276.68 150.479H277.982ZM280.66 155.582V155.645C280.66 157.059 280.982 158.144 281.626 158.9C282.284 159.642 283.236 160.013 284.482 160.013C285.742 160.013 286.897 159.579 287.947 158.711L288.451 159.719C287.989 160.153 287.401 160.503 286.687 160.769C285.973 161.021 285.238 161.147 284.482 161.147C282.886 161.147 281.626 160.664 280.702 159.698C279.778 158.732 279.316 157.402 279.316 155.708C279.316 154.63 279.519 153.678 279.925 152.852C280.345 152.012 280.926 151.368 281.668 150.92C282.41 150.458 283.264 150.227 284.23 150.227C285.616 150.227 286.694 150.675 287.464 151.571C288.248 152.467 288.64 153.713 288.64 155.309V155.582H280.66ZM284.23 151.277C283.264 151.277 282.48 151.571 281.878 152.159C281.276 152.733 280.898 153.545 280.744 154.595H287.422C287.338 153.517 287.023 152.698 286.477 152.138C285.931 151.564 285.182 151.277 284.23 151.277ZM292.881 159.173V160.517C292.881 161.049 292.797 161.539 292.629 161.987C292.461 162.435 292.181 162.855 291.789 163.247L291.117 162.722C291.593 162.19 291.859 161.616 291.915 161H291.096V159.173H292.881ZM310.323 150.479V161H309.042V158.984C308.734 159.684 308.265 160.223 307.635 160.601C307.019 160.965 306.277 161.147 305.409 161.147C304.471 161.147 303.645 160.93 302.931 160.496C302.231 160.048 301.685 159.418 301.293 158.606C300.915 157.78 300.726 156.821 300.726 155.729C300.726 154.637 300.922 153.678 301.314 152.852C301.706 152.012 302.252 151.368 302.952 150.92C303.666 150.458 304.485 150.227 305.409 150.227C306.263 150.227 306.998 150.409 307.614 150.773C308.244 151.137 308.72 151.669 309.042 152.369V150.479H310.323ZM305.598 160.013C306.69 160.013 307.537 159.635 308.139 158.879C308.741 158.123 309.042 157.059 309.042 155.687C309.042 154.301 308.741 153.23 308.139 152.474C307.537 151.718 306.683 151.34 305.577 151.34C304.471 151.34 303.61 151.732 302.994 152.516C302.378 153.286 302.07 154.357 302.07 155.729C302.07 157.087 302.378 158.144 302.994 158.9C303.61 159.642 304.478 160.013 305.598 160.013ZM318.699 150.227C321.233 150.227 322.5 151.585 322.5 154.301V161H321.219V154.385C321.219 153.335 321.002 152.565 320.568 152.075C320.148 151.585 319.483 151.34 318.573 151.34C317.523 151.34 316.676 151.662 316.032 152.306C315.388 152.95 315.066 153.818 315.066 154.91V161H313.806V153.398C313.806 152.306 313.75 151.333 313.638 150.479H314.856L315.024 152.411C315.346 151.697 315.829 151.158 316.473 150.794C317.117 150.416 317.859 150.227 318.699 150.227ZM334.871 145.544V161H333.59V158.984C333.282 159.684 332.813 160.223 332.183 160.601C331.567 160.965 330.825 161.147 329.957 161.147C329.033 161.147 328.214 160.923 327.5 160.475C326.8 160.013 326.254 159.369 325.862 158.543C325.47 157.703 325.274 156.737 325.274 155.645C325.274 154.553 325.463 153.601 325.841 152.789C326.233 151.963 326.779 151.333 327.479 150.899C328.193 150.451 329.019 150.227 329.957 150.227C330.811 150.227 331.546 150.409 332.162 150.773C332.792 151.137 333.268 151.669 333.59 152.369V145.544H334.871ZM330.125 160.013C331.231 160.013 332.085 159.635 332.687 158.879C333.289 158.123 333.59 157.059 333.59 155.687C333.59 154.315 333.289 153.251 332.687 152.495C332.085 151.725 331.238 151.34 330.146 151.34C329.026 151.34 328.158 151.718 327.542 152.474C326.926 153.23 326.618 154.287 326.618 155.645C326.618 157.017 326.926 158.088 327.542 158.858C328.158 159.628 329.019 160.013 330.125 160.013ZM352.631 150.479V161H351.35V158.984C351.042 159.684 350.573 160.223 349.943 160.601C349.327 160.965 348.585 161.147 347.717 161.147C346.779 161.147 345.953 160.93 345.239 160.496C344.539 160.048 343.993 159.418 343.601 158.606C343.223 157.78 343.034 156.821 343.034 155.729C343.034 154.637 343.23 153.678 343.622 152.852C344.014 152.012 344.56 151.368 345.26 150.92C345.974 150.458 346.793 150.227 347.717 150.227C348.571 150.227 349.306 150.409 349.922 150.773C350.552 151.137 351.028 151.669 351.35 152.369V150.479H352.631ZM347.906 160.013C348.998 160.013 349.845 159.635 350.447 158.879C351.049 158.123 351.35 157.059 351.35 155.687C351.35 154.301 351.049 153.23 350.447 152.474C349.845 151.718 348.991 151.34 347.885 151.34C346.779 151.34 345.918 151.732 345.302 152.516C344.686 153.286 344.378 154.357 344.378 155.729C344.378 157.087 344.686 158.144 345.302 158.9C345.918 159.642 346.786 160.013 347.906 160.013ZM359.746 146.615C359.144 146.615 358.682 146.776 358.36 147.098C358.038 147.42 357.877 147.994 357.877 148.82V150.479H360.586V151.508H357.877V161H356.596V151.508H354.538V150.479H356.596V148.589C356.596 147.539 356.855 146.755 357.373 146.237C357.891 145.719 358.605 145.46 359.515 145.46C359.935 145.46 360.369 145.516 360.817 145.628V146.783C360.439 146.671 360.082 146.615 359.746 146.615ZM366.637 146.615C366.035 146.615 365.573 146.776 365.251 147.098C364.929 147.42 364.768 147.994 364.768 148.82V150.479H367.477V151.508H364.768V161H363.487V151.508H361.429V150.479H363.487V148.589C363.487 147.539 363.746 146.755 364.264 146.237C364.782 145.719 365.496 145.46 366.406 145.46C366.826 145.46 367.26 145.516 367.708 145.628V146.783C367.33 146.671 366.973 146.615 366.637 146.615ZM373.889 161.147C372.923 161.147 372.069 160.923 371.327 160.475C370.599 160.027 370.032 159.39 369.626 158.564C369.234 157.738 369.038 156.779 369.038 155.687C369.038 154.595 369.234 153.636 369.626 152.81C370.032 151.984 370.599 151.347 371.327 150.899C372.069 150.451 372.923 150.227 373.889 150.227C374.841 150.227 375.681 150.451 376.409 150.899C377.137 151.347 377.697 151.984 378.089 152.81C378.495 153.636 378.698 154.595 378.698 155.687C378.698 156.779 378.495 157.738 378.089 158.564C377.697 159.39 377.137 160.027 376.409 160.475C375.681 160.923 374.841 161.147 373.889 161.147ZM373.868 160.013C374.988 160.013 375.849 159.642 376.451 158.9C377.067 158.144 377.375 157.073 377.375 155.687C377.375 154.315 377.067 153.251 376.451 152.495C375.835 151.725 374.981 151.34 373.889 151.34C372.783 151.34 371.922 151.725 371.306 152.495C370.69 153.251 370.382 154.315 370.382 155.687C370.382 157.087 370.683 158.158 371.285 158.9C371.887 159.642 372.748 160.013 373.868 160.013ZM386.038 150.227C386.388 150.227 386.696 150.255 386.962 150.311L386.899 151.466C386.633 151.41 386.311 151.382 385.933 151.382C384.869 151.382 384.071 151.725 383.539 152.411C383.021 153.083 382.762 153.888 382.762 154.826V161H381.502V153.398C381.502 152.306 381.446 151.333 381.334 150.479H382.552L382.72 152.432C382.986 151.718 383.413 151.172 384.001 150.794C384.603 150.416 385.282 150.227 386.038 150.227ZM397.543 145.544V161H396.262V158.984C395.954 159.684 395.485 160.223 394.855 160.601C394.239 160.965 393.497 161.147 392.629 161.147C391.705 161.147 390.886 160.923 390.172 160.475C389.472 160.013 388.926 159.369 388.534 158.543C388.142 157.703 387.946 156.737 387.946 155.645C387.946 154.553 388.135 153.601 388.513 152.789C388.905 151.963 389.451 151.333 390.151 150.899C390.865 150.451 391.691 150.227 392.629 150.227C393.483 150.227 394.218 150.409 394.834 150.773C395.464 151.137 395.94 151.669 396.262 152.369V145.544H397.543ZM392.797 160.013C393.903 160.013 394.757 159.635 395.359 158.879C395.961 158.123 396.262 157.059 396.262 155.687C396.262 154.315 395.961 153.251 395.359 152.495C394.757 151.725 393.91 151.34 392.818 151.34C391.698 151.34 390.83 151.718 390.214 152.474C389.598 153.23 389.29 154.287 389.29 155.645C389.29 157.017 389.598 158.088 390.214 158.858C390.83 159.628 391.691 160.013 392.797 160.013ZM409.95 150.479V161H408.669V158.984C408.361 159.684 407.892 160.223 407.262 160.601C406.646 160.965 405.904 161.147 405.036 161.147C404.098 161.147 403.272 160.93 402.558 160.496C401.858 160.048 401.312 159.418 400.92 158.606C400.542 157.78 400.353 156.821 400.353 155.729C400.353 154.637 400.549 153.678 400.941 152.852C401.333 152.012 401.879 151.368 402.579 150.92C403.293 150.458 404.112 150.227 405.036 150.227C405.89 150.227 406.625 150.409 407.241 150.773C407.871 151.137 408.347 151.669 408.669 152.369V150.479H409.95ZM405.225 160.013C406.317 160.013 407.164 159.635 407.766 158.879C408.368 158.123 408.669 157.059 408.669 155.687C408.669 154.301 408.368 153.23 407.766 152.474C407.164 151.718 406.31 151.34 405.204 151.34C404.098 151.34 403.237 151.732 402.621 152.516C402.005 153.286 401.697 154.357 401.697 155.729C401.697 157.087 402.005 158.144 402.621 158.9C403.237 159.642 404.105 160.013 405.225 160.013ZM418.346 150.227C419.27 150.227 420.089 150.451 420.803 150.899C421.517 151.347 422.063 151.977 422.441 152.789C422.833 153.601 423.029 154.553 423.029 155.645C423.029 156.737 422.833 157.703 422.441 158.543C422.049 159.369 421.496 160.013 420.782 160.475C420.082 160.923 419.27 161.147 418.346 161.147C417.478 161.147 416.729 160.958 416.099 160.58C415.483 160.202 415.021 159.656 414.713 158.942V161H413.432V145.544H414.692V152.453C415 151.725 415.469 151.172 416.099 150.794C416.729 150.416 417.478 150.227 418.346 150.227ZM418.199 160.013C419.291 160.013 420.145 159.628 420.761 158.858C421.377 158.088 421.685 157.017 421.685 155.645C421.685 154.287 421.377 153.23 420.761 152.474C420.145 151.718 419.284 151.34 418.178 151.34C417.072 151.34 416.218 151.718 415.616 152.474C415.014 153.23 414.713 154.301 414.713 155.687C414.713 157.073 415.014 158.144 415.616 158.9C416.218 159.642 417.079 160.013 418.199 160.013ZM425.84 145.544H427.1V161H425.84V145.544ZM431.29 155.582V155.645C431.29 157.059 431.612 158.144 432.256 158.9C432.914 159.642 433.866 160.013 435.112 160.013C436.372 160.013 437.527 159.579 438.577 158.711L439.081 159.719C438.619 160.153 438.031 160.503 437.317 160.769C436.603 161.021 435.868 161.147 435.112 161.147C433.516 161.147 432.256 160.664 431.332 159.698C430.408 158.732 429.946 157.402 429.946 155.708C429.946 154.63 430.149 153.678 430.555 152.852C430.975 152.012 431.556 151.368 432.298 150.92C433.04 150.458 433.894 150.227 434.86 150.227C436.246 150.227 437.324 150.675 438.094 151.571C438.878 152.467 439.27 153.713 439.27 155.309V155.582H431.29ZM434.86 151.277C433.894 151.277 433.11 151.571 432.508 152.159C431.906 152.733 431.528 153.545 431.374 154.595H438.052C437.968 153.517 437.653 152.698 437.107 152.138C436.561 151.564 435.812 151.277 434.86 151.277ZM7.636 182.227C10.17 182.227 11.437 183.585 11.437 186.301V193H10.156V186.385C10.156 185.335 9.939 184.565 9.505 184.075C9.085 183.585 8.42 183.34 7.51 183.34C6.46 183.34 5.613 183.662 4.969 184.306C4.325 184.95 4.003 185.818 4.003 186.91V193H2.743V177.544H4.003V184.306C4.339 183.62 4.822 183.102 5.452 182.752C6.082 182.402 6.81 182.227 7.636 182.227ZM15.5556 187.582V187.645C15.5556 189.059 15.8776 190.144 16.5216 190.9C17.1796 191.642 18.1316 192.013 19.3776 192.013C20.6376 192.013 21.7926 191.579 22.8426 190.711L23.3466 191.719C22.8846 192.153 22.2966 192.503 21.5826 192.769C20.8686 193.021 20.1336 193.147 19.3776 193.147C17.7816 193.147 16.5216 192.664 15.5976 191.698C14.6736 190.732 14.2116 189.402 14.2116 187.708C14.2116 186.63 14.4146 185.678 14.8206 184.852C15.2406 184.012 15.8216 183.368 16.5636 182.92C17.3056 182.458 18.1596 182.227 19.1256 182.227C20.5116 182.227 21.5896 182.675 22.3596 183.571C23.1436 184.467 23.5356 185.713 23.5356 187.309V187.582H15.5556ZM19.1256 183.277C18.1596 183.277 17.3756 183.571 16.7736 184.159C16.1716 184.733 15.7936 185.545 15.6396 186.595H22.3176C22.2336 185.517 21.9186 184.698 21.3726 184.138C20.8266 183.564 20.0776 183.277 19.1256 183.277ZM35.211 182.479V193H33.93V190.984C33.622 191.684 33.153 192.223 32.523 192.601C31.907 192.965 31.165 193.147 30.297 193.147C29.359 193.147 28.533 192.93 27.819 192.496C27.119 192.048 26.573 191.418 26.181 190.606C25.803 189.78 25.614 188.821 25.614 187.729C25.614 186.637 25.81 185.678 26.202 184.852C26.594 184.012 27.14 183.368 27.84 182.92C28.554 182.458 29.373 182.227 30.297 182.227C31.151 182.227 31.886 182.409 32.502 182.773C33.132 183.137 33.608 183.669 33.93 184.369V182.479H35.211ZM30.486 192.013C31.578 192.013 32.425 191.635 33.027 190.879C33.629 190.123 33.93 189.059 33.93 187.687C33.93 186.301 33.629 185.23 33.027 184.474C32.425 183.718 31.571 183.34 30.465 183.34C29.359 183.34 28.498 183.732 27.882 184.516C27.266 185.286 26.958 186.357 26.958 187.729C26.958 189.087 27.266 190.144 27.882 190.9C28.498 191.642 29.366 192.013 30.486 192.013ZM38.6932 177.544H39.9532V193H38.6932V177.544ZM45.2565 183.508V189.766C45.2565 190.606 45.4175 191.187 45.7395 191.509C46.0615 191.831 46.5375 191.992 47.1675 191.992C47.5595 191.992 47.9375 191.929 48.3015 191.803V192.958C47.8535 193.07 47.3985 193.126 46.9365 193.126C46.0125 193.126 45.2845 192.867 44.7525 192.349C44.2345 191.831 43.9755 191.054 43.9755 190.018V183.508H41.8965V182.479H43.9755V179.686L45.2565 179.203V182.479H48.3645V183.508H45.2565ZM55.4397 182.227C57.9737 182.227 59.2407 183.585 59.2407 186.301V193H57.9597V186.385C57.9597 185.335 57.7427 184.565 57.3087 184.075C56.8887 183.585 56.2237 183.34 55.3137 183.34C54.2637 183.34 53.4167 183.662 52.7727 184.306C52.1287 184.95 51.8067 185.818 51.8067 186.91V193H50.5467V177.544H51.8067V184.306C52.1427 183.62 52.6257 183.102 53.2557 182.752C53.8857 182.402 54.6137 182.227 55.4397 182.227ZM66.9503 193.147C65.9563 193.147 65.0883 192.923 64.3463 192.475C63.6043 192.027 63.0303 191.397 62.6243 190.585C62.2183 189.759 62.0153 188.807 62.0153 187.729C62.0153 186.637 62.2183 185.678 62.6243 184.852C63.0303 184.012 63.6113 183.368 64.3673 182.92C65.1233 182.458 65.9983 182.227 66.9923 182.227C67.7063 182.227 68.3853 182.353 69.0293 182.605C69.6873 182.843 70.2263 183.179 70.6463 183.613L70.1423 184.621C69.5963 184.173 69.0713 183.851 68.5673 183.655C68.0773 183.445 67.5663 183.34 67.0343 183.34C65.9003 183.34 65.0043 183.732 64.3463 184.516C63.6883 185.286 63.3593 186.357 63.3593 187.729C63.3593 189.073 63.6813 190.123 64.3253 190.879C64.9833 191.635 65.8863 192.013 67.0343 192.013C67.5663 192.013 68.0773 191.915 68.5673 191.719C69.0713 191.509 69.5963 191.187 70.1423 190.753L70.6463 191.74C70.1983 192.174 69.6383 192.517 68.9663 192.769C68.3083 193.021 67.6363 193.147 66.9503 193.147ZM81.9073 182.479V193H80.6263V190.984C80.3183 191.684 79.8493 192.223 79.2193 192.601C78.6033 192.965 77.8613 193.147 76.9933 193.147C76.0553 193.147 75.2293 192.93 74.5153 192.496C73.8153 192.048 73.2693 191.418 72.8773 190.606C72.4993 189.78 72.3103 188.821 72.3103 187.729C72.3103 186.637 72.5063 185.678 72.8983 184.852C73.2903 184.012 73.8363 183.368 74.5363 182.92C75.2503 182.458 76.0693 182.227 76.9933 182.227C77.8473 182.227 78.5823 182.409 79.1983 182.773C79.8283 183.137 80.3043 183.669 80.6263 184.369V182.479H81.9073ZM77.1823 192.013C78.2743 192.013 79.1213 191.635 79.7233 190.879C80.3253 190.123 80.6263 189.059 80.6263 187.687C80.6263 186.301 80.3253 185.23 79.7233 184.474C79.1213 183.718 78.2673 183.34 77.1613 183.34C76.0553 183.34 75.1943 183.732 74.5783 184.516C73.9623 185.286 73.6543 186.357 73.6543 187.729C73.6543 189.087 73.9623 190.144 74.5783 190.9C75.1943 191.642 76.0623 192.013 77.1823 192.013ZM89.9255 182.227C90.2755 182.227 90.5835 182.255 90.8495 182.311L90.7865 183.466C90.5205 183.41 90.1985 183.382 89.8205 183.382C88.7565 183.382 87.9585 183.725 87.4265 184.411C86.9085 185.083 86.6495 185.888 86.6495 186.826V193H85.3895V185.398C85.3895 184.306 85.3335 183.333 85.2215 182.479H86.4395L86.6075 184.432C86.8735 183.718 87.3005 183.172 87.8885 182.794C88.4905 182.416 89.1695 182.227 89.9255 182.227ZM93.1777 187.582V187.645C93.1777 189.059 93.4997 190.144 94.1437 190.9C94.8017 191.642 95.7537 192.013 96.9997 192.013C98.2597 192.013 99.4147 191.579 100.465 190.711L100.969 191.719C100.507 192.153 99.9187 192.503 99.2047 192.769C98.4907 193.021 97.7557 193.147 96.9997 193.147C95.4037 193.147 94.1437 192.664 93.2197 191.698C92.2957 190.732 91.8337 189.402 91.8337 187.708C91.8337 186.63 92.0367 185.678 92.4427 184.852C92.8627 184.012 93.4437 183.368 94.1857 182.92C94.9277 182.458 95.7817 182.227 96.7477 182.227C98.1337 182.227 99.2117 182.675 99.9817 183.571C100.766 184.467 101.158 185.713 101.158 187.309V187.582H93.1777ZM96.7477 183.277C95.7817 183.277 94.9977 183.571 94.3957 184.159C93.7937 184.733 93.4157 185.545 93.2617 186.595H99.9397C99.8557 185.517 99.5407 184.698 98.9947 184.138C98.4487 183.564 97.6997 183.277 96.7477 183.277ZM105.399 191.173V192.517C105.399 193.049 105.315 193.539 105.147 193.987C104.979 194.435 104.699 194.855 104.307 195.247L103.635 194.722C104.111 194.19 104.377 193.616 104.433 193H103.614V191.173H105.399ZM122.841 182.479V193H121.56V190.984C121.252 191.684 120.783 192.223 120.153 192.601C119.537 192.965 118.795 193.147 117.927 193.147C116.989 193.147 116.163 192.93 115.449 192.496C114.749 192.048 114.203 191.418 113.811 190.606C113.433 189.78 113.244 188.821 113.244 187.729C113.244 186.637 113.44 185.678 113.832 184.852C114.224 184.012 114.77 183.368 115.47 182.92C116.184 182.458 117.003 182.227 117.927 182.227C118.781 182.227 119.516 182.409 120.132 182.773C120.762 183.137 121.238 183.669 121.56 184.369V182.479H122.841ZM118.116 192.013C119.208 192.013 120.055 191.635 120.657 190.879C121.259 190.123 121.56 189.059 121.56 187.687C121.56 186.301 121.259 185.23 120.657 184.474C120.055 183.718 119.201 183.34 118.095 183.34C116.989 183.34 116.128 183.732 115.512 184.516C114.896 185.286 114.588 186.357 114.588 187.729C114.588 189.087 114.896 190.144 115.512 190.9C116.128 191.642 116.996 192.013 118.116 192.013ZM130.586 193.147C129.592 193.147 128.724 192.923 127.982 192.475C127.24 192.027 126.666 191.397 126.26 190.585C125.854 189.759 125.651 188.807 125.651 187.729C125.651 186.637 125.854 185.678 126.26 184.852C126.666 184.012 127.247 183.368 128.003 182.92C128.759 182.458 129.634 182.227 130.628 182.227C131.342 182.227 132.021 182.353 132.665 182.605C133.323 182.843 133.862 183.179 134.282 183.613L133.778 184.621C133.232 184.173 132.707 183.851 132.203 183.655C131.713 183.445 131.202 183.34 130.67 183.34C129.536 183.34 128.64 183.732 127.982 184.516C127.324 185.286 126.995 186.357 126.995 187.729C126.995 189.073 127.317 190.123 127.961 190.879C128.619 191.635 129.522 192.013 130.67 192.013C131.202 192.013 131.713 191.915 132.203 191.719C132.707 191.509 133.232 191.187 133.778 190.753L134.282 191.74C133.834 192.174 133.274 192.517 132.602 192.769C131.944 193.021 131.272 193.147 130.586 193.147ZM140.881 193.147C139.887 193.147 139.019 192.923 138.277 192.475C137.535 192.027 136.961 191.397 136.555 190.585C136.149 189.759 135.946 188.807 135.946 187.729C135.946 186.637 136.149 185.678 136.555 184.852C136.961 184.012 137.542 183.368 138.298 182.92C139.054 182.458 139.929 182.227 140.923 182.227C141.637 182.227 142.316 182.353 142.96 182.605C143.618 182.843 144.157 183.179 144.577 183.613L144.073 184.621C143.527 184.173 143.002 183.851 142.498 183.655C142.008 183.445 141.497 183.34 140.965 183.34C139.831 183.34 138.935 183.732 138.277 184.516C137.619 185.286 137.29 186.357 137.29 187.729C137.29 189.073 137.612 190.123 138.256 190.879C138.914 191.635 139.817 192.013 140.965 192.013C141.497 192.013 142.008 191.915 142.498 191.719C143.002 191.509 143.527 191.187 144.073 190.753L144.577 191.74C144.129 192.174 143.569 192.517 142.897 192.769C142.239 193.021 141.567 193.147 140.881 193.147ZM147.585 187.582V187.645C147.585 189.059 147.907 190.144 148.551 190.9C149.209 191.642 150.161 192.013 151.407 192.013C152.667 192.013 153.822 191.579 154.872 190.711L155.376 191.719C154.914 192.153 154.326 192.503 153.612 192.769C152.898 193.021 152.163 193.147 151.407 193.147C149.811 193.147 148.551 192.664 147.627 191.698C146.703 190.732 146.241 189.402 146.241 187.708C146.241 186.63 146.444 185.678 146.85 184.852C147.27 184.012 147.851 183.368 148.593 182.92C149.335 182.458 150.189 182.227 151.155 182.227C152.541 182.227 153.619 182.675 154.389 183.571C155.173 184.467 155.565 185.713 155.565 187.309V187.582H147.585ZM151.155 183.277C150.189 183.277 149.405 183.571 148.803 184.159C148.201 184.733 147.823 185.545 147.669 186.595H154.347C154.263 185.517 153.948 184.698 153.402 184.138C152.856 183.564 152.107 183.277 151.155 183.277ZM161.738 193.147C160.03 193.147 158.679 192.678 157.685 191.74L158.147 190.753C158.707 191.215 159.267 191.544 159.827 191.74C160.401 191.936 161.059 192.034 161.801 192.034C162.669 192.034 163.327 191.887 163.775 191.593C164.237 191.285 164.468 190.844 164.468 190.27C164.468 189.794 164.314 189.423 164.006 189.157C163.712 188.877 163.222 188.653 162.536 188.485L160.751 188.086C159.911 187.89 159.246 187.54 158.756 187.036C158.28 186.532 158.042 185.944 158.042 185.272C158.042 184.348 158.392 183.613 159.092 183.067C159.806 182.507 160.751 182.227 161.927 182.227C162.669 182.227 163.355 182.346 163.985 182.584C164.629 182.822 165.161 183.165 165.581 183.613L165.098 184.6C164.132 183.76 163.075 183.34 161.927 183.34C161.115 183.34 160.485 183.501 160.037 183.823C159.589 184.145 159.365 184.593 159.365 185.167C159.365 185.643 159.505 186.028 159.785 186.322C160.079 186.616 160.527 186.833 161.129 186.973L162.935 187.414C164.825 187.834 165.77 188.765 165.77 190.207C165.77 191.089 165.406 191.803 164.678 192.349C163.95 192.881 162.97 193.147 161.738 193.147ZM172.115 193.147C170.407 193.147 169.056 192.678 168.062 191.74L168.524 190.753C169.084 191.215 169.644 191.544 170.204 191.74C170.778 191.936 171.436 192.034 172.178 192.034C173.046 192.034 173.704 191.887 174.152 191.593C174.614 191.285 174.845 190.844 174.845 190.27C174.845 189.794 174.691 189.423 174.383 189.157C174.089 188.877 173.599 188.653 172.913 188.485L171.128 188.086C170.288 187.89 169.623 187.54 169.133 187.036C168.657 186.532 168.419 185.944 168.419 185.272C168.419 184.348 168.769 183.613 169.469 183.067C170.183 182.507 171.128 182.227 172.304 182.227C173.046 182.227 173.732 182.346 174.362 182.584C175.006 182.822 175.538 183.165 175.958 183.613L175.475 184.6C174.509 183.76 173.452 183.34 172.304 183.34C171.492 183.34 170.862 183.501 170.414 183.823C169.966 184.145 169.742 184.593 169.742 185.167C169.742 185.643 169.882 186.028 170.162 186.322C170.456 186.616 170.904 186.833 171.506 186.973L173.312 187.414C175.202 187.834 176.147 188.765 176.147 190.207C176.147 191.089 175.783 191.803 175.055 192.349C174.327 192.881 173.347 193.147 172.115 193.147ZM179.069 182.479H180.329V193H179.069V182.479ZM180.581 178.132V179.77H178.88V178.132H180.581ZM188.761 182.227C189.685 182.227 190.504 182.451 191.218 182.899C191.932 183.347 192.478 183.977 192.856 184.789C193.248 185.601 193.444 186.553 193.444 187.645C193.444 188.737 193.248 189.703 192.856 190.543C192.464 191.369 191.911 192.013 191.197 192.475C190.497 192.923 189.685 193.147 188.761 193.147C187.893 193.147 187.144 192.958 186.514 192.58C185.898 192.202 185.436 191.656 185.128 190.942V193H183.847V177.544H185.107V184.453C185.415 183.725 185.884 183.172 186.514 182.794C187.144 182.416 187.893 182.227 188.761 182.227ZM188.614 192.013C189.706 192.013 190.56 191.628 191.176 190.858C191.792 190.088 192.1 189.017 192.1 187.645C192.1 186.287 191.792 185.23 191.176 184.474C190.56 183.718 189.699 183.34 188.593 183.34C187.487 183.34 186.633 183.718 186.031 184.474C185.429 185.23 185.128 186.301 185.128 187.687C185.128 189.073 185.429 190.144 186.031 190.9C186.633 191.642 187.494 192.013 188.614 192.013ZM196.255 177.544H197.515V193H196.255V177.544ZM201.705 187.582V187.645C201.705 189.059 202.027 190.144 202.671 190.9C203.329 191.642 204.281 192.013 205.527 192.013C206.787 192.013 207.942 191.579 208.992 190.711L209.496 191.719C209.034 192.153 208.446 192.503 207.732 192.769C207.018 193.021 206.283 193.147 205.527 193.147C203.931 193.147 202.671 192.664 201.747 191.698C200.823 190.732 200.361 189.402 200.361 187.708C200.361 186.63 200.564 185.678 200.97 184.852C201.39 184.012 201.971 183.368 202.713 182.92C203.455 182.458 204.309 182.227 205.275 182.227C206.661 182.227 207.739 182.675 208.509 183.571C209.293 184.467 209.685 185.713 209.685 187.309V187.582H201.705ZM205.275 183.277C204.309 183.277 203.525 183.571 202.923 184.159C202.321 184.733 201.943 185.545 201.789 186.595H208.467C208.383 185.517 208.068 184.698 207.522 184.138C206.976 183.564 206.227 183.277 205.275 183.277ZM221.967 193.147C221.001 193.147 220.147 192.923 219.405 192.475C218.677 192.027 218.11 191.39 217.704 190.564C217.312 189.738 217.116 188.779 217.116 187.687C217.116 186.595 217.312 185.636 217.704 184.81C218.11 183.984 218.677 183.347 219.405 182.899C220.147 182.451 221.001 182.227 221.967 182.227C222.919 182.227 223.759 182.451 224.487 182.899C225.215 183.347 225.775 183.984 226.167 184.81C226.573 185.636 226.776 186.595 226.776 187.687C226.776 188.779 226.573 189.738 226.167 190.564C225.775 191.39 225.215 192.027 224.487 192.475C223.759 192.923 222.919 193.147 221.967 193.147ZM221.946 192.013C223.066 192.013 223.927 191.642 224.529 190.9C225.145 190.144 225.453 189.073 225.453 187.687C225.453 186.315 225.145 185.251 224.529 184.495C223.913 183.725 223.059 183.34 221.967 183.34C220.861 183.34 220 183.725 219.384 184.495C218.768 185.251 218.46 186.315 218.46 187.687C218.46 189.087 218.761 190.158 219.363 190.9C219.965 191.642 220.826 192.013 221.946 192.013ZM234.473 182.227C237.007 182.227 238.274 183.585 238.274 186.301V193H236.993V186.385C236.993 185.335 236.776 184.565 236.342 184.075C235.922 183.585 235.257 183.34 234.347 183.34C233.297 183.34 232.45 183.662 231.806 184.306C231.162 184.95 230.84 185.818 230.84 186.91V193H229.58V185.398C229.58 184.306 229.524 183.333 229.412 182.479H230.63L230.798 184.411C231.12 183.697 231.603 183.158 232.247 182.794C232.891 182.416 233.633 182.227 234.473 182.227ZM258.413 182.227C260.737 182.227 261.899 183.585 261.899 186.301V193H260.618V186.385C260.618 185.321 260.429 184.551 260.051 184.075C259.673 183.585 259.071 183.34 258.245 183.34C257.279 183.34 256.516 183.662 255.956 184.306C255.41 184.95 255.137 185.825 255.137 186.931V193H253.856V186.385C253.856 185.321 253.66 184.551 253.268 184.075C252.89 183.585 252.288 183.34 251.462 183.34C250.51 183.34 249.747 183.662 249.173 184.306C248.613 184.95 248.333 185.825 248.333 186.931V193H247.073V185.398C247.073 184.306 247.017 183.333 246.905 182.479H248.123L248.291 184.369C248.585 183.669 249.019 183.137 249.593 182.773C250.181 182.409 250.86 182.227 251.63 182.227C253.324 182.227 254.409 182.913 254.885 184.285C255.179 183.641 255.634 183.137 256.25 182.773C256.88 182.409 257.601 182.227 258.413 182.227ZM269.504 193.147C268.538 193.147 267.684 192.923 266.942 192.475C266.214 192.027 265.647 191.39 265.241 190.564C264.849 189.738 264.653 188.779 264.653 187.687C264.653 186.595 264.849 185.636 265.241 184.81C265.647 183.984 266.214 183.347 266.942 182.899C267.684 182.451 268.538 182.227 269.504 182.227C270.456 182.227 271.296 182.451 272.024 182.899C272.752 183.347 273.312 183.984 273.704 184.81C274.11 185.636 274.313 186.595 274.313 187.687C274.313 188.779 274.11 189.738 273.704 190.564C273.312 191.39 272.752 192.027 272.024 192.475C271.296 192.923 270.456 193.147 269.504 193.147ZM269.483 192.013C270.603 192.013 271.464 191.642 272.066 190.9C272.682 190.144 272.99 189.073 272.99 187.687C272.99 186.315 272.682 185.251 272.066 184.495C271.45 183.725 270.596 183.34 269.504 183.34C268.398 183.34 267.537 183.725 266.921 184.495C266.305 185.251 265.997 186.315 265.997 187.687C265.997 189.087 266.298 190.158 266.9 190.9C267.502 191.642 268.363 192.013 269.483 192.013ZM282.031 182.227C282.955 182.227 283.774 182.451 284.488 182.899C285.202 183.347 285.748 183.977 286.126 184.789C286.518 185.601 286.714 186.553 286.714 187.645C286.714 188.737 286.518 189.703 286.126 190.543C285.734 191.369 285.181 192.013 284.467 192.475C283.767 192.923 282.955 193.147 282.031 193.147C281.163 193.147 280.414 192.958 279.784 192.58C279.168 192.202 278.706 191.656 278.398 190.942V193H277.117V177.544H278.377V184.453C278.685 183.725 279.154 183.172 279.784 182.794C280.414 182.416 281.163 182.227 282.031 182.227ZM281.884 192.013C282.976 192.013 283.83 191.628 284.446 190.858C285.062 190.088 285.37 189.017 285.37 187.645C285.37 186.287 285.062 185.23 284.446 184.474C283.83 183.718 282.969 183.34 281.863 183.34C280.757 183.34 279.903 183.718 279.301 184.474C278.699 185.23 278.398 186.301 278.398 187.687C278.398 189.073 278.699 190.144 279.301 190.9C279.903 191.642 280.764 192.013 281.884 192.013ZM289.524 182.479H290.784V193H289.524V182.479ZM291.036 178.132V179.77H289.335V178.132H291.036ZM294.303 177.544H295.563V193H294.303V177.544ZM299.753 187.582V187.645C299.753 189.059 300.075 190.144 300.719 190.9C301.377 191.642 302.329 192.013 303.575 192.013C304.835 192.013 305.99 191.579 307.04 190.711L307.544 191.719C307.082 192.153 306.494 192.503 305.78 192.769C305.066 193.021 304.331 193.147 303.575 193.147C301.979 193.147 300.719 192.664 299.795 191.698C298.871 190.732 298.409 189.402 298.409 187.708C298.409 186.63 298.612 185.678 299.018 184.852C299.438 184.012 300.019 183.368 300.761 182.92C301.503 182.458 302.357 182.227 303.323 182.227C304.709 182.227 305.787 182.675 306.557 183.571C307.341 184.467 307.733 185.713 307.733 187.309V187.582H299.753ZM303.323 183.277C302.357 183.277 301.573 183.571 300.971 184.159C300.369 184.733 299.991 185.545 299.837 186.595H306.515C306.431 185.517 306.116 184.698 305.57 184.138C305.024 183.564 304.275 183.277 303.323 183.277ZM324.761 182.479V193H323.48V190.984C323.172 191.684 322.703 192.223 322.073 192.601C321.457 192.965 320.715 193.147 319.847 193.147C318.909 193.147 318.083 192.93 317.369 192.496C316.669 192.048 316.123 191.418 315.731 190.606C315.353 189.78 315.164 188.821 315.164 187.729C315.164 186.637 315.36 185.678 315.752 184.852C316.144 184.012 316.69 183.368 317.39 182.92C318.104 182.458 318.923 182.227 319.847 182.227C320.701 182.227 321.436 182.409 322.052 182.773C322.682 183.137 323.158 183.669 323.48 184.369V182.479H324.761ZM320.036 192.013C321.128 192.013 321.975 191.635 322.577 190.879C323.179 190.123 323.48 189.059 323.48 187.687C323.48 186.301 323.179 185.23 322.577 184.474C321.975 183.718 321.121 183.34 320.015 183.34C318.909 183.34 318.048 183.732 317.432 184.516C316.816 185.286 316.508 186.357 316.508 187.729C316.508 189.087 316.816 190.144 317.432 190.9C318.048 191.642 318.916 192.013 320.036 192.013ZM333.136 182.227C335.67 182.227 336.937 183.585 336.937 186.301V193H335.656V186.385C335.656 185.335 335.439 184.565 335.005 184.075C334.585 183.585 333.92 183.34 333.01 183.34C331.96 183.34 331.113 183.662 330.469 184.306C329.825 184.95 329.503 185.818 329.503 186.91V193H328.243V185.398C328.243 184.306 328.187 183.333 328.075 182.479H329.293L329.461 184.411C329.783 183.697 330.266 183.158 330.91 182.794C331.554 182.416 332.296 182.227 333.136 182.227ZM349.309 177.544V193H348.028V190.984C347.72 191.684 347.251 192.223 346.621 192.601C346.005 192.965 345.263 193.147 344.395 193.147C343.471 193.147 342.652 192.923 341.938 192.475C341.238 192.013 340.692 191.369 340.3 190.543C339.908 189.703 339.712 188.737 339.712 187.645C339.712 186.553 339.901 185.601 340.279 184.789C340.671 183.963 341.217 183.333 341.917 182.899C342.631 182.451 343.457 182.227 344.395 182.227C345.249 182.227 345.984 182.409 346.6 182.773C347.23 183.137 347.706 183.669 348.028 184.369V177.544H349.309ZM344.563 192.013C345.669 192.013 346.523 191.635 347.125 190.879C347.727 190.123 348.028 189.059 348.028 187.687C348.028 186.315 347.727 185.251 347.125 184.495C346.523 183.725 345.676 183.34 344.584 183.34C343.464 183.34 342.596 183.718 341.98 184.474C341.364 185.23 341.056 186.287 341.056 187.645C341.056 189.017 341.364 190.088 341.98 190.858C342.596 191.628 343.457 192.013 344.563 192.013ZM362.322 193.147C361.356 193.147 360.502 192.923 359.76 192.475C359.032 192.027 358.465 191.39 358.059 190.564C357.667 189.738 357.471 188.779 357.471 187.687C357.471 186.595 357.667 185.636 358.059 184.81C358.465 183.984 359.032 183.347 359.76 182.899C360.502 182.451 361.356 182.227 362.322 182.227C363.274 182.227 364.114 182.451 364.842 182.899C365.57 183.347 366.13 183.984 366.522 184.81C366.928 185.636 367.131 186.595 367.131 187.687C367.131 188.779 366.928 189.738 366.522 190.564C366.13 191.39 365.57 192.027 364.842 192.475C364.114 192.923 363.274 193.147 362.322 193.147ZM362.301 192.013C363.421 192.013 364.282 191.642 364.884 190.9C365.5 190.144 365.808 189.073 365.808 187.687C365.808 186.315 365.5 185.251 364.884 184.495C364.268 183.725 363.414 183.34 362.322 183.34C361.216 183.34 360.355 183.725 359.739 184.495C359.123 185.251 358.815 186.315 358.815 187.687C358.815 189.087 359.116 190.158 359.718 190.9C360.32 191.642 361.181 192.013 362.301 192.013ZM374.828 182.227C377.362 182.227 378.629 183.585 378.629 186.301V193H377.348V186.385C377.348 185.335 377.131 184.565 376.697 184.075C376.277 183.585 375.612 183.34 374.702 183.34C373.652 183.34 372.805 183.662 372.161 184.306C371.517 184.95 371.195 185.818 371.195 186.91V193H369.935V185.398C369.935 184.306 369.879 183.333 369.767 182.479H370.985L371.153 184.411C371.475 183.697 371.958 183.158 372.602 182.794C373.246 182.416 373.988 182.227 374.828 182.227ZM382.076 177.544H383.336V193H382.076V177.544ZM386.854 182.479H388.114V193H386.854V182.479ZM388.366 178.132V179.77H386.665V178.132H388.366ZM396.526 182.227C399.06 182.227 400.327 183.585 400.327 186.301V193H399.046V186.385C399.046 185.335 398.829 184.565 398.395 184.075C397.975 183.585 397.31 183.34 396.4 183.34C395.35 183.34 394.503 183.662 393.859 184.306C393.215 184.95 392.893 185.818 392.893 186.91V193H391.633V185.398C391.633 184.306 391.577 183.333 391.465 182.479H392.683L392.851 184.411C393.173 183.697 393.656 183.158 394.3 182.794C394.944 182.416 395.686 182.227 396.526 182.227ZM404.445 187.582V187.645C404.445 189.059 404.767 190.144 405.411 190.9C406.069 191.642 407.021 192.013 408.267 192.013C409.527 192.013 410.682 191.579 411.732 190.711L412.236 191.719C411.774 192.153 411.186 192.503 410.472 192.769C409.758 193.021 409.023 193.147 408.267 193.147C406.671 193.147 405.411 192.664 404.487 191.698C403.563 190.732 403.101 189.402 403.101 187.708C403.101 186.63 403.304 185.678 403.71 184.852C404.13 184.012 404.711 183.368 405.453 182.92C406.195 182.458 407.049 182.227 408.015 182.227C409.401 182.227 410.479 182.675 411.249 183.571C412.033 184.467 412.425 185.713 412.425 187.309V187.582H404.445ZM408.015 183.277C407.049 183.277 406.265 183.571 405.663 184.159C405.061 184.733 404.683 185.545 404.529 186.595H411.207C411.123 185.517 410.808 184.698 410.262 184.138C409.716 183.564 408.967 183.277 408.015 183.277ZM6.376 210.615C5.774 210.615 5.312 210.776 4.99 211.098C4.668 211.42 4.507 211.994 4.507 212.82V214.479H7.216V215.508H4.507V225H3.226V215.508H1.168V214.479H3.226V212.589C3.226 211.539 3.485 210.755 4.003 210.237C4.521 209.719 5.235 209.46 6.145 209.46C6.565 209.46 6.999 209.516 7.447 209.628V210.783C7.069 210.671 6.712 210.615 6.376 210.615ZM13.6281 225.147C12.6621 225.147 11.8081 224.923 11.0661 224.475C10.3381 224.027 9.77105 223.39 9.36505 222.564C8.97305 221.738 8.77705 220.779 8.77705 219.687C8.77705 218.595 8.97305 217.636 9.36505 216.81C9.77105 215.984 10.3381 215.347 11.0661 214.899C11.8081 214.451 12.6621 214.227 13.6281 214.227C14.5801 214.227 15.4201 214.451 16.1481 214.899C16.8761 215.347 17.4361 215.984 17.8281 216.81C18.2341 217.636 18.4371 218.595 18.4371 219.687C18.4371 220.779 18.2341 221.738 17.8281 222.564C17.4361 223.39 16.8761 224.027 16.1481 224.475C15.4201 224.923 14.5801 225.147 13.6281 225.147ZM13.6071 224.013C14.7271 224.013 15.5881 223.642 16.1901 222.9C16.8061 222.144 17.1141 221.073 17.1141 219.687C17.1141 218.315 16.8061 217.251 16.1901 216.495C15.5741 215.725 14.7201 215.34 13.6281 215.34C12.5221 215.34 11.6611 215.725 11.0451 216.495C10.4291 217.251 10.1211 218.315 10.1211 219.687C10.1211 221.087 10.4221 222.158 11.0241 222.9C11.6261 223.642 12.4871 224.013 13.6071 224.013ZM25.777 214.227C26.127 214.227 26.435 214.255 26.701 214.311L26.638 215.466C26.372 215.41 26.05 215.382 25.672 215.382C24.608 215.382 23.81 215.725 23.278 216.411C22.76 217.083 22.501 217.888 22.501 218.826V225H21.241V217.398C21.241 216.306 21.185 215.333 21.073 214.479H22.291L22.459 216.432C22.725 215.718 23.152 215.172 23.74 214.794C24.342 214.416 25.021 214.227 25.777 214.227ZM34.5869 219.582V219.645C34.5869 221.059 34.9089 222.144 35.5529 222.9C36.2109 223.642 37.1629 224.013 38.4089 224.013C39.6689 224.013 40.8239 223.579 41.8739 222.711L42.3779 223.719C41.9159 224.153 41.3279 224.503 40.6139 224.769C39.8999 225.021 39.1649 225.147 38.4089 225.147C36.8129 225.147 35.5529 224.664 34.6289 223.698C33.7049 222.732 33.2429 221.402 33.2429 219.708C33.2429 218.63 33.4459 217.678 33.8519 216.852C34.2719 216.012 34.8529 215.368 35.5949 214.92C36.3369 214.458 37.1909 214.227 38.1569 214.227C39.5429 214.227 40.6209 214.675 41.3909 215.571C42.1749 216.467 42.5669 217.713 42.5669 219.309V219.582H34.5869ZM38.1569 215.277C37.1909 215.277 36.4069 215.571 35.8049 216.159C35.2029 216.733 34.8249 217.545 34.6709 218.595H41.3489C41.2649 217.517 40.9499 216.698 40.4039 216.138C39.8579 215.564 39.1089 215.277 38.1569 215.277ZM54.1397 214.479L49.6247 225H48.3017L43.8497 214.479H45.2147L49.0157 223.719L52.8377 214.479H54.1397ZM56.8173 219.582V219.645C56.8173 221.059 57.1393 222.144 57.7833 222.9C58.4413 223.642 59.3933 224.013 60.6393 224.013C61.8993 224.013 63.0543 223.579 64.1043 222.711L64.6083 223.719C64.1463 224.153 63.5583 224.503 62.8443 224.769C62.1303 225.021 61.3953 225.147 60.6393 225.147C59.0433 225.147 57.7833 224.664 56.8593 223.698C55.9353 222.732 55.4733 221.402 55.4733 219.708C55.4733 218.63 55.6763 217.678 56.0823 216.852C56.5023 216.012 57.0833 215.368 57.8253 214.92C58.5673 214.458 59.4213 214.227 60.3873 214.227C61.7733 214.227 62.8513 214.675 63.6213 215.571C64.4053 216.467 64.7973 217.713 64.7973 219.309V219.582H56.8173ZM60.3873 215.277C59.4213 215.277 58.6373 215.571 58.0353 216.159C57.4333 216.733 57.0553 217.545 56.9013 218.595H63.5793C63.4953 217.517 63.1803 216.698 62.6343 216.138C62.0883 215.564 61.3393 215.277 60.3873 215.277ZM72.0837 214.227C72.4337 214.227 72.7417 214.255 73.0077 214.311L72.9447 215.466C72.6787 215.41 72.3567 215.382 71.9787 215.382C70.9147 215.382 70.1167 215.725 69.5847 216.411C69.0667 217.083 68.8077 217.888 68.8077 218.826V225H67.5477V217.398C67.5477 216.306 67.4917 215.333 67.3797 214.479H68.5977L68.7657 216.432C69.0317 215.718 69.4587 215.172 70.0467 214.794C70.6487 214.416 71.3277 214.227 72.0837 214.227ZM84.4297 214.479L79.4737 226.092C78.9837 227.24 78.3677 228.08 77.6257 228.612C76.8977 229.158 75.9807 229.543 74.8747 229.767L74.6227 228.759C75.6307 228.521 76.3867 228.213 76.8907 227.835C77.4087 227.457 77.8427 226.862 78.1927 226.05L78.6337 225.021L74.1397 214.479H75.5047L79.3057 223.719L83.1277 214.479H84.4297ZM90.6144 225.147C89.6484 225.147 88.7944 224.923 88.0524 224.475C87.3244 224.027 86.7574 223.39 86.3514 222.564C85.9594 221.738 85.7634 220.779 85.7634 219.687C85.7634 218.595 85.9594 217.636 86.3514 216.81C86.7574 215.984 87.3244 215.347 88.0524 214.899C88.7944 214.451 89.6484 214.227 90.6144 214.227C91.5664 214.227 92.4064 214.451 93.1344 214.899C93.8624 215.347 94.4224 215.984 94.8144 216.81C95.2204 217.636 95.4234 218.595 95.4234 219.687C95.4234 220.779 95.2204 221.738 94.8144 222.564C94.4224 223.39 93.8624 224.027 93.1344 224.475C92.4064 224.923 91.5664 225.147 90.6144 225.147ZM90.5934 224.013C91.7134 224.013 92.5744 223.642 93.1764 222.9C93.7924 222.144 94.1004 221.073 94.1004 219.687C94.1004 218.315 93.7924 217.251 93.1764 216.495C92.5604 215.725 91.7064 215.34 90.6144 215.34C89.5084 215.34 88.6474 215.725 88.0314 216.495C87.4154 217.251 87.1074 218.315 87.1074 219.687C87.1074 221.087 87.4084 222.158 88.0104 222.9C88.6124 223.642 89.4734 224.013 90.5934 224.013ZM103.12 214.227C105.654 214.227 106.921 215.585 106.921 218.301V225H105.64V218.385C105.64 217.335 105.423 216.565 104.989 216.075C104.569 215.585 103.904 215.34 102.994 215.34C101.944 215.34 101.097 215.662 100.453 216.306C99.8094 216.95 99.4874 217.818 99.4874 218.91V225H98.2274V217.398C98.2274 216.306 98.1714 215.333 98.0594 214.479H99.2774L99.4454 216.411C99.7674 215.697 100.25 215.158 100.894 214.794C101.538 214.416 102.28 214.227 103.12 214.227ZM111.04 219.582V219.645C111.04 221.059 111.362 222.144 112.006 222.9C112.664 223.642 113.616 224.013 114.862 224.013C116.122 224.013 117.277 223.579 118.327 222.711L118.831 223.719C118.369 224.153 117.781 224.503 117.067 224.769C116.353 225.021 115.618 225.147 114.862 225.147C113.266 225.147 112.006 224.664 111.082 223.698C110.158 222.732 109.696 221.402 109.696 219.708C109.696 218.63 109.899 217.678 110.305 216.852C110.725 216.012 111.306 215.368 112.048 214.92C112.79 214.458 113.644 214.227 114.61 214.227C115.996 214.227 117.074 214.675 117.844 215.571C118.628 216.467 119.02 217.713 119.02 219.309V219.582H111.04ZM114.61 215.277C113.644 215.277 112.86 215.571 112.258 216.159C111.656 216.733 111.278 217.545 111.124 218.595H117.802C117.718 217.517 117.403 216.698 116.857 216.138C116.311 215.564 115.562 215.277 114.61 215.277Z" fill="#7D7987"/>
<rect x="1" y="281" width="200" height="56" rx="28" fill="#458FF6"/>
<path d="M48.2 315.162C46.94 315.162 45.836 314.892 44.888 314.352C43.952 313.812 43.232 313.05 42.728 312.066C42.224 311.07 41.972 309.906 41.972 308.574C41.972 307.254 42.224 306.102 42.728 305.118C43.232 304.122 43.952 303.36 44.888 302.832C45.836 302.292 46.94 302.022 48.2 302.022C49.064 302.022 49.874 302.16 50.63 302.436C51.398 302.7 52.034 303.072 52.538 303.552L51.782 305.244C51.206 304.776 50.63 304.44 50.054 304.236C49.49 304.02 48.884 303.912 48.236 303.912C47 303.912 46.04 304.314 45.356 305.118C44.684 305.922 44.348 307.074 44.348 308.574C44.348 310.086 44.684 311.25 45.356 312.066C46.028 312.87 46.988 313.272 48.236 313.272C48.884 313.272 49.49 313.17 50.054 312.966C50.63 312.75 51.206 312.408 51.782 311.94L52.538 313.632C52.034 314.112 51.398 314.49 50.63 314.766C49.874 315.03 49.064 315.162 48.2 315.162ZM58.4925 315.144C57.5685 315.144 56.7525 314.952 56.0445 314.568C55.3485 314.184 54.8085 313.638 54.4245 312.93C54.0525 312.21 53.8665 311.37 53.8665 310.41C53.8665 309.45 54.0525 308.616 54.4245 307.908C54.8085 307.188 55.3485 306.636 56.0445 306.252C56.7525 305.868 57.5685 305.676 58.4925 305.676C59.4045 305.676 60.2085 305.868 60.9045 306.252C61.6005 306.636 62.1345 307.188 62.5065 307.908C62.8905 308.616 63.0825 309.45 63.0825 310.41C63.0825 311.37 62.8905 312.21 62.5065 312.93C62.1345 313.638 61.6005 314.184 60.9045 314.568C60.2085 314.952 59.4045 315.144 58.4925 315.144ZM58.4745 313.38C59.2425 313.38 59.8245 313.134 60.2205 312.642C60.6285 312.138 60.8325 311.394 60.8325 310.41C60.8325 309.438 60.6285 308.7 60.2205 308.196C59.8125 307.68 59.2365 307.422 58.4925 307.422C57.7365 307.422 57.1545 307.68 56.7465 308.196C56.3385 308.7 56.1345 309.438 56.1345 310.41C56.1345 311.394 56.3325 312.138 56.7285 312.642C57.1365 313.134 57.7185 313.38 58.4745 313.38ZM70.2248 305.676C72.3968 305.676 73.4828 306.924 73.4828 309.42V315H71.2328V309.528C71.2328 308.808 71.0948 308.286 70.8188 307.962C70.5428 307.626 70.1168 307.458 69.5408 307.458C68.8568 307.458 68.3048 307.68 67.8848 308.124C67.4648 308.556 67.2548 309.132 67.2548 309.852V315H65.0228V308.484C65.0228 307.524 64.9748 306.666 64.8788 305.91H66.9848L67.1468 307.404C67.4588 306.852 67.8788 306.426 68.4068 306.126C68.9468 305.826 69.5528 305.676 70.2248 305.676ZM79.1985 315.144C77.5545 315.144 76.2465 314.76 75.2745 313.992L75.9045 312.408C76.8765 313.128 77.9865 313.488 79.2345 313.488C79.7745 313.488 80.1885 313.398 80.4765 313.218C80.7765 313.038 80.9265 312.786 80.9265 312.462C80.9265 312.186 80.8245 311.97 80.6205 311.814C80.4165 311.646 80.0685 311.502 79.5765 311.382L78.0645 311.04C76.4085 310.68 75.5805 309.834 75.5805 308.502C75.5805 307.95 75.7365 307.464 76.0485 307.044C76.3605 306.612 76.7985 306.276 77.3625 306.036C77.9265 305.796 78.5805 305.676 79.3245 305.676C79.9725 305.676 80.5965 305.778 81.1965 305.982C81.7965 306.174 82.3245 306.456 82.7805 306.828L82.1145 308.358C81.2025 307.686 80.2665 307.35 79.3065 307.35C78.7905 307.35 78.3885 307.446 78.1005 307.638C77.8125 307.83 77.6685 308.094 77.6685 308.43C77.6685 308.694 77.7525 308.904 77.9205 309.06C78.1005 309.216 78.4005 309.348 78.8205 309.456L80.3685 309.798C81.2685 310.002 81.9225 310.32 82.3305 310.752C82.7505 311.172 82.9605 311.724 82.9605 312.408C82.9605 313.248 82.6245 313.914 81.9525 314.406C81.2805 314.898 80.3625 315.144 79.1985 315.144ZM93.1661 305.91V315H90.9701V313.596C90.6821 314.1 90.2981 314.484 89.8181 314.748C89.3381 315.012 88.7861 315.144 88.1621 315.144C85.9421 315.144 84.8321 313.896 84.8321 311.4V305.91H87.0641V311.418C87.0641 312.078 87.1961 312.564 87.4601 312.876C87.7361 313.188 88.1561 313.344 88.7201 313.344C89.3801 313.344 89.9081 313.128 90.3041 312.696C90.7001 312.264 90.8981 311.688 90.8981 310.968V305.91H93.1661ZM95.6088 301.752H97.8408V315H95.6088V301.752ZM103.164 307.602V311.67C103.164 312.738 103.662 313.272 104.658 313.272C104.934 313.272 105.234 313.224 105.558 313.128V314.91C105.162 315.054 104.682 315.126 104.118 315.126C103.086 315.126 102.294 314.838 101.742 314.262C101.19 313.686 100.914 312.858 100.914 311.778V307.602H99.1681V305.91H100.914V303.696L103.164 302.94V305.91H105.576V307.602H103.164ZM114.924 307.602V311.67C114.924 312.738 115.422 313.272 116.418 313.272C116.694 313.272 116.994 313.224 117.318 313.128V314.91C116.922 315.054 116.442 315.126 115.878 315.126C114.846 315.126 114.054 314.838 113.502 314.262C112.95 313.686 112.674 312.858 112.674 311.778V307.602H110.928V305.91H112.674V303.696L114.924 302.94V305.91H117.336V307.602H114.924ZM123.004 315.144C122.08 315.144 121.264 314.952 120.556 314.568C119.86 314.184 119.32 313.638 118.936 312.93C118.564 312.21 118.378 311.37 118.378 310.41C118.378 309.45 118.564 308.616 118.936 307.908C119.32 307.188 119.86 306.636 120.556 306.252C121.264 305.868 122.08 305.676 123.004 305.676C123.916 305.676 124.72 305.868 125.416 306.252C126.112 306.636 126.646 307.188 127.018 307.908C127.402 308.616 127.594 309.45 127.594 310.41C127.594 311.37 127.402 312.21 127.018 312.93C126.646 313.638 126.112 314.184 125.416 314.568C124.72 314.952 123.916 315.144 123.004 315.144ZM122.986 313.38C123.754 313.38 124.336 313.134 124.732 312.642C125.14 312.138 125.344 311.394 125.344 310.41C125.344 309.438 125.14 308.7 124.732 308.196C124.324 307.68 123.748 307.422 123.004 307.422C122.248 307.422 121.666 307.68 121.258 308.196C120.85 308.7 120.646 309.438 120.646 310.41C120.646 311.394 120.844 312.138 121.24 312.642C121.648 313.134 122.23 313.38 122.986 313.38ZM138.229 301.752V315H136.015V313.542C135.739 314.046 135.343 314.442 134.827 314.73C134.311 315.006 133.723 315.144 133.063 315.144C132.283 315.144 131.587 314.946 130.975 314.55C130.363 314.154 129.883 313.596 129.535 312.876C129.199 312.144 129.031 311.31 129.031 310.374C129.031 309.438 129.199 308.616 129.535 307.908C129.871 307.2 130.345 306.654 130.957 306.27C131.569 305.874 132.271 305.676 133.063 305.676C133.711 305.676 134.287 305.814 134.791 306.09C135.307 306.354 135.703 306.732 135.979 307.224V301.752H138.229ZM133.657 313.38C134.401 313.38 134.977 313.122 135.385 312.606C135.805 312.09 136.015 311.358 136.015 310.41C136.015 309.462 135.811 308.73 135.403 308.214C134.995 307.698 134.419 307.44 133.675 307.44C132.919 307.44 132.331 307.698 131.911 308.214C131.503 308.718 131.299 309.438 131.299 310.374C131.299 311.322 131.503 312.06 131.911 312.588C132.331 313.116 132.913 313.38 133.657 313.38ZM149.373 305.91V315H147.159V313.542C146.883 314.046 146.487 314.442 145.971 314.73C145.455 315.006 144.867 315.144 144.207 315.144C143.415 315.144 142.713 314.952 142.101 314.568C141.489 314.184 141.015 313.638 140.679 312.93C140.343 312.222 140.175 311.4 140.175 310.464C140.175 309.528 140.343 308.7 140.679 307.98C141.027 307.248 141.507 306.684 142.119 306.288C142.731 305.88 143.427 305.676 144.207 305.676C144.867 305.676 145.455 305.82 145.971 306.108C146.487 306.384 146.883 306.774 147.159 307.278V305.91H149.373ZM144.819 313.38C145.563 313.38 146.139 313.122 146.547 312.606C146.955 312.09 147.159 311.364 147.159 310.428C147.159 309.468 146.955 308.73 146.547 308.214C146.139 307.698 145.557 307.44 144.801 307.44C144.057 307.44 143.475 307.71 143.055 308.25C142.647 308.778 142.443 309.516 142.443 310.464C142.443 311.4 142.647 312.12 143.055 312.624C143.475 313.128 144.063 313.38 144.819 313.38ZM160.428 305.91L156.198 315.612C155.718 316.74 155.106 317.562 154.362 318.078C153.618 318.594 152.7 318.936 151.608 319.104L151.104 317.376C151.956 317.184 152.592 316.938 153.012 316.638C153.444 316.35 153.792 315.918 154.056 315.342L154.344 314.676L150.564 305.91H152.922L155.532 312.444L158.196 305.91H160.428Z" fill="white"/>
</svg>
