<svg width="545" height="23" viewBox="0 0 545 23" fill="none" xmlns="http://www.w3.org/2000/svg">
<path d="M12.546 5.184V18H10.242V12.438H3.672V18H1.386V5.184H3.672V10.548H10.242V5.184H12.546ZM19.2855 18.144C18.3615 18.144 17.5455 17.952 16.8375 17.568C16.1415 17.184 15.6015 16.638 15.2175 15.93C14.8455 15.21 14.6595 14.37 14.6595 13.41C14.6595 12.45 14.8455 11.616 15.2175 10.908C15.6015 10.188 16.1415 9.636 16.8375 9.252C17.5455 8.868 18.3615 8.676 19.2855 8.676C20.1975 8.676 21.0015 8.868 21.6975 9.252C22.3935 9.636 22.9275 10.188 23.2995 10.908C23.6835 11.616 23.8755 12.45 23.8755 13.41C23.8755 14.37 23.6835 15.21 23.2995 15.93C22.9275 16.638 22.3935 17.184 21.6975 17.568C21.0015 17.952 20.1975 18.144 19.2855 18.144ZM19.2675 16.38C20.0355 16.38 20.6175 16.134 21.0135 15.642C21.4215 15.138 21.6255 14.394 21.6255 13.41C21.6255 12.438 21.4215 11.7 21.0135 11.196C20.6055 10.68 20.0295 10.422 19.2855 10.422C18.5295 10.422 17.9475 10.68 17.5395 11.196C17.1315 11.7 16.9275 12.438 16.9275 13.41C16.9275 14.394 17.1255 15.138 17.5215 15.642C17.9295 16.134 18.5115 16.38 19.2675 16.38ZM36.5438 8.676C37.5758 8.676 38.3438 8.988 38.8478 9.612C39.3518 10.224 39.6038 11.16 39.6038 12.42V18H37.3538V12.492C37.3538 11.772 37.2338 11.256 36.9938 10.944C36.7658 10.62 36.3818 10.458 35.8418 10.458C35.2178 10.458 34.7258 10.68 34.3658 11.124C34.0178 11.556 33.8438 12.156 33.8438 12.924V18H31.5938V12.492C31.5938 11.784 31.4678 11.268 31.2158 10.944C30.9758 10.62 30.5918 10.458 30.0638 10.458C29.4398 10.458 28.9478 10.68 28.5878 11.124C28.2278 11.556 28.0478 12.156 28.0478 12.924V18H25.8158V11.484C25.8158 10.524 25.7678 9.666 25.6718 8.91H27.7778L27.9398 10.35C28.2038 9.81 28.5818 9.396 29.0738 9.108C29.5778 8.82 30.1538 8.676 30.8018 8.676C32.1938 8.676 33.0998 9.252 33.5198 10.404C33.8078 9.864 34.2158 9.444 34.7438 9.144C35.2838 8.832 35.8838 8.676 36.5438 8.676ZM49.9613 13.572H43.6973C43.7453 14.544 43.9853 15.264 44.4173 15.732C44.8613 16.188 45.5153 16.416 46.3793 16.416C47.3753 16.416 48.2993 16.092 49.1513 15.444L49.7993 16.992C49.3673 17.34 48.8333 17.622 48.1973 17.838C47.5733 18.042 46.9373 18.144 46.2893 18.144C44.8013 18.144 43.6313 17.724 42.7793 16.884C41.9273 16.044 41.5013 14.892 41.5013 13.428C41.5013 12.504 41.6873 11.682 42.0593 10.962C42.4313 10.242 42.9533 9.684 43.6253 9.288C44.2973 8.88 45.0593 8.676 45.9113 8.676C47.1593 8.676 48.1433 9.084 48.8633 9.9C49.5953 10.704 49.9613 11.814 49.9613 13.23V13.572ZM45.9653 10.296C45.3653 10.296 44.8733 10.476 44.4893 10.836C44.1173 11.184 43.8773 11.694 43.7693 12.366H47.9993C47.9273 11.682 47.7173 11.166 47.3693 10.818C47.0333 10.47 46.5653 10.296 45.9653 10.296Z" fill="#1F1534"/>
<path opacity="0.5" d="M92.584 18V5.184H100.504V6.426H94.042V10.872H100.144V12.114H94.042V18H92.584ZM102.547 18V8.946H104.005V18H102.547ZM102.403 5.112H104.185V6.768H102.403V5.112ZM106.836 18V11.484C106.836 11.064 106.824 10.644 106.8 10.224C106.788 9.792 106.752 9.366 106.692 8.946H108.078L108.24 10.818L108.06 10.962C108.312 10.23 108.732 9.678 109.32 9.306C109.908 8.922 110.586 8.73 111.354 8.73C113.526 8.73 114.612 9.924 114.612 12.312V18H113.154V12.384C113.154 11.544 112.986 10.932 112.65 10.548C112.314 10.152 111.786 9.954 111.066 9.954C110.226 9.954 109.554 10.212 109.05 10.728C108.546 11.244 108.294 11.94 108.294 12.816V18H106.836ZM125.339 18H123.899V15.57L124.115 15.768C123.911 16.524 123.521 17.106 122.945 17.514C122.369 17.922 121.667 18.126 120.839 18.126C120.047 18.126 119.345 17.934 118.733 17.55C118.133 17.154 117.665 16.602 117.329 15.894C116.993 15.174 116.825 14.34 116.825 13.392C116.825 12.444 116.987 11.622 117.311 10.926C117.647 10.23 118.115 9.69 118.715 9.306C119.327 8.922 120.035 8.73 120.839 8.73C121.667 8.73 122.369 8.94 122.945 9.36C123.521 9.768 123.911 10.344 124.115 11.088L123.881 11.268V4.752H125.339V18ZM121.127 16.92C122.003 16.92 122.681 16.62 123.161 16.02C123.653 15.408 123.899 14.544 123.899 13.428C123.899 12.324 123.659 11.472 123.179 10.872C122.699 10.26 122.015 9.954 121.127 9.954C120.239 9.954 119.543 10.254 119.039 10.854C118.547 11.454 118.301 12.3 118.301 13.392C118.301 14.508 118.547 15.378 119.039 16.002C119.543 16.614 120.239 16.92 121.127 16.92ZM136.325 18.126C135.521 18.126 134.813 17.94 134.201 17.568C133.601 17.184 133.133 16.644 132.797 15.948C132.473 15.24 132.311 14.412 132.311 13.464C132.311 12.516 132.479 11.688 132.815 10.98C133.151 10.272 133.619 9.72 134.219 9.324C134.831 8.928 135.533 8.73 136.325 8.73C137.153 8.73 137.855 8.934 138.431 9.342C139.007 9.75 139.397 10.332 139.601 11.088L139.385 11.232V8.946H140.825V18H139.385V15.66L139.601 15.768C139.397 16.524 139.007 17.106 138.431 17.514C137.855 17.922 137.153 18.126 136.325 18.126ZM136.613 16.92C137.501 16.92 138.185 16.62 138.665 16.02C139.145 15.408 139.385 14.544 139.385 13.428C139.385 12.312 139.139 11.454 138.647 10.854C138.167 10.254 137.489 9.954 136.613 9.954C135.725 9.954 135.029 10.266 134.525 10.89C134.033 11.502 133.787 12.36 133.787 13.464C133.787 14.568 134.033 15.42 134.525 16.02C135.029 16.62 135.725 16.92 136.613 16.92ZM156.312 18H154.872V15.57L155.088 15.768C154.884 16.524 154.494 17.106 153.918 17.514C153.342 17.922 152.64 18.126 151.812 18.126C151.02 18.126 150.318 17.934 149.706 17.55C149.106 17.154 148.638 16.602 148.302 15.894C147.966 15.174 147.798 14.34 147.798 13.392C147.798 12.444 147.96 11.622 148.284 10.926C148.62 10.23 149.088 9.69 149.688 9.306C150.3 8.922 151.008 8.73 151.812 8.73C152.64 8.73 153.342 8.94 153.918 9.36C154.494 9.768 154.884 10.344 155.088 11.088L154.854 11.268V4.752H156.312V18ZM152.1 16.92C152.976 16.92 153.654 16.62 154.134 16.02C154.626 15.408 154.872 14.544 154.872 13.428C154.872 12.324 154.632 11.472 154.152 10.872C153.672 10.26 152.988 9.954 152.1 9.954C151.212 9.954 150.516 10.254 150.012 10.854C149.52 11.454 149.274 12.3 149.274 13.392C149.274 14.508 149.52 15.378 150.012 16.002C150.516 16.614 151.212 16.92 152.1 16.92ZM162.875 18.126C162.011 18.126 161.255 17.934 160.607 17.55C159.971 17.166 159.473 16.626 159.113 15.93C158.765 15.222 158.591 14.388 158.591 13.428C158.591 12.48 158.765 11.652 159.113 10.944C159.473 10.236 159.971 9.69 160.607 9.306C161.255 8.922 162.011 8.73 162.875 8.73C163.739 8.73 164.489 8.922 165.125 9.306C165.773 9.69 166.271 10.236 166.619 10.944C166.979 11.652 167.159 12.48 167.159 13.428C167.159 14.388 166.979 15.222 166.619 15.93C166.271 16.626 165.773 17.166 165.125 17.55C164.489 17.934 163.739 18.126 162.875 18.126ZM162.875 16.92C163.763 16.92 164.447 16.626 164.927 16.038C165.419 15.438 165.665 14.568 165.665 13.428C165.665 12.312 165.419 11.454 164.927 10.854C164.435 10.254 163.751 9.954 162.875 9.954C161.999 9.954 161.309 10.254 160.805 10.854C160.313 11.454 160.067 12.312 160.067 13.428C160.067 14.568 160.307 15.438 160.787 16.038C161.279 16.626 161.975 16.92 162.875 16.92ZM173.229 18.126C172.341 18.126 171.573 17.934 170.925 17.55C170.277 17.166 169.773 16.626 169.413 15.93C169.065 15.234 168.891 14.412 168.891 13.464C168.891 12.528 169.071 11.706 169.431 10.998C169.791 10.278 170.301 9.72 170.961 9.324C171.621 8.928 172.401 8.73 173.301 8.73C173.913 8.73 174.501 8.838 175.065 9.054C175.641 9.258 176.115 9.546 176.487 9.918L176.001 10.998C175.557 10.65 175.119 10.392 174.687 10.224C174.267 10.044 173.829 9.954 173.373 9.954C172.461 9.954 171.735 10.26 171.195 10.872C170.667 11.484 170.403 12.348 170.403 13.464C170.403 14.568 170.667 15.42 171.195 16.02C171.723 16.62 172.449 16.92 173.373 16.92C173.817 16.92 174.255 16.836 174.687 16.668C175.119 16.488 175.557 16.224 176.001 15.876L176.487 16.956C176.103 17.316 175.617 17.604 175.029 17.82C174.453 18.024 173.853 18.126 173.229 18.126ZM177.083 10.098V8.946H182.897V10.098H177.083ZM182.861 16.704V17.946C182.657 18.006 182.453 18.048 182.249 18.072C182.057 18.108 181.841 18.126 181.601 18.126C180.761 18.126 180.089 17.886 179.585 17.406C179.093 16.926 178.847 16.206 178.847 15.246V6.624L180.305 6.102V15.048C180.305 15.528 180.371 15.9 180.503 16.164C180.647 16.428 180.839 16.614 181.079 16.722C181.319 16.818 181.589 16.866 181.889 16.866C182.069 16.866 182.231 16.854 182.375 16.83C182.519 16.806 182.681 16.764 182.861 16.704ZM188.398 18.126C187.534 18.126 186.778 17.934 186.13 17.55C185.494 17.166 184.996 16.626 184.636 15.93C184.288 15.222 184.114 14.388 184.114 13.428C184.114 12.48 184.288 11.652 184.636 10.944C184.996 10.236 185.494 9.69 186.13 9.306C186.778 8.922 187.534 8.73 188.398 8.73C189.262 8.73 190.012 8.922 190.648 9.306C191.296 9.69 191.794 10.236 192.142 10.944C192.502 11.652 192.682 12.48 192.682 13.428C192.682 14.388 192.502 15.222 192.142 15.93C191.794 16.626 191.296 17.166 190.648 17.55C190.012 17.934 189.262 18.126 188.398 18.126ZM188.398 16.92C189.286 16.92 189.97 16.626 190.45 16.038C190.942 15.438 191.188 14.568 191.188 13.428C191.188 12.312 190.942 11.454 190.45 10.854C189.958 10.254 189.274 9.954 188.398 9.954C187.522 9.954 186.832 10.254 186.328 10.854C185.836 11.454 185.59 12.312 185.59 13.428C185.59 14.568 185.83 15.438 186.31 16.038C186.802 16.626 187.498 16.92 188.398 16.92ZM194.955 18V11.484C194.955 11.064 194.943 10.644 194.919 10.224C194.907 9.792 194.871 9.366 194.811 8.946H196.197L196.395 11.178L196.197 11.124C196.365 10.332 196.725 9.738 197.277 9.342C197.841 8.934 198.471 8.73 199.167 8.73C199.323 8.73 199.467 8.742 199.599 8.766C199.743 8.778 199.875 8.802 199.995 8.838L199.959 10.17C199.683 10.074 199.365 10.026 199.005 10.026C198.381 10.026 197.877 10.164 197.493 10.44C197.121 10.716 196.845 11.07 196.665 11.502C196.497 11.922 196.413 12.366 196.413 12.834V18H194.955Z" fill="#1F1534"/>
<path opacity="0.5" d="M242.854 18H241.324L246.958 5.184H248.254L253.888 18H252.376L247.354 6.264H247.894L242.854 18ZM243.718 14.706L244.24 13.482H250.972L251.494 14.706H243.718ZM255.623 21.888V11.484C255.623 11.064 255.611 10.644 255.587 10.224C255.575 9.792 255.539 9.366 255.479 8.946H256.865L257.027 10.818L256.883 11.088C257.087 10.332 257.477 9.75 258.053 9.342C258.629 8.934 259.325 8.73 260.141 8.73C260.933 8.73 261.629 8.928 262.229 9.324C262.841 9.72 263.315 10.272 263.651 10.98C263.999 11.688 264.173 12.516 264.173 13.464C264.173 14.412 263.999 15.24 263.651 15.948C263.315 16.644 262.847 17.184 262.247 17.568C261.647 17.94 260.945 18.126 260.141 18.126C259.325 18.126 258.629 17.922 258.053 17.514C257.477 17.106 257.087 16.524 256.883 15.768L257.081 15.588V21.888H255.623ZM259.871 16.92C260.747 16.92 261.431 16.62 261.923 16.02C262.415 15.42 262.661 14.568 262.661 13.464C262.661 12.36 262.415 11.502 261.923 10.89C261.431 10.266 260.747 9.954 259.871 9.954C258.971 9.954 258.281 10.254 257.801 10.854C257.321 11.454 257.081 12.312 257.081 13.428C257.081 14.544 257.321 15.408 257.801 16.02C258.281 16.62 258.971 16.92 259.871 16.92ZM266.416 21.888V11.484C266.416 11.064 266.404 10.644 266.38 10.224C266.368 9.792 266.332 9.366 266.272 8.946H267.658L267.82 10.818L267.676 11.088C267.88 10.332 268.27 9.75 268.846 9.342C269.422 8.934 270.118 8.73 270.934 8.73C271.726 8.73 272.422 8.928 273.022 9.324C273.634 9.72 274.108 10.272 274.444 10.98C274.792 11.688 274.966 12.516 274.966 13.464C274.966 14.412 274.792 15.24 274.444 15.948C274.108 16.644 273.64 17.184 273.04 17.568C272.44 17.94 271.738 18.126 270.934 18.126C270.118 18.126 269.422 17.922 268.846 17.514C268.27 17.106 267.88 16.524 267.676 15.768L267.874 15.588V21.888H266.416ZM270.664 16.92C271.54 16.92 272.224 16.62 272.716 16.02C273.208 15.42 273.454 14.568 273.454 13.464C273.454 12.36 273.208 11.502 272.716 10.89C272.224 10.266 271.54 9.954 270.664 9.954C269.764 9.954 269.074 10.254 268.594 10.854C268.114 11.454 267.874 12.312 267.874 13.428C267.874 14.544 268.114 15.408 268.594 16.02C269.074 16.62 269.764 16.92 270.664 16.92ZM280.269 18.126C278.745 18.126 277.539 17.736 276.651 16.956L277.137 15.876C277.617 16.248 278.109 16.524 278.613 16.704C279.129 16.872 279.699 16.956 280.323 16.956C281.007 16.956 281.523 16.842 281.871 16.614C282.231 16.374 282.411 16.032 282.411 15.588C282.411 15.228 282.291 14.946 282.051 14.742C281.811 14.526 281.415 14.352 280.863 14.22L279.333 13.86C278.577 13.692 277.989 13.392 277.569 12.96C277.161 12.528 276.957 12.012 276.957 11.412C276.957 10.884 277.101 10.422 277.389 10.026C277.677 9.618 278.079 9.3 278.595 9.072C279.111 8.844 279.723 8.73 280.431 8.73C281.067 8.73 281.667 8.832 282.231 9.036C282.795 9.24 283.269 9.534 283.653 9.918L283.167 10.98C282.735 10.62 282.291 10.356 281.835 10.188C281.391 10.008 280.923 9.918 280.431 9.918C279.783 9.918 279.279 10.044 278.919 10.296C278.571 10.548 278.397 10.89 278.397 11.322C278.397 11.694 278.505 11.988 278.721 12.204C278.949 12.42 279.309 12.588 279.801 12.708L281.331 13.086C282.183 13.266 282.807 13.566 283.203 13.986C283.611 14.394 283.815 14.916 283.815 15.552C283.815 16.332 283.497 16.956 282.861 17.424C282.225 17.892 281.361 18.126 280.269 18.126Z" fill="#1F1534"/>
<path opacity="0.5" d="M329.68 18V6.444H325.216V5.184H335.638V6.444H331.174V18H329.68ZM343.277 16.92C342.881 17.292 342.371 17.586 341.747 17.802C341.135 18.018 340.505 18.126 339.857 18.126C338.921 18.126 338.111 17.94 337.427 17.568C336.755 17.196 336.233 16.662 335.861 15.966C335.501 15.258 335.321 14.418 335.321 13.446C335.321 12.51 335.501 11.688 335.861 10.98C336.221 10.272 336.719 9.72 337.355 9.324C338.003 8.928 338.747 8.73 339.587 8.73C340.391 8.73 341.081 8.91 341.657 9.27C342.233 9.618 342.671 10.122 342.971 10.782C343.283 11.442 343.439 12.234 343.439 13.158V13.428H336.599V12.474H342.611L342.143 13.14C342.167 12.084 341.957 11.274 341.513 10.71C341.081 10.146 340.445 9.864 339.605 9.864C338.729 9.864 338.039 10.176 337.535 10.8C337.043 11.412 336.797 12.264 336.797 13.356C336.797 14.532 337.055 15.42 337.571 16.02C338.099 16.62 338.867 16.92 339.875 16.92C340.403 16.92 340.907 16.836 341.387 16.668C341.879 16.488 342.347 16.218 342.791 15.858L343.277 16.92ZM348.712 18.126C347.188 18.126 345.982 17.736 345.094 16.956L345.58 15.876C346.06 16.248 346.552 16.524 347.056 16.704C347.572 16.872 348.142 16.956 348.766 16.956C349.45 16.956 349.966 16.842 350.314 16.614C350.674 16.374 350.854 16.032 350.854 15.588C350.854 15.228 350.734 14.946 350.494 14.742C350.254 14.526 349.858 14.352 349.306 14.22L347.776 13.86C347.02 13.692 346.432 13.392 346.012 12.96C345.604 12.528 345.4 12.012 345.4 11.412C345.4 10.884 345.544 10.422 345.832 10.026C346.12 9.618 346.522 9.3 347.038 9.072C347.554 8.844 348.166 8.73 348.874 8.73C349.51 8.73 350.11 8.832 350.674 9.036C351.238 9.24 351.712 9.534 352.096 9.918L351.61 10.98C351.178 10.62 350.734 10.356 350.278 10.188C349.834 10.008 349.366 9.918 348.874 9.918C348.226 9.918 347.722 10.044 347.362 10.296C347.014 10.548 346.84 10.89 346.84 11.322C346.84 11.694 346.948 11.988 347.164 12.204C347.392 12.42 347.752 12.588 348.244 12.708L349.774 13.086C350.626 13.266 351.25 13.566 351.646 13.986C352.054 14.394 352.258 14.916 352.258 15.552C352.258 16.332 351.94 16.956 351.304 17.424C350.668 17.892 349.804 18.126 348.712 18.126ZM353.216 10.098V8.946H359.03V10.098H353.216ZM358.994 16.704V17.946C358.79 18.006 358.586 18.048 358.382 18.072C358.19 18.108 357.974 18.126 357.734 18.126C356.894 18.126 356.222 17.886 355.718 17.406C355.226 16.926 354.98 16.206 354.98 15.246V6.624L356.438 6.102V15.048C356.438 15.528 356.504 15.9 356.636 16.164C356.78 16.428 356.972 16.614 357.212 16.722C357.452 16.818 357.722 16.866 358.022 16.866C358.202 16.866 358.364 16.854 358.508 16.83C358.652 16.806 358.814 16.764 358.994 16.704ZM360.787 18V8.946H362.245V18H360.787ZM360.643 5.112H362.425V6.768H360.643V5.112ZM365.076 18V11.484C365.076 11.064 365.064 10.644 365.04 10.224C365.028 9.792 364.992 9.366 364.932 8.946H366.318L366.48 10.818L366.3 10.944C366.516 10.236 366.888 9.69 367.416 9.306C367.956 8.922 368.592 8.73 369.324 8.73C370.2 8.73 370.878 8.946 371.358 9.378C371.85 9.81 372.162 10.47 372.294 11.358L371.862 11.124C372.054 10.392 372.438 9.81 373.014 9.378C373.602 8.946 374.304 8.73 375.12 8.73C376.116 8.73 376.866 9.03 377.37 9.63C377.874 10.218 378.126 11.112 378.126 12.312V18H376.668V12.384C376.668 11.544 376.518 10.932 376.218 10.548C375.918 10.152 375.444 9.954 374.796 9.954C374.04 9.954 373.44 10.212 372.996 10.728C372.564 11.244 372.348 11.946 372.348 12.834V18H370.89V12.384C370.89 11.544 370.734 10.932 370.422 10.548C370.122 10.152 369.648 9.954 369 9.954C368.232 9.954 367.626 10.212 367.182 10.728C366.75 11.244 366.534 11.946 366.534 12.834V18H365.076ZM384.64 18.126C383.776 18.126 383.02 17.934 382.372 17.55C381.736 17.166 381.238 16.626 380.878 15.93C380.53 15.222 380.356 14.388 380.356 13.428C380.356 12.48 380.53 11.652 380.878 10.944C381.238 10.236 381.736 9.69 382.372 9.306C383.02 8.922 383.776 8.73 384.64 8.73C385.504 8.73 386.254 8.922 386.89 9.306C387.538 9.69 388.036 10.236 388.384 10.944C388.744 11.652 388.924 12.48 388.924 13.428C388.924 14.388 388.744 15.222 388.384 15.93C388.036 16.626 387.538 17.166 386.89 17.55C386.254 17.934 385.504 18.126 384.64 18.126ZM384.64 16.92C385.528 16.92 386.212 16.626 386.692 16.038C387.184 15.438 387.43 14.568 387.43 13.428C387.43 12.312 387.184 11.454 386.692 10.854C386.2 10.254 385.516 9.954 384.64 9.954C383.764 9.954 383.074 10.254 382.57 10.854C382.078 11.454 381.832 12.312 381.832 13.428C381.832 14.568 382.072 15.438 382.552 16.038C383.044 16.626 383.74 16.92 384.64 16.92ZM391.197 18V11.484C391.197 11.064 391.185 10.644 391.161 10.224C391.149 9.792 391.113 9.366 391.053 8.946H392.439L392.601 10.818L392.421 10.962C392.673 10.23 393.093 9.678 393.681 9.306C394.269 8.922 394.947 8.73 395.715 8.73C397.887 8.73 398.973 9.924 398.973 12.312V18H397.515V12.384C397.515 11.544 397.347 10.932 397.011 10.548C396.675 10.152 396.147 9.954 395.427 9.954C394.587 9.954 393.915 10.212 393.411 10.728C392.907 11.244 392.655 11.94 392.655 12.816V18H391.197ZM401.726 18V8.946H403.184V18H401.726ZM401.582 5.112H403.364V6.768H401.582V5.112ZM409.489 18.126C408.685 18.126 407.977 17.94 407.365 17.568C406.765 17.184 406.297 16.644 405.961 15.948C405.637 15.24 405.475 14.412 405.475 13.464C405.475 12.516 405.643 11.688 405.979 10.98C406.315 10.272 406.783 9.72 407.383 9.324C407.995 8.928 408.697 8.73 409.489 8.73C410.317 8.73 411.019 8.934 411.595 9.342C412.171 9.75 412.561 10.332 412.765 11.088L412.549 11.232V8.946H413.989V18H412.549V15.66L412.765 15.768C412.561 16.524 412.171 17.106 411.595 17.514C411.019 17.922 410.317 18.126 409.489 18.126ZM409.777 16.92C410.665 16.92 411.349 16.62 411.829 16.02C412.309 15.408 412.549 14.544 412.549 13.428C412.549 12.312 412.303 11.454 411.811 10.854C411.331 10.254 410.653 9.954 409.777 9.954C408.889 9.954 408.193 10.266 407.689 10.89C407.197 11.502 406.951 12.36 406.951 13.464C406.951 14.568 407.197 15.42 407.689 16.02C408.193 16.62 408.889 16.92 409.777 16.92ZM416.808 18V4.752H418.266V18H416.808ZM424.157 18.126C422.633 18.126 421.427 17.736 420.539 16.956L421.025 15.876C421.505 16.248 421.997 16.524 422.501 16.704C423.017 16.872 423.587 16.956 424.211 16.956C424.895 16.956 425.411 16.842 425.759 16.614C426.119 16.374 426.299 16.032 426.299 15.588C426.299 15.228 426.179 14.946 425.939 14.742C425.699 14.526 425.303 14.352 424.751 14.22L423.221 13.86C422.465 13.692 421.877 13.392 421.457 12.96C421.049 12.528 420.845 12.012 420.845 11.412C420.845 10.884 420.989 10.422 421.277 10.026C421.565 9.618 421.967 9.3 422.483 9.072C422.999 8.844 423.611 8.73 424.319 8.73C424.955 8.73 425.555 8.832 426.119 9.036C426.683 9.24 427.157 9.534 427.541 9.918L427.055 10.98C426.623 10.62 426.179 10.356 425.723 10.188C425.279 10.008 424.811 9.918 424.319 9.918C423.671 9.918 423.167 10.044 422.807 10.296C422.459 10.548 422.285 10.89 422.285 11.322C422.285 11.694 422.393 11.988 422.609 12.204C422.837 12.42 423.197 12.588 423.689 12.708L425.219 13.086C426.071 13.266 426.695 13.566 427.091 13.986C427.499 14.394 427.703 14.916 427.703 15.552C427.703 16.332 427.385 16.956 426.749 17.424C426.113 17.892 425.249 18.126 424.157 18.126Z" fill="#1F1534"/>
<path opacity="0.5" d="M470.854 18H469.324L474.958 5.184H476.254L481.888 18H480.376L475.354 6.264H475.894L470.854 18ZM471.718 14.706L472.24 13.482H478.972L479.494 14.706H471.718ZM483.623 18V4.752H485.081V11.268L484.883 11.088C485.087 10.344 485.477 9.768 486.053 9.36C486.629 8.94 487.325 8.73 488.141 8.73C488.945 8.73 489.647 8.922 490.247 9.306C490.847 9.69 491.315 10.23 491.651 10.926C491.999 11.622 492.173 12.444 492.173 13.392C492.173 14.34 491.999 15.174 491.651 15.894C491.315 16.602 490.841 17.154 490.229 17.55C489.629 17.934 488.933 18.126 488.141 18.126C487.325 18.126 486.629 17.922 486.053 17.514C485.477 17.106 485.087 16.524 484.883 15.768L485.081 15.57V18H483.623ZM487.871 16.92C488.747 16.92 489.431 16.614 489.923 16.002C490.415 15.378 490.661 14.508 490.661 13.392C490.661 12.3 490.415 11.454 489.923 10.854C489.431 10.254 488.747 9.954 487.871 9.954C486.971 9.954 486.281 10.26 485.801 10.872C485.321 11.472 485.081 12.324 485.081 13.428C485.081 14.544 485.321 15.408 485.801 16.02C486.281 16.62 486.971 16.92 487.871 16.92ZM498.16 18.126C497.296 18.126 496.54 17.934 495.892 17.55C495.256 17.166 494.758 16.626 494.398 15.93C494.05 15.222 493.876 14.388 493.876 13.428C493.876 12.48 494.05 11.652 494.398 10.944C494.758 10.236 495.256 9.69 495.892 9.306C496.54 8.922 497.296 8.73 498.16 8.73C499.024 8.73 499.774 8.922 500.41 9.306C501.058 9.69 501.556 10.236 501.904 10.944C502.264 11.652 502.444 12.48 502.444 13.428C502.444 14.388 502.264 15.222 501.904 15.93C501.556 16.626 501.058 17.166 500.41 17.55C499.774 17.934 499.024 18.126 498.16 18.126ZM498.16 16.92C499.048 16.92 499.732 16.626 500.212 16.038C500.704 15.438 500.95 14.568 500.95 13.428C500.95 12.312 500.704 11.454 500.212 10.854C499.72 10.254 499.036 9.954 498.16 9.954C497.284 9.954 496.594 10.254 496.09 10.854C495.598 11.454 495.352 12.312 495.352 13.428C495.352 14.568 495.592 15.438 496.072 16.038C496.564 16.626 497.26 16.92 498.16 16.92ZM507.921 18.126C506.841 18.126 506.025 17.826 505.473 17.226C504.933 16.626 504.663 15.738 504.663 14.562V8.946H506.121V14.526C506.121 15.342 506.289 15.942 506.625 16.326C506.961 16.71 507.471 16.902 508.155 16.902C508.959 16.902 509.607 16.644 510.099 16.128C510.591 15.612 510.837 14.922 510.837 14.058V8.946H512.295V18H510.873V16.038L511.089 15.93C510.849 16.65 510.441 17.196 509.865 17.568C509.301 17.94 508.653 18.126 507.921 18.126ZM513.827 10.098V8.946H519.641V10.098H513.827ZM519.605 16.704V17.946C519.401 18.006 519.197 18.048 518.993 18.072C518.801 18.108 518.585 18.126 518.345 18.126C517.505 18.126 516.833 17.886 516.329 17.406C515.837 16.926 515.591 16.206 515.591 15.246V6.624L517.049 6.102V15.048C517.049 15.528 517.115 15.9 517.247 16.164C517.391 16.428 517.583 16.614 517.823 16.722C518.063 16.818 518.333 16.866 518.633 16.866C518.813 16.866 518.975 16.854 519.119 16.83C519.263 16.806 519.425 16.764 519.605 16.704ZM529.296 18.126C528.216 18.126 527.4 17.826 526.848 17.226C526.308 16.626 526.038 15.738 526.038 14.562V8.946H527.496V14.526C527.496 15.342 527.664 15.942 528 16.326C528.336 16.71 528.846 16.902 529.53 16.902C530.334 16.902 530.982 16.644 531.474 16.128C531.966 15.612 532.212 14.922 532.212 14.058V8.946H533.67V18H532.248V16.038L532.464 15.93C532.224 16.65 531.816 17.196 531.24 17.568C530.676 17.94 530.028 18.126 529.296 18.126ZM539.54 18.126C538.016 18.126 536.81 17.736 535.922 16.956L536.408 15.876C536.888 16.248 537.38 16.524 537.884 16.704C538.4 16.872 538.97 16.956 539.594 16.956C540.278 16.956 540.794 16.842 541.142 16.614C541.502 16.374 541.682 16.032 541.682 15.588C541.682 15.228 541.562 14.946 541.322 14.742C541.082 14.526 540.686 14.352 540.134 14.22L538.604 13.86C537.848 13.692 537.26 13.392 536.84 12.96C536.432 12.528 536.228 12.012 536.228 11.412C536.228 10.884 536.372 10.422 536.66 10.026C536.948 9.618 537.35 9.3 537.866 9.072C538.382 8.844 538.994 8.73 539.702 8.73C540.338 8.73 540.938 8.832 541.502 9.036C542.066 9.24 542.54 9.534 542.924 9.918L542.438 10.98C542.006 10.62 541.562 10.356 541.106 10.188C540.662 10.008 540.194 9.918 539.702 9.918C539.054 9.918 538.55 10.044 538.19 10.296C537.842 10.548 537.668 10.89 537.668 11.322C537.668 11.694 537.776 11.988 537.992 12.204C538.22 12.42 538.58 12.588 539.072 12.708L540.602 13.086C541.454 13.266 542.078 13.566 542.474 13.986C542.882 14.394 543.086 14.916 543.086 15.552C543.086 16.332 542.768 16.956 542.132 17.424C541.496 17.892 540.632 18.126 539.54 18.126Z" fill="#1F1534"/>
</svg>
