<svg width="107px" height="122px" xmlns="http://www.w3.org/2000/svg" viewBox="196.5 14 107 122" style="background: rgba(0, 0, 0, 0);" preserveAspectRatio="xMidYMid"><defs><filter id="editing-hole" x="-100%" y="-100%" width="300%" height="300%"><feFlood flood-color="#000" result="black"></feFlood><feMorphology operator="dilate" radius="2" in="SourceGraphic" result="erode"></feMorphology><feGaussianBlur in="erode" stdDeviation="4" result="blur"></feGaussianBlur><feOffset in="blur" dx="2" dy="2" result="offset"></feOffset><feComposite operator="atop" in="offset" in2="black" result="merge"></feComposite><feComposite operator="in" in="merge" in2="SourceGraphic" result="inner-shadow"></feComposite></filter></defs><g filter="url(#editing-hole)"><g transform="translate(219.162663936615, 92.60000038146973)"><path d="M20.22-22.46L20.22-22.46L20.22-22.46Q21.12-24.83 21.12-26.88L21.12-26.88L21.12-26.88Q21.12-30.66 18.05-30.66L18.05-30.66L18.05-30.66Q16.45-30.66 15.14-29.22L15.14-29.22L15.14-29.22Q13.82-27.78 13.82-25.98L13.82-25.98L13.82-25.98Q13.82-24.70 14.85-23.68L14.85-23.68L14.85-23.68Q16.32-22.27 20.10-19.97L20.10-19.97L20.10-19.97Q23.87-17.66 25.31-15.78L25.31-15.78L25.31-15.78Q26.75-13.89 26.75-11.30L26.75-11.30L26.75-11.30Q26.75-8.70 25.50-6.34L25.50-6.34L25.50-6.34Q24.26-3.97 22.02-2.30L22.02-2.30L22.02-2.30Q17.22 1.28 9.54 1.28L9.54 1.28L9.54 1.28Q5.38 1.28 2.18-0.90L2.18-0.90L2.18-0.90Q-1.02-3.01-1.02-5.50L-1.02-5.50L-1.02-5.50Q-1.02-8 0.80-9.47L0.80-9.47L0.80-9.47Q2.62-10.94 5.31-10.94L5.31-10.94L5.31-10.94Q8-10.94 9.66-9.92L9.66-9.92L9.66-9.92Q8.83-7.81 8.83-6.40L8.83-6.40L8.83-6.40Q8.83-2.18 12.42-2.18L12.42-2.18L12.42-2.18Q13.95-2.18 14.98-3.14L14.98-3.14L14.98-3.14Q16-4.10 16-5.76L16-5.76L16-5.76Q16-9.02 10.50-12.48L10.50-12.48L10.50-12.48Q6.02-15.42 4.99-16.58L4.99-16.58L4.99-16.58Q3.26-18.62 3.26-21.18L3.26-21.18L3.26-21.18Q3.26-23.74 4.48-26.18L4.48-26.18L4.48-26.18Q5.70-28.61 7.94-30.34L7.94-30.34L7.94-30.34Q12.61-33.92 20.74-33.92L20.74-33.92L20.74-33.92Q24.90-33.92 27.36-32.26L27.36-32.26L27.36-32.26Q29.82-30.59 29.82-27.78L29.82-27.78L29.82-27.78Q29.82-24.96 28.13-23.36L28.13-23.36L28.13-23.36Q26.43-21.76 23.36-21.76L23.36-21.76L23.36-21.76Q21.25-21.76 20.22-22.46ZM51.33-22.46L51.33-22.46L51.33-22.46Q52.22-24.83 52.22-26.88L52.22-26.88L52.22-26.88Q52.22-30.66 49.15-30.66L49.15-30.66L49.15-30.66Q47.55-30.66 46.24-29.22L46.24-29.22L46.24-29.22Q44.93-27.78 44.93-25.98L44.93-25.98L44.93-25.98Q44.93-24.70 45.95-23.68L45.95-23.68L45.95-23.68Q47.42-22.27 51.20-19.97L51.20-19.97L51.20-19.97Q54.98-17.66 56.42-15.78L56.42-15.78L56.42-15.78Q57.86-13.89 57.86-11.30L57.86-11.30L57.86-11.30Q57.86-8.70 56.61-6.34L56.61-6.34L56.61-6.34Q55.36-3.97 53.12-2.30L53.12-2.30L53.12-2.30Q48.32 1.28 40.64 1.28L40.64 1.28L40.64 1.28Q36.48 1.28 33.28-0.90L33.28-0.90L33.28-0.90Q30.08-3.01 30.08-5.50L30.08-5.50L30.08-5.50Q30.08-8 31.90-9.47L31.90-9.47L31.90-9.47Q33.73-10.94 36.42-10.94L36.42-10.94L36.42-10.94Q39.10-10.94 40.77-9.92L40.77-9.92L40.77-9.92Q39.94-7.81 39.94-6.40L39.94-6.40L39.94-6.40Q39.94-2.18 43.52-2.18L43.52-2.18L43.52-2.18Q45.06-2.18 46.08-3.14L46.08-3.14L46.08-3.14Q47.10-4.10 47.10-5.76L47.10-5.76L47.10-5.76Q47.10-9.02 41.60-12.48L41.60-12.48L41.60-12.48Q37.12-15.42 36.10-16.58L36.10-16.58L36.10-16.58Q34.37-18.62 34.37-21.18L34.37-21.18L34.37-21.18Q34.37-23.74 35.58-26.18L35.58-26.18L35.58-26.18Q36.80-28.61 39.04-30.34L39.04-30.34L39.04-30.34Q43.71-33.92 51.84-33.92L51.84-33.92L51.84-33.92Q56-33.92 58.46-32.26L58.46-32.26L58.46-32.26Q60.93-30.59 60.93-27.78L60.93-27.78L60.93-27.78Q60.93-24.96 59.23-23.36L59.23-23.36L59.23-23.36Q57.54-21.76 54.46-21.76L54.46-21.76L54.46-21.76Q52.35-21.76 51.33-22.46Z" fill="#ccc"></path></g></g><style>text {
  font-size: 64px;
  font-family: Arial Black;
  dominant-baseline: central;
  text-anchor: middle;
}</style></svg>