<svg width="90" height="24" viewBox="0 0 90 24" fill="none" xmlns="http://www.w3.org/2000/svg">
<g filter="url(#filter0_d_1_1168)">
<mask id="path-1-outside-1_1_1168" maskUnits="userSpaceOnUse" x="0.643005" y="0.51123" width="89" height="23" fill="black">
<rect fill="white" x="0.643005" y="0.51123" width="89" height="23"/>
<path d="M11.7616 22.7852C10.2824 22.7852 8.89454 22.5021 7.59796 21.936C6.31965 21.3699 5.18742 20.5846 4.20129 19.5802C3.23342 18.5758 2.47556 17.4162 1.92771 16.1014C1.39812 14.7683 1.13333 13.3347 1.13333 11.8008C1.13333 10.285 1.39812 8.86975 1.92771 7.55491C2.47556 6.22181 3.23342 5.06219 4.20129 4.07606C5.16916 3.07166 6.29225 2.28641 7.57057 1.7203C8.86715 1.13593 10.2642 0.843739 11.7616 0.843739C13.0947 0.843739 14.2909 1.03549 15.35 1.41898C16.4092 1.78421 17.441 2.38685 18.4454 3.22689C18.6098 3.35472 18.7102 3.50081 18.7467 3.66517C18.8015 3.81126 18.8015 3.95736 18.7467 4.10345C18.7102 4.24954 18.6463 4.37737 18.555 4.48694C18.5185 4.68782 18.4089 4.85218 18.2263 4.98001C18.0619 5.08958 17.861 5.14437 17.6236 5.14437C17.3862 5.14437 17.1488 5.05306 16.9114 4.87044C16.2175 4.24954 15.4688 3.793 14.6652 3.50081C13.8617 3.19037 12.8939 3.03514 11.7616 3.03514C10.6111 3.03514 9.52457 3.27254 8.50192 3.74735C7.49752 4.20389 6.61183 4.83392 5.84484 5.63743C5.07785 6.44094 4.47521 7.37229 4.03693 8.43147C3.61692 9.49065 3.40691 10.6137 3.40691 11.8008C3.40691 13.0243 3.61692 14.1656 4.03693 15.2248C4.47521 16.284 5.07785 17.2153 5.84484 18.0189C6.61183 18.8224 7.49752 19.4524 8.50192 19.9089C9.52457 20.3655 10.6111 20.5938 11.7616 20.5938C12.7295 20.5938 13.6517 20.4294 14.5283 20.1007C15.4048 19.772 16.2449 19.3063 17.0484 18.7037C17.3041 18.5028 17.5597 18.4206 17.8154 18.4571C18.0893 18.4937 18.3176 18.6124 18.5002 18.8132C18.7011 18.9959 18.8015 19.2515 18.8015 19.5802C18.8015 19.7446 18.7741 19.8907 18.7193 20.0185C18.6645 20.1463 18.5824 20.2833 18.4728 20.4294C17.5232 21.2512 16.4731 21.8538 15.3227 22.2373C14.1904 22.6025 13.0034 22.7852 11.7616 22.7852ZM28.7298 22.6482C27.2506 22.6482 25.9358 22.3195 24.7853 21.6621C23.6531 21.0046 22.7582 20.1007 22.1008 18.9502C21.4434 17.7997 21.1147 16.494 21.1147 15.0331C21.1147 13.5539 21.4434 12.239 22.1008 11.0885C22.7582 9.93806 23.6531 9.0341 24.7853 8.37668C25.9358 7.71926 27.2506 7.39055 28.7298 7.39055C30.1907 7.39055 31.4873 7.71926 32.6195 8.37668C33.7518 9.0341 34.6466 9.93806 35.304 11.0885C35.9614 12.239 36.2993 13.5539 36.3175 15.0331C36.3175 16.494 35.9888 17.7997 35.3314 18.9502C34.674 20.1007 33.77 21.0046 32.6195 21.6621C31.4873 22.3195 30.1907 22.6482 28.7298 22.6482ZM28.7298 20.5664C29.7525 20.5664 30.6655 20.329 31.4691 19.8542C32.2726 19.3611 32.9026 18.7037 33.3591 17.8819C33.8157 17.0419 34.044 16.0922 34.044 15.0331C34.044 13.9739 33.8157 13.0243 33.3591 12.1842C32.9026 11.3442 32.2726 10.6868 31.4691 10.212C30.6655 9.71892 29.7525 9.47239 28.7298 9.47239C27.7071 9.47239 26.7849 9.71892 25.9632 10.212C25.1596 10.6868 24.5205 11.3442 24.0457 12.1842C23.5891 13.0243 23.3609 13.9739 23.3609 15.0331C23.3609 16.0922 23.5891 17.0419 24.0457 17.8819C24.5205 18.7037 25.1596 19.3611 25.9632 19.8542C26.7849 20.329 27.7071 20.5664 28.7298 20.5664ZM43.7623 22.5112C42.9953 22.5112 42.3196 22.3104 41.7353 21.9086C41.1509 21.4886 40.6943 20.9133 40.3656 20.1829C40.0369 19.4524 39.8726 18.6124 39.8726 17.6628V2.26815C39.8726 1.92118 39.973 1.64725 40.1739 1.44637C40.393 1.22723 40.6761 1.11766 41.0231 1.11766C41.3518 1.11766 41.6166 1.22723 41.8174 1.44637C42.0366 1.64725 42.1462 1.92118 42.1462 2.26815V17.6628C42.1462 18.4115 42.2922 19.0324 42.5844 19.5254C42.8949 20.0002 43.2875 20.2377 43.7623 20.2377H44.4471C44.7393 20.2377 44.9767 20.3472 45.1593 20.5664C45.3419 20.7672 45.4333 21.032 45.4333 21.3607C45.4333 21.7077 45.2963 21.9908 45.0224 22.2099C44.7667 22.4108 44.4289 22.5112 44.0088 22.5112H43.7623ZM51.6537 22.5112C50.8867 22.5112 50.211 22.3104 49.6267 21.9086C49.0423 21.4886 48.5857 20.9133 48.257 20.1829C47.9283 19.4524 47.764 18.6124 47.764 17.6628V2.26815C47.764 1.92118 47.8644 1.64725 48.0653 1.44637C48.2844 1.22723 48.5675 1.11766 48.9145 1.11766C49.2432 1.11766 49.508 1.22723 49.7088 1.44637C49.928 1.64725 50.0376 1.92118 50.0376 2.26815V17.6628C50.0376 18.4115 50.1836 19.0324 50.4758 19.5254C50.7863 20.0002 51.1789 20.2377 51.6537 20.2377H52.3385C52.6307 20.2377 52.8681 20.3472 53.0507 20.5664C53.2333 20.7672 53.3247 21.032 53.3247 21.3607C53.3247 21.7077 53.1877 21.9908 52.9138 22.2099C52.6581 22.4108 52.3203 22.5112 51.9002 22.5112H51.6537ZM61.866 22.6482C60.4781 22.6482 59.2363 22.3195 58.1406 21.6621C57.0449 20.9864 56.1775 20.0733 55.5383 18.9228C54.8992 17.7723 54.5796 16.4757 54.5796 15.0331C54.5796 13.5721 54.9083 12.2664 55.5657 11.1159C56.2414 9.96545 57.1545 9.0615 58.305 8.40408C59.4554 7.72839 60.752 7.39055 62.1947 7.39055C63.6191 7.39055 64.8974 7.72839 66.0297 8.40408C67.1801 9.0615 68.0841 9.96545 68.7415 11.1159C69.4172 12.2664 69.7642 13.5721 69.7824 15.0331L68.8511 15.4987C68.8511 16.8501 68.5406 18.0645 67.9197 19.1419C67.3171 20.2194 66.4862 21.0777 65.427 21.7168C64.3861 22.3377 63.1991 22.6482 61.866 22.6482ZM62.1947 20.5664C63.2174 20.5664 64.1213 20.329 64.9066 19.8542C65.7101 19.3611 66.3401 18.6945 66.7966 17.8545C67.2715 17.0145 67.5089 16.074 67.5089 15.0331C67.5089 13.9739 67.2715 13.0334 66.7966 12.2116C66.3401 11.3716 65.7101 10.705 64.9066 10.212C64.1213 9.71892 63.2174 9.47239 62.1947 9.47239C61.1903 9.47239 60.2772 9.71892 59.4554 10.212C58.6519 10.705 58.0128 11.3716 57.538 12.2116C57.0632 13.0334 56.8258 13.9739 56.8258 15.0331C56.8258 16.074 57.0632 17.0145 57.538 17.8545C58.0128 18.6945 58.6519 19.3611 59.4554 19.8542C60.2772 20.329 61.1903 20.5664 62.1947 20.5664ZM68.6046 22.5112C68.2758 22.5112 67.9928 22.4108 67.7554 22.2099C67.5362 21.9908 67.4267 21.7077 67.4267 21.3607V16.841L67.9471 14.4578L69.7824 15.0331V21.3607C69.7824 21.7077 69.6729 21.9908 69.4537 22.2099C69.2346 22.4108 68.9515 22.5112 68.6046 22.5112ZM81.4457 22.6482C80.0213 22.6482 78.7429 22.3195 77.6107 21.6621C76.4785 20.9864 75.5745 20.0824 74.8988 18.9502C74.2414 17.7997 73.9036 16.5123 73.8853 15.0879V2.29554C73.8853 1.93031 73.9858 1.64725 74.1866 1.44637C74.4058 1.22723 74.698 1.11766 75.0632 1.11766C75.4102 1.11766 75.6841 1.22723 75.885 1.44637C76.1041 1.64725 76.2137 1.93031 76.2137 2.29554V10.1298C76.8163 9.30803 77.6016 8.65061 78.5694 8.15754C79.5373 7.64622 80.6148 7.39055 81.8018 7.39055C83.1897 7.39055 84.4315 7.72839 85.5272 8.40408C86.6229 9.0615 87.4812 9.96545 88.102 11.1159C88.7412 12.2664 89.0608 13.563 89.0608 15.0057C89.0608 16.4666 88.7229 17.7723 88.0473 18.9228C87.3898 20.0733 86.4859 20.9864 85.3354 21.6621C84.2032 22.3195 82.9066 22.6482 81.4457 22.6482ZM81.4457 20.5664C82.4683 20.5664 83.3814 20.3198 84.1849 19.8268C85.0067 19.3337 85.6459 18.6763 86.1024 17.8545C86.5772 17.0145 86.8146 16.0649 86.8146 15.0057C86.8146 13.9648 86.5772 13.0243 86.1024 12.1842C85.6459 11.3442 85.0067 10.6868 84.1849 10.212C83.3814 9.71892 82.4683 9.47239 81.4457 9.47239C80.4595 9.47239 79.5556 9.71892 78.7338 10.212C77.9303 10.6868 77.3003 11.3442 76.8437 12.1842C76.3872 13.0243 76.1589 13.9648 76.1589 15.0057C76.1589 16.0649 76.3872 17.0145 76.8437 17.8545C77.3003 18.6763 77.9303 19.3337 78.7338 19.8268C79.5556 20.3198 80.4595 20.5664 81.4457 20.5664Z"/>
</mask>
<path d="M11.7616 22.7852C10.2824 22.7852 8.89454 22.5021 7.59796 21.936C6.31965 21.3699 5.18742 20.5846 4.20129 19.5802C3.23342 18.5758 2.47556 17.4162 1.92771 16.1014C1.39812 14.7683 1.13333 13.3347 1.13333 11.8008C1.13333 10.285 1.39812 8.86975 1.92771 7.55491C2.47556 6.22181 3.23342 5.06219 4.20129 4.07606C5.16916 3.07166 6.29225 2.28641 7.57057 1.7203C8.86715 1.13593 10.2642 0.843739 11.7616 0.843739C13.0947 0.843739 14.2909 1.03549 15.35 1.41898C16.4092 1.78421 17.441 2.38685 18.4454 3.22689C18.6098 3.35472 18.7102 3.50081 18.7467 3.66517C18.8015 3.81126 18.8015 3.95736 18.7467 4.10345C18.7102 4.24954 18.6463 4.37737 18.555 4.48694C18.5185 4.68782 18.4089 4.85218 18.2263 4.98001C18.0619 5.08958 17.861 5.14437 17.6236 5.14437C17.3862 5.14437 17.1488 5.05306 16.9114 4.87044C16.2175 4.24954 15.4688 3.793 14.6652 3.50081C13.8617 3.19037 12.8939 3.03514 11.7616 3.03514C10.6111 3.03514 9.52457 3.27254 8.50192 3.74735C7.49752 4.20389 6.61183 4.83392 5.84484 5.63743C5.07785 6.44094 4.47521 7.37229 4.03693 8.43147C3.61692 9.49065 3.40691 10.6137 3.40691 11.8008C3.40691 13.0243 3.61692 14.1656 4.03693 15.2248C4.47521 16.284 5.07785 17.2153 5.84484 18.0189C6.61183 18.8224 7.49752 19.4524 8.50192 19.9089C9.52457 20.3655 10.6111 20.5938 11.7616 20.5938C12.7295 20.5938 13.6517 20.4294 14.5283 20.1007C15.4048 19.772 16.2449 19.3063 17.0484 18.7037C17.3041 18.5028 17.5597 18.4206 17.8154 18.4571C18.0893 18.4937 18.3176 18.6124 18.5002 18.8132C18.7011 18.9959 18.8015 19.2515 18.8015 19.5802C18.8015 19.7446 18.7741 19.8907 18.7193 20.0185C18.6645 20.1463 18.5824 20.2833 18.4728 20.4294C17.5232 21.2512 16.4731 21.8538 15.3227 22.2373C14.1904 22.6025 13.0034 22.7852 11.7616 22.7852ZM28.7298 22.6482C27.2506 22.6482 25.9358 22.3195 24.7853 21.6621C23.6531 21.0046 22.7582 20.1007 22.1008 18.9502C21.4434 17.7997 21.1147 16.494 21.1147 15.0331C21.1147 13.5539 21.4434 12.239 22.1008 11.0885C22.7582 9.93806 23.6531 9.0341 24.7853 8.37668C25.9358 7.71926 27.2506 7.39055 28.7298 7.39055C30.1907 7.39055 31.4873 7.71926 32.6195 8.37668C33.7518 9.0341 34.6466 9.93806 35.304 11.0885C35.9614 12.239 36.2993 13.5539 36.3175 15.0331C36.3175 16.494 35.9888 17.7997 35.3314 18.9502C34.674 20.1007 33.77 21.0046 32.6195 21.6621C31.4873 22.3195 30.1907 22.6482 28.7298 22.6482ZM28.7298 20.5664C29.7525 20.5664 30.6655 20.329 31.4691 19.8542C32.2726 19.3611 32.9026 18.7037 33.3591 17.8819C33.8157 17.0419 34.044 16.0922 34.044 15.0331C34.044 13.9739 33.8157 13.0243 33.3591 12.1842C32.9026 11.3442 32.2726 10.6868 31.4691 10.212C30.6655 9.71892 29.7525 9.47239 28.7298 9.47239C27.7071 9.47239 26.7849 9.71892 25.9632 10.212C25.1596 10.6868 24.5205 11.3442 24.0457 12.1842C23.5891 13.0243 23.3609 13.9739 23.3609 15.0331C23.3609 16.0922 23.5891 17.0419 24.0457 17.8819C24.5205 18.7037 25.1596 19.3611 25.9632 19.8542C26.7849 20.329 27.7071 20.5664 28.7298 20.5664ZM43.7623 22.5112C42.9953 22.5112 42.3196 22.3104 41.7353 21.9086C41.1509 21.4886 40.6943 20.9133 40.3656 20.1829C40.0369 19.4524 39.8726 18.6124 39.8726 17.6628V2.26815C39.8726 1.92118 39.973 1.64725 40.1739 1.44637C40.393 1.22723 40.6761 1.11766 41.0231 1.11766C41.3518 1.11766 41.6166 1.22723 41.8174 1.44637C42.0366 1.64725 42.1462 1.92118 42.1462 2.26815V17.6628C42.1462 18.4115 42.2922 19.0324 42.5844 19.5254C42.8949 20.0002 43.2875 20.2377 43.7623 20.2377H44.4471C44.7393 20.2377 44.9767 20.3472 45.1593 20.5664C45.3419 20.7672 45.4333 21.032 45.4333 21.3607C45.4333 21.7077 45.2963 21.9908 45.0224 22.2099C44.7667 22.4108 44.4289 22.5112 44.0088 22.5112H43.7623ZM51.6537 22.5112C50.8867 22.5112 50.211 22.3104 49.6267 21.9086C49.0423 21.4886 48.5857 20.9133 48.257 20.1829C47.9283 19.4524 47.764 18.6124 47.764 17.6628V2.26815C47.764 1.92118 47.8644 1.64725 48.0653 1.44637C48.2844 1.22723 48.5675 1.11766 48.9145 1.11766C49.2432 1.11766 49.508 1.22723 49.7088 1.44637C49.928 1.64725 50.0376 1.92118 50.0376 2.26815V17.6628C50.0376 18.4115 50.1836 19.0324 50.4758 19.5254C50.7863 20.0002 51.1789 20.2377 51.6537 20.2377H52.3385C52.6307 20.2377 52.8681 20.3472 53.0507 20.5664C53.2333 20.7672 53.3247 21.032 53.3247 21.3607C53.3247 21.7077 53.1877 21.9908 52.9138 22.2099C52.6581 22.4108 52.3203 22.5112 51.9002 22.5112H51.6537ZM61.866 22.6482C60.4781 22.6482 59.2363 22.3195 58.1406 21.6621C57.0449 20.9864 56.1775 20.0733 55.5383 18.9228C54.8992 17.7723 54.5796 16.4757 54.5796 15.0331C54.5796 13.5721 54.9083 12.2664 55.5657 11.1159C56.2414 9.96545 57.1545 9.0615 58.305 8.40408C59.4554 7.72839 60.752 7.39055 62.1947 7.39055C63.6191 7.39055 64.8974 7.72839 66.0297 8.40408C67.1801 9.0615 68.0841 9.96545 68.7415 11.1159C69.4172 12.2664 69.7642 13.5721 69.7824 15.0331L68.8511 15.4987C68.8511 16.8501 68.5406 18.0645 67.9197 19.1419C67.3171 20.2194 66.4862 21.0777 65.427 21.7168C64.3861 22.3377 63.1991 22.6482 61.866 22.6482ZM62.1947 20.5664C63.2174 20.5664 64.1213 20.329 64.9066 19.8542C65.7101 19.3611 66.3401 18.6945 66.7966 17.8545C67.2715 17.0145 67.5089 16.074 67.5089 15.0331C67.5089 13.9739 67.2715 13.0334 66.7966 12.2116C66.3401 11.3716 65.7101 10.705 64.9066 10.212C64.1213 9.71892 63.2174 9.47239 62.1947 9.47239C61.1903 9.47239 60.2772 9.71892 59.4554 10.212C58.6519 10.705 58.0128 11.3716 57.538 12.2116C57.0632 13.0334 56.8258 13.9739 56.8258 15.0331C56.8258 16.074 57.0632 17.0145 57.538 17.8545C58.0128 18.6945 58.6519 19.3611 59.4554 19.8542C60.2772 20.329 61.1903 20.5664 62.1947 20.5664ZM68.6046 22.5112C68.2758 22.5112 67.9928 22.4108 67.7554 22.2099C67.5362 21.9908 67.4267 21.7077 67.4267 21.3607V16.841L67.9471 14.4578L69.7824 15.0331V21.3607C69.7824 21.7077 69.6729 21.9908 69.4537 22.2099C69.2346 22.4108 68.9515 22.5112 68.6046 22.5112ZM81.4457 22.6482C80.0213 22.6482 78.7429 22.3195 77.6107 21.6621C76.4785 20.9864 75.5745 20.0824 74.8988 18.9502C74.2414 17.7997 73.9036 16.5123 73.8853 15.0879V2.29554C73.8853 1.93031 73.9858 1.64725 74.1866 1.44637C74.4058 1.22723 74.698 1.11766 75.0632 1.11766C75.4102 1.11766 75.6841 1.22723 75.885 1.44637C76.1041 1.64725 76.2137 1.93031 76.2137 2.29554V10.1298C76.8163 9.30803 77.6016 8.65061 78.5694 8.15754C79.5373 7.64622 80.6148 7.39055 81.8018 7.39055C83.1897 7.39055 84.4315 7.72839 85.5272 8.40408C86.6229 9.0615 87.4812 9.96545 88.102 11.1159C88.7412 12.2664 89.0608 13.563 89.0608 15.0057C89.0608 16.4666 88.7229 17.7723 88.0473 18.9228C87.3898 20.0733 86.4859 20.9864 85.3354 21.6621C84.2032 22.3195 82.9066 22.6482 81.4457 22.6482ZM81.4457 20.5664C82.4683 20.5664 83.3814 20.3198 84.1849 19.8268C85.0067 19.3337 85.6459 18.6763 86.1024 17.8545C86.5772 17.0145 86.8146 16.0649 86.8146 15.0057C86.8146 13.9648 86.5772 13.0243 86.1024 12.1842C85.6459 11.3442 85.0067 10.6868 84.1849 10.212C83.3814 9.71892 82.4683 9.47239 81.4457 9.47239C80.4595 9.47239 79.5556 9.71892 78.7338 10.212C77.9303 10.6868 77.3003 11.3442 76.8437 12.1842C76.3872 13.0243 76.1589 13.9648 76.1589 15.0057C76.1589 16.0649 76.3872 17.0145 76.8437 17.8545C77.3003 18.6763 77.9303 19.3337 78.7338 19.8268C79.5556 20.3198 80.4595 20.5664 81.4457 20.5664Z" fill="#9A54BC"/>
<path d="M7.59796 21.936L7.54686 22.0514L7.54747 22.0516L7.59796 21.936ZM4.20129 19.5802L4.11041 19.6678L4.11124 19.6686L4.20129 19.5802ZM1.92771 16.1014L1.81041 16.148L1.81122 16.1499L1.92771 16.1014ZM1.92771 7.55491L1.81098 7.50694L1.81065 7.50776L1.92771 7.55491ZM4.20129 4.07606L4.29136 4.16446L4.29216 4.16362L4.20129 4.07606ZM7.57057 1.7203L7.62167 1.83569L7.62243 1.83535L7.57057 1.7203ZM15.35 1.41898L15.3071 1.53766L15.3089 1.53829L15.35 1.41898ZM18.4454 3.22689L18.3644 3.32375L18.3679 3.3265L18.4454 3.22689ZM18.7467 3.66517L18.6235 3.69254L18.6255 3.70119L18.6286 3.70948L18.7467 3.66517ZM18.7467 4.10345L18.6286 4.05914L18.626 4.06587L18.6243 4.07284L18.7467 4.10345ZM18.555 4.48694L18.458 4.40615L18.4368 4.43168L18.4308 4.46437L18.555 4.48694ZM18.2263 4.98001L18.2963 5.08504L18.2986 5.0834L18.2263 4.98001ZM16.9114 4.87044L16.827 4.96475L16.8345 4.97047L16.9114 4.87044ZM14.6652 3.50081L14.6197 3.61856L14.6221 3.61941L14.6652 3.50081ZM8.50192 3.74735L8.55414 3.86224L8.55506 3.86181L8.50192 3.74735ZM5.84484 5.63743L5.75356 5.55029L5.84484 5.63743ZM4.03693 8.43147L3.92031 8.38321L3.91962 8.38495L4.03693 8.43147ZM4.03693 15.2248L3.91961 15.2713L3.92032 15.2731L4.03693 15.2248ZM5.84484 18.0189L5.93613 17.9317L5.84484 18.0189ZM8.50192 19.9089L8.44969 20.0238L8.45047 20.0242L8.50192 19.9089ZM14.5283 20.1007L14.5726 20.2189L14.5283 20.1007ZM17.0484 18.7037L17.1241 18.8047L17.1264 18.8029L17.0484 18.7037ZM17.8154 18.4571L17.7975 18.5821L17.7987 18.5822L17.8154 18.4571ZM18.5002 18.8132L18.4064 18.8985L18.4153 18.9066L18.5002 18.8132ZM18.7193 20.0185L18.8353 20.0682L18.7193 20.0185ZM18.4728 20.4294L18.5554 20.5248L18.5656 20.516L18.5738 20.5051L18.4728 20.4294ZM15.3227 22.2373L15.3614 22.3574L15.3626 22.357L15.3227 22.2373ZM11.7616 22.659C10.299 22.659 8.92839 22.3792 7.64846 21.8203L7.54747 22.0516C8.8607 22.625 10.2659 22.9114 11.7616 22.9114V22.659ZM7.64907 21.8206C6.38542 21.261 5.26639 20.4849 4.29134 19.4918L4.11124 19.6686C5.10846 20.6843 6.25387 21.4788 7.54686 22.0514L7.64907 21.8206ZM4.29216 19.4927C3.33542 18.4998 2.58614 17.3535 2.0442 16.0528L1.81122 16.1499C2.36498 17.4789 3.13142 18.6519 4.11042 19.6678L4.29216 19.4927ZM2.04499 16.0548C1.52169 14.7375 1.25952 13.3199 1.25952 11.8007H1.00713C1.00713 13.3496 1.27455 14.799 1.81043 16.148L2.04499 16.0548ZM1.25952 11.8007C1.25952 10.3001 1.52163 8.9009 2.04477 7.60206L1.81065 7.50776C1.27462 8.8386 1.00713 10.27 1.00713 11.8007H1.25952ZM2.04444 7.60288C2.58636 6.28419 3.33539 5.13846 4.29136 4.16445L4.11122 3.98766C3.13145 4.98592 2.36476 6.15943 1.81098 7.50694L2.04444 7.60288ZM4.29216 4.16362C5.24867 3.17102 6.35825 2.3952 7.62167 1.83569L7.51947 1.60491C6.22625 2.17762 5.08965 2.97231 4.11042 3.98849L4.29216 4.16362ZM7.62243 1.83535C8.90185 1.25871 10.2811 0.969937 11.7616 0.969937V0.71754C10.2473 0.71754 8.83245 1.01314 7.51872 1.60525L7.62243 1.83535ZM11.7616 0.969937C13.0827 0.969937 14.264 1.15996 15.3071 1.53764L15.393 1.30032C14.3178 0.911017 13.1068 0.71754 11.7616 0.71754V0.969937ZM15.3089 1.53829C16.3513 1.89774 17.3699 2.49188 18.3644 3.32369L18.5264 3.13008C17.5121 2.28182 16.4671 1.67069 15.3912 1.29968L15.3089 1.53829ZM18.3679 3.3265C18.5148 3.44071 18.5948 3.56315 18.6235 3.69254L18.8699 3.63779C18.8256 3.43848 18.7048 3.26873 18.5229 3.12727L18.3679 3.3265ZM18.6286 3.70948C18.6726 3.827 18.6726 3.94161 18.6286 4.05914L18.8649 4.14776C18.9304 3.9731 18.9304 3.79552 18.8649 3.62086L18.6286 3.70948ZM18.6243 4.07284C18.5921 4.20156 18.5365 4.31199 18.458 4.40615L18.6519 4.56773C18.7561 4.44276 18.8283 4.29753 18.8692 4.13406L18.6243 4.07284ZM18.4308 4.46437C18.4008 4.62938 18.312 4.76593 18.1539 4.87662L18.2986 5.0834C18.5057 4.93842 18.6361 4.74626 18.6791 4.50952L18.4308 4.46437ZM18.1563 4.87501C18.0165 4.96817 17.8412 5.01817 17.6236 5.01817V5.27056C17.8808 5.27056 18.1073 5.21099 18.2963 5.08501L18.1563 4.87501ZM17.6236 5.01817C17.4206 5.01817 17.2096 4.94057 16.9884 4.77041L16.8345 4.97047C17.0881 5.16555 17.3518 5.27056 17.6236 5.27056V5.01817ZM16.9956 4.77639C16.2907 4.14573 15.5283 3.68037 14.7084 3.38221L14.6221 3.61941C15.4092 3.90563 16.1442 4.35335 16.8273 4.96449L16.9956 4.77639ZM14.7107 3.3831C13.8889 3.06559 12.9048 2.90894 11.7616 2.90894V3.16134C12.8829 3.16134 13.8345 3.31514 14.6198 3.61853L14.7107 3.3831ZM11.7616 2.90894C10.5932 2.90894 9.48842 3.15019 8.44877 3.63288L8.55506 3.86181C9.56072 3.3949 10.6291 3.16134 11.7616 3.16134V2.90894ZM8.4497 3.63246C7.43053 4.09572 6.5316 4.7352 5.75356 5.55029L5.93613 5.72457C6.69207 4.93263 7.56452 4.31206 8.55414 3.86223L8.4497 3.63246ZM5.75356 5.55029C4.97545 6.36545 4.36438 7.31009 3.92032 8.38322L4.15354 8.47972C4.58605 7.43449 5.18025 6.51644 5.93613 5.72457L5.75356 5.55029ZM3.91962 8.38495C3.49349 9.45955 3.28071 10.5985 3.28071 11.8007H3.5331C3.5331 10.629 3.74034 9.52174 4.15425 8.47799L3.91962 8.38495ZM3.28071 11.8007C3.28071 13.039 3.49331 14.1963 3.91962 15.2713L4.15425 15.1783C3.74052 14.135 3.5331 13.0095 3.5331 11.8007H3.28071ZM3.92032 15.2731C4.36438 16.3462 4.97545 17.2908 5.75356 18.106L5.93613 17.9317C5.18025 17.1399 4.58605 16.2218 4.15354 15.1766L3.92032 15.2731ZM5.75356 18.106C6.5316 18.9211 7.43053 19.5606 8.4497 20.0238L8.55414 19.7941C7.56452 19.3442 6.69207 18.7237 5.93613 17.9317L5.75356 18.106ZM8.45047 20.0242C9.48976 20.4881 10.5939 20.72 11.7616 20.72V20.4676C10.6284 20.4676 9.55938 20.2428 8.55336 19.7937L8.45047 20.0242ZM11.7616 20.72C12.7441 20.72 13.6814 20.5531 14.5726 20.2189L14.484 19.9825C13.6221 20.3057 12.7149 20.4676 11.7616 20.4676V20.72ZM14.5726 20.2189C15.4612 19.8856 16.3117 19.4139 17.1241 18.8046L16.9727 18.6027C16.1781 19.1987 15.3485 19.6583 14.484 19.9825L14.5726 20.2189ZM17.1264 18.8029C17.3624 18.6175 17.5843 18.5516 17.7975 18.5821L17.8332 18.3322C17.5351 18.2896 17.2457 18.3881 16.9704 18.6044L17.1264 18.8029ZM17.7987 18.5822C18.0437 18.6149 18.2446 18.7197 18.4068 18.8981L18.5936 18.7283C18.3905 18.505 18.1349 18.3724 17.8321 18.332L17.7987 18.5822ZM18.4153 18.9066C18.5844 19.0604 18.6753 19.279 18.6753 19.5802H18.9277C18.9277 19.2241 18.8177 18.9314 18.5851 18.7199L18.4153 18.9066ZM18.6753 19.5802C18.6753 19.7306 18.6503 19.8593 18.6033 19.9688L18.8353 20.0682C18.898 19.9221 18.9277 19.7586 18.9277 19.5802H18.6753ZM18.6033 19.9688C18.5535 20.085 18.4771 20.2133 18.3718 20.3537L18.5738 20.5051C18.6876 20.3533 18.7756 20.2076 18.8353 20.0682L18.6033 19.9688ZM18.3902 20.334C17.4527 21.1453 16.417 21.7395 15.2827 22.1176L15.3626 22.357C16.5293 21.9681 17.5937 21.357 18.5554 20.5248L18.3902 20.334ZM15.2839 22.1172C14.1647 22.4782 12.9909 22.659 11.7616 22.659V22.9114C13.016 22.9114 14.2161 22.7269 15.3614 22.3574L15.2839 22.1172ZM24.7853 21.6621L24.7219 21.7712L24.7227 21.7716L24.7853 21.6621ZM22.1008 18.9502L22.2104 18.8876L22.1008 18.9502ZM22.1008 11.0885L21.9912 11.0259L22.1008 11.0885ZM24.7853 8.37668L24.7227 8.26711L24.7219 8.26755L24.7853 8.37668ZM32.6195 8.37668L32.5562 8.48582L32.6195 8.37668ZM35.304 11.0885L35.4136 11.0259L35.304 11.0885ZM36.3175 15.0331H36.4437L36.4437 15.0315L36.3175 15.0331ZM35.3314 18.9502L35.2218 18.8876L35.3314 18.9502ZM32.6195 21.6621L32.5569 21.5525L32.5562 21.5529L32.6195 21.6621ZM31.4691 19.8542L31.5333 19.9628L31.5351 19.9617L31.4691 19.8542ZM33.3591 17.8819L33.4695 17.9432L33.47 17.9422L33.3591 17.8819ZM33.3591 12.1842L33.2483 12.2445L33.3591 12.1842ZM31.4691 10.212L31.403 10.3196L31.4049 10.3206L31.4691 10.212ZM25.9632 10.212L26.0274 10.3206L26.0281 10.3202L25.9632 10.212ZM24.0457 12.1842L23.9358 12.1221L23.9348 12.124L24.0457 12.1842ZM24.0457 17.8819L23.9348 17.9422L23.9364 17.945L24.0457 17.8819ZM25.9632 19.8542L25.8971 19.9618L25.9 19.9634L25.9632 19.8542ZM28.7298 22.522C27.27 22.522 25.9772 22.1978 24.8479 21.5525L24.7227 21.7716C25.8944 22.4412 27.2313 22.7744 28.7298 22.7744V22.522ZM24.8486 21.5529C23.7359 20.9068 22.8569 20.019 22.2104 18.8876L21.9912 19.0128C22.6596 20.1824 23.5702 21.1025 24.7219 21.7712L24.8486 21.5529ZM22.2104 18.8876C21.5649 17.7581 21.2409 16.4744 21.2409 15.0331H20.9885C20.9885 16.5137 21.3218 17.8413 21.9912 19.0128L22.2104 18.8876ZM21.2409 15.0331C21.2409 13.5732 21.5651 12.2804 22.2104 11.1512L21.9912 11.0259C21.3217 12.1976 20.9885 13.5345 20.9885 15.0331H21.2409ZM22.2104 11.1512C22.8569 10.0197 23.7359 9.13193 24.8486 8.48582L24.7219 8.26755C23.5702 8.93628 22.6596 9.85638 21.9912 11.0259L22.2104 11.1512ZM24.8479 8.48625C25.9772 7.84096 27.27 7.51675 28.7298 7.51675V7.26435C27.2313 7.26435 25.8944 7.59757 24.7227 8.26711L24.8479 8.48625ZM28.7298 7.51675C30.1711 7.51675 31.4454 7.84083 32.5562 8.48582L32.6829 8.26755C31.5293 7.5977 30.2104 7.26435 28.7298 7.26435V7.51675ZM32.5562 8.48582C33.6689 9.13193 34.5479 10.0197 35.1944 11.1512L35.4136 11.0259C34.7453 9.85638 33.8346 8.93628 32.6829 8.26755L32.5562 8.48582ZM35.1944 11.1512C35.84 12.2809 36.1733 13.5743 36.1913 15.0346L36.4437 15.0315C36.4252 13.5334 36.0828 12.1971 35.4136 11.0259L35.1944 11.1512ZM36.1913 15.0331C36.1913 16.4744 35.8673 17.7581 35.2218 18.8876L35.441 19.0128C36.1104 17.8413 36.4437 16.5137 36.4437 15.0331H36.1913ZM35.2218 18.8876C34.5756 20.0185 33.6879 20.9062 32.5569 21.5525L32.6822 21.7716C33.8522 21.103 34.7724 20.1829 35.441 19.0128L35.2218 18.8876ZM32.5562 21.5529C31.4454 22.1979 30.1711 22.522 28.7298 22.522V22.7744C30.2104 22.7744 31.5293 22.441 32.6829 21.7712L32.5562 21.5529ZM28.7298 20.6926C29.7728 20.6926 30.7085 20.4502 31.5333 19.9628L31.4049 19.7455C30.6226 20.2077 29.7321 20.4402 28.7298 20.4402V20.6926ZM31.5351 19.9617C32.357 19.4573 33.0023 18.784 33.4695 17.9432L33.2488 17.8206C32.8029 18.6233 32.1881 19.2648 31.4031 19.7466L31.5351 19.9617ZM33.47 17.9422C33.9377 17.0817 34.1702 16.111 34.1702 15.0331H33.9178C33.9178 16.0735 33.6937 17.002 33.2483 17.8216L33.47 17.9422ZM34.1702 15.0331C34.1702 13.9552 33.9377 12.9845 33.47 12.124L33.2483 12.2445C33.6937 13.0641 33.9178 13.9926 33.9178 15.0331H34.1702ZM33.47 12.124C33.0029 11.2644 32.3569 10.59 31.5333 10.1033L31.4049 10.3206C32.1882 10.7835 32.8023 11.424 33.2483 12.2445L33.47 12.124ZM31.5351 10.1044C30.71 9.59814 29.7737 9.34619 28.7298 9.34619V9.59858C29.7312 9.59858 30.6211 9.83969 31.4031 10.3195L31.5351 10.1044ZM28.7298 9.34619C27.6859 9.34619 26.7409 9.59814 25.8982 10.1038L26.0281 10.3202C26.8289 9.83969 27.7284 9.59858 28.7298 9.59858V9.34619ZM25.899 10.1033C25.0757 10.5898 24.4211 11.2635 23.9358 12.1221L24.1555 12.2463C24.6199 11.4249 25.2435 10.7838 26.0274 10.3206L25.899 10.1033ZM23.9348 12.124C23.4672 12.9845 23.2347 13.9552 23.2347 15.0331H23.4871C23.4871 13.9926 23.7111 13.0641 24.1566 12.2445L23.9348 12.124ZM23.2347 15.0331C23.2347 16.111 23.4672 17.0817 23.9348 17.9422L24.1566 17.8216C23.7111 17.002 23.4871 16.0735 23.4871 15.0331H23.2347ZM23.9364 17.945C24.4216 18.7849 25.0756 19.4576 25.8972 19.9617L26.0292 19.7466C25.2437 19.2646 24.6193 18.6225 24.155 17.8188L23.9364 17.945ZM25.9 19.9634C26.7425 20.4502 27.6868 20.6926 28.7298 20.6926V20.4402C27.7275 20.4402 26.8274 20.2077 26.0263 19.7449L25.9 19.9634ZM41.7353 21.9086L41.6616 22.0111L41.6638 22.0126L41.7353 21.9086ZM40.3656 20.1829L40.4807 20.1311L40.3656 20.1829ZM40.1739 1.44637L40.0847 1.35714V1.35714L40.1739 1.44637ZM41.8174 1.44637L41.7241 1.53197L41.7322 1.5394L41.8174 1.44637ZM42.5844 19.5254L42.4758 19.5898L42.4788 19.5945L42.5844 19.5254ZM45.1593 20.5664L45.0623 20.6472L45.0659 20.6513L45.1593 20.5664ZM45.0224 22.2099L45.1003 22.3091L45.1012 22.3085L45.0224 22.2099ZM43.7623 22.385C43.0187 22.385 42.3684 22.1907 41.8068 21.8046L41.6638 22.0126C42.2709 22.43 42.972 22.6374 43.7623 22.6374V22.385ZM41.8089 21.8061C41.2445 21.4005 40.8014 20.8436 40.4807 20.1311L40.2506 20.2347C40.5873 20.983 41.0572 21.5767 41.6616 22.0111L41.8089 21.8061ZM40.4807 20.1311C40.1606 19.4196 39.9988 18.5978 39.9988 17.6628H39.7464C39.7464 18.6269 39.9133 19.4852 40.2506 20.2347L40.4807 20.1311ZM39.9988 17.6628V2.26815H39.7464V17.6628H39.9988ZM39.9988 2.26815C39.9988 1.94676 40.091 1.70777 40.2631 1.53561L40.0847 1.35714C39.8551 1.58673 39.7464 1.89559 39.7464 2.26815H39.9988ZM40.2631 1.53561C40.4557 1.34306 40.7052 1.24386 41.0231 1.24386V0.991465C40.647 0.991465 40.3304 1.11141 40.0847 1.35714L40.2631 1.53561ZM41.0231 1.24386C41.3206 1.24386 41.5501 1.3415 41.7244 1.53165L41.9105 1.3611C41.683 1.11296 41.383 0.991465 41.0231 0.991465V1.24386ZM41.7322 1.5394C41.9208 1.71233 42.02 1.95008 42.02 2.26815H42.2724C42.2724 1.89228 42.1524 1.58218 41.9027 1.35335L41.7322 1.5394ZM42.02 2.26815V17.6628H42.2724V2.26815H42.02ZM42.02 17.6628C42.02 18.4274 42.1691 19.0721 42.4759 19.5898L42.693 19.4611C42.4154 18.9926 42.2724 18.3956 42.2724 17.6628H42.02ZM42.4788 19.5945C42.8073 20.0969 43.2361 20.3638 43.7623 20.3638V20.1115C43.3389 20.1115 42.9824 19.9036 42.6901 19.4564L42.4788 19.5945ZM43.7623 20.3638H44.4471V20.1115H43.7623V20.3638ZM44.4471 20.3638C44.7029 20.3638 44.9044 20.4576 45.0624 20.6472L45.2563 20.4856C45.049 20.2369 44.7757 20.1115 44.4471 20.1115V20.3638ZM45.0659 20.6513C45.2232 20.8242 45.3071 21.0565 45.3071 21.3607H45.5595C45.5595 21.0076 45.4607 20.7103 45.2527 20.4815L45.0659 20.6513ZM45.3071 21.3607C45.3071 21.6689 45.1879 21.9159 44.9435 22.1114L45.1012 22.3085C45.4047 22.0657 45.5595 21.7465 45.5595 21.3607H45.3071ZM44.9444 22.1107C44.7167 22.2896 44.4089 22.385 44.0088 22.385V22.6374C44.4488 22.6374 44.8167 22.532 45.1003 22.3091L44.9444 22.1107ZM44.0088 22.385H43.7623V22.6374H44.0088V22.385ZM49.6267 21.9086L49.553 22.0111L49.5552 22.0126L49.6267 21.9086ZM48.257 20.1829L48.3721 20.1311L48.257 20.1829ZM48.0653 1.44637L47.9761 1.35714V1.35714L48.0653 1.44637ZM49.7088 1.44637L49.6155 1.53197L49.6236 1.5394L49.7088 1.44637ZM50.4758 19.5254L50.3672 19.5898L50.3702 19.5945L50.4758 19.5254ZM53.0507 20.5664L52.9537 20.6472L52.9574 20.6513L53.0507 20.5664ZM52.9138 22.2099L52.9917 22.3091L52.9926 22.3085L52.9138 22.2099ZM51.6537 22.385C50.9101 22.385 50.2598 22.1907 49.6982 21.8046L49.5552 22.0126C50.1623 22.43 50.8634 22.6374 51.6537 22.6374V22.385ZM49.7003 21.8061C49.136 21.4005 48.6928 20.8436 48.3721 20.1311L48.142 20.2347C48.4787 20.983 48.9486 21.5767 49.553 22.0111L49.7003 21.8061ZM48.3721 20.1311C48.052 19.4196 47.8902 18.5978 47.8902 17.6628H47.6378C47.6378 18.6269 47.8047 19.4852 48.142 20.2347L48.3721 20.1311ZM47.8902 17.6628V2.26815H47.6378V17.6628H47.8902ZM47.8902 2.26815C47.8902 1.94676 47.9824 1.70777 48.1545 1.53561L47.9761 1.35714C47.7465 1.58673 47.6378 1.89559 47.6378 2.26815H47.8902ZM48.1545 1.53561C48.3471 1.34306 48.5966 1.24386 48.9145 1.24386V0.991465C48.5384 0.991465 48.2218 1.11141 47.9761 1.35714L48.1545 1.53561ZM48.9145 1.24386C49.212 1.24386 49.4415 1.3415 49.6158 1.53165L49.8019 1.3611C49.5744 1.11296 49.2744 0.991465 48.9145 0.991465V1.24386ZM49.6236 1.5394C49.8122 1.71233 49.9114 1.95008 49.9114 2.26815H50.1638C50.1638 1.89228 50.0438 1.58218 49.7941 1.35335L49.6236 1.5394ZM49.9114 2.26815V17.6628H50.1638V2.26815H49.9114ZM49.9114 17.6628C49.9114 18.4274 50.0605 19.0721 50.3673 19.5898L50.5844 19.4611C50.3068 18.9926 50.1638 18.3956 50.1638 17.6628H49.9114ZM50.3702 19.5945C50.6987 20.0969 51.1275 20.3638 51.6537 20.3638V20.1115C51.2303 20.1115 50.8738 19.9036 50.5815 19.4564L50.3702 19.5945ZM51.6537 20.3638H52.3385V20.1115H51.6537V20.3638ZM52.3385 20.3638C52.5943 20.3638 52.7958 20.4576 52.9538 20.6472L53.1477 20.4856C52.9404 20.2369 52.6671 20.1115 52.3385 20.1115V20.3638ZM52.9574 20.6513C53.1146 20.8242 53.1985 21.0565 53.1985 21.3607H53.4509C53.4509 21.0076 53.3521 20.7103 53.1441 20.4815L52.9574 20.6513ZM53.1985 21.3607C53.1985 21.6689 53.0793 21.9159 52.8349 22.1114L52.9926 22.3085C53.2961 22.0657 53.4509 21.7465 53.4509 21.3607H53.1985ZM52.8358 22.1107C52.6081 22.2896 52.3003 22.385 51.9002 22.385V22.6374C52.3402 22.6374 52.7081 22.532 52.9917 22.3091L52.8358 22.1107ZM51.9002 22.385H51.6537V22.6374H51.9002V22.385ZM58.1406 21.6621L58.0744 21.7695L58.0757 21.7703L58.1406 21.6621ZM55.5383 18.9228L55.428 18.9841L55.5383 18.9228ZM55.5657 11.1159L55.4569 11.052L55.4561 11.0533L55.5657 11.1159ZM58.305 8.40408L58.3676 8.51365L58.3689 8.5129L58.305 8.40408ZM66.0297 8.40408L65.965 8.51246L65.967 8.51365L66.0297 8.40408ZM68.7415 11.1159L68.6319 11.1786L68.6327 11.1798L68.7415 11.1159ZM69.7824 15.0331L69.8389 15.1459L69.9096 15.1106L69.9086 15.0315L69.7824 15.0331ZM68.8511 15.4987L68.7946 15.3859L68.7249 15.4207V15.4987H68.8511ZM67.9197 19.1419L67.8104 19.0789L67.8096 19.0803L67.9197 19.1419ZM65.427 21.7168L65.4917 21.8252L65.4922 21.8249L65.427 21.7168ZM64.9066 19.8542L64.9719 19.9621L64.9726 19.9617L64.9066 19.8542ZM66.7966 17.8545L66.6868 17.7924L66.6858 17.7942L66.7966 17.8545ZM66.7966 12.2116L66.6857 12.2719L66.6874 12.2748L66.7966 12.2116ZM64.9066 10.212L64.8395 10.3189L64.8406 10.3195L64.9066 10.212ZM59.4554 10.212L59.3905 10.1038L59.3894 10.1044L59.4554 10.212ZM57.538 12.2116L57.6472 12.2748L57.6478 12.2737L57.538 12.2116ZM57.538 17.8545L57.6478 17.7924L57.538 17.8545ZM59.4554 19.8542L59.3894 19.9618L59.3923 19.9634L59.4554 19.8542ZM67.7554 22.2099L67.6658 22.2995L67.6739 22.3063L67.7554 22.2099ZM67.4267 16.841L67.3034 16.8141L67.3005 16.8274V16.841H67.4267ZM67.9471 14.4578L67.9849 14.3374L67.8533 14.2962L67.8238 14.4309L67.9471 14.4578ZM69.7824 15.0331H69.9086V14.9404L69.8202 14.9126L69.7824 15.0331ZM69.4537 22.2099L69.5391 22.303L69.543 22.2991L69.4537 22.2099ZM61.866 22.522C60.4989 22.522 59.2799 22.1985 58.2055 21.5538L58.0757 21.7703C59.1927 22.4405 60.4573 22.7744 61.866 22.7744V22.522ZM58.2068 21.5546C57.13 20.8906 56.2775 19.9936 55.6486 18.8615L55.428 18.9841C56.0774 20.153 56.9598 21.0822 58.0744 21.7695L58.2068 21.5546ZM55.6486 18.8615C55.0209 17.7315 54.7058 16.4564 54.7058 15.0331H54.4534C54.4534 16.4951 54.7774 17.8131 55.428 18.9841L55.6486 18.8615ZM54.7058 15.0331C54.7058 13.5918 55.0298 12.3081 55.6753 11.1785L55.4561 11.0533C54.7867 12.2248 54.4534 13.5525 54.4534 15.0331H54.7058ZM55.6745 11.1798C56.3391 10.0482 57.2364 9.16006 58.3676 8.51365L58.2424 8.29451C57.0726 8.96293 56.1436 9.88269 55.4569 11.052L55.6745 11.1798ZM58.3689 8.5129C59.4984 7.84951 60.7726 7.51675 62.1947 7.51675V7.26435C60.7314 7.26435 59.4125 7.60728 58.2411 8.29526L58.3689 8.5129ZM62.1947 7.51675C63.5982 7.51675 64.8539 7.84937 65.965 8.51244L66.0943 8.29571C64.941 7.60742 63.64 7.26435 62.1947 7.26435V7.51675ZM65.967 8.51365C67.098 9.15989 67.9857 10.0476 68.6319 11.1785L68.8511 11.0533C68.1825 9.88327 67.2623 8.96311 66.0923 8.29451L65.967 8.51365ZM68.6327 11.1798C69.2962 12.3097 69.6382 13.5935 69.6562 15.0346L69.9086 15.0315C69.8901 13.5508 69.5382 12.2232 68.8503 11.052L68.6327 11.1798ZM69.726 14.9202L68.7946 15.3859L68.9075 15.6116L69.8389 15.1459L69.726 14.9202ZM68.7249 15.4987C68.7249 16.83 68.4193 18.0223 67.8104 19.0789L68.0291 19.205C68.662 18.1067 68.9773 16.8702 68.9773 15.4987H68.7249ZM67.8096 19.0803C67.2177 20.1386 66.4023 20.9809 65.3618 21.6088L65.4922 21.8249C66.5701 21.1744 67.4165 20.3002 68.0299 19.2036L67.8096 19.0803ZM65.3624 21.6085C64.3429 22.2166 63.1787 22.522 61.866 22.522V22.7744C63.2195 22.7744 64.4293 22.4589 65.4917 21.8252L65.3624 21.6085ZM62.1947 20.6926C63.2377 20.6926 64.1647 20.4502 64.9719 19.9621L64.8413 19.7462C64.0779 20.2077 63.197 20.4402 62.1947 20.4402V20.6926ZM64.9726 19.9617C65.7952 19.4569 66.4406 18.7739 66.9075 17.9148L66.6858 17.7942C66.2396 18.6151 65.625 19.2653 64.8406 19.7466L64.9726 19.9617ZM66.9065 17.9166C67.3929 17.0561 67.6351 16.094 67.6351 15.0331H67.3827C67.3827 16.054 67.15 16.9728 66.6868 17.7924L66.9065 17.9166ZM67.6351 15.0331C67.6351 13.9544 67.3931 12.9916 66.9059 12.1485L66.6874 12.2748C67.1498 13.0752 67.3827 13.9934 67.3827 15.0331H67.6351ZM66.9075 12.1514C66.4406 11.2922 65.7952 10.6092 64.9726 10.1044L64.8406 10.3195C65.625 10.8009 66.2396 11.451 66.6858 12.2719L66.9075 12.1514ZM64.9737 10.1051C64.1663 9.59814 63.2386 9.34619 62.1947 9.34619V9.59858C63.1961 9.59858 64.0763 9.8397 64.8395 10.3189L64.9737 10.1051ZM62.1947 9.34619C61.1686 9.34619 60.2329 9.59836 59.3905 10.1038L59.5204 10.3202C60.3216 9.83948 61.212 9.59858 62.1947 9.59858V9.34619ZM59.3894 10.1044C58.5672 10.609 57.9132 11.2913 57.4281 12.1495L57.6478 12.2737C58.1124 11.4519 58.7366 10.8011 59.5215 10.3195L59.3894 10.1044ZM57.4287 12.1485C56.9416 12.9916 56.6996 13.9544 56.6996 15.0331H56.952C56.952 13.9934 57.1848 13.0752 57.6472 12.2748L57.4287 12.1485ZM56.6996 15.0331C56.6996 16.094 56.9418 17.0561 57.4281 17.9166L57.6478 17.7924C57.1846 16.9728 56.952 16.054 56.952 15.0331H56.6996ZM57.4281 17.9166C57.9132 18.7748 58.5672 19.4572 59.3894 19.9617L59.5215 19.7466C58.7366 19.265 58.1124 18.6143 57.6478 17.7924L57.4281 17.9166ZM59.3923 19.9634C60.2344 20.45 61.1695 20.6926 62.1947 20.6926V20.4402C61.2111 20.4402 60.32 20.2079 59.5186 19.7449L59.3923 19.9634ZM68.6046 22.385C68.3038 22.385 68.0501 22.294 67.8369 22.1136L67.6739 22.3063C67.9354 22.5276 68.2478 22.6374 68.6046 22.6374V22.385ZM67.8446 22.1207C67.6521 21.9281 67.5529 21.6786 67.5529 21.3607H67.3005C67.3005 21.7368 67.4204 22.0534 67.6662 22.2991L67.8446 22.1207ZM67.5529 21.3607V16.841H67.3005V21.3607H67.5529ZM67.55 16.8679L68.0704 14.4848L67.8238 14.4309L67.3034 16.8141L67.55 16.8679ZM67.9094 14.5782L69.7447 15.1535L69.8202 14.9126L67.9849 14.3374L67.9094 14.5782ZM69.6562 15.0331V21.3607H69.9086V15.0331H69.6562ZM69.6562 21.3607C69.6562 21.6786 69.557 21.9281 69.3645 22.1207L69.543 22.2991C69.7887 22.0534 69.9086 21.7368 69.9086 21.3607H69.6562ZM69.3684 22.1169C69.1764 22.2929 68.9256 22.385 68.6046 22.385V22.6374C68.9775 22.6374 69.2927 22.5287 69.539 22.3029L69.3684 22.1169ZM77.6107 21.6621L77.546 21.7704L77.5473 21.7712L77.6107 21.6621ZM74.8988 18.9502L74.7893 19.0128L74.7905 19.0149L74.8988 18.9502ZM73.8853 15.0879H73.7591L73.7591 15.0895L73.8853 15.0879ZM74.1866 1.44637L74.0974 1.35714V1.35714L74.1866 1.44637ZM75.885 1.44637L75.7916 1.53197L75.7997 1.5394L75.885 1.44637ZM76.2137 10.1298H76.0875V10.5153L76.3155 10.2044L76.2137 10.1298ZM78.5695 8.15754L78.6267 8.27L78.6284 8.26913L78.5695 8.15754ZM85.5272 8.40408L85.4609 8.5115L85.4622 8.51229L85.5272 8.40408ZM88.1021 11.1159L87.991 11.1759L87.9917 11.1772L88.1021 11.1159ZM88.0473 18.9228L87.9384 18.8589L87.9377 18.8602L88.0473 18.9228ZM85.3354 21.6621L85.3988 21.7712L85.3993 21.7709L85.3354 21.6621ZM84.1849 19.8268L84.12 19.7185L84.1189 19.7192L84.1849 19.8268ZM86.1024 17.8545L85.9925 17.7924L85.9921 17.7932L86.1024 17.8545ZM86.1024 12.1842L85.9915 12.2445L85.9925 12.2463L86.1024 12.1842ZM84.1849 10.212L84.1189 10.3196L84.1218 10.3213L84.1849 10.212ZM78.7338 10.212L78.798 10.3206L78.7987 10.3202L78.7338 10.212ZM76.8437 12.1842L76.9546 12.2445L76.8437 12.1842ZM76.8437 17.8545L76.7328 17.9148L76.7334 17.9158L76.8437 17.8545ZM78.7338 19.8268L78.6678 19.9343L78.6689 19.935L78.7338 19.8268ZM81.4457 22.522C80.0415 22.522 78.7854 22.1982 77.6741 21.5529L77.5473 21.7712C78.7005 22.4408 80.001 22.7744 81.4457 22.7744V22.522ZM77.6754 21.5537C76.5611 20.8887 75.6722 19.9998 75.0072 18.8855L74.7905 19.0149C75.4769 20.1651 76.3959 21.084 77.546 21.7704L77.6754 21.5537ZM75.0084 18.8876C74.3624 17.7571 74.0295 16.4909 74.0115 15.0862L73.7591 15.0895C73.7777 16.5336 74.1204 17.8423 74.7893 19.0128L75.0084 18.8876ZM74.0115 15.0879V2.29554H73.7591V15.0879H74.0115ZM74.0115 2.29554C74.0115 1.95378 74.1049 1.70658 74.2759 1.53561L74.0974 1.35714C73.8666 1.58793 73.7591 1.90684 73.7591 2.29554H74.0115ZM74.2759 1.53561C74.4672 1.34433 74.725 1.24386 75.0632 1.24386V0.991465C74.6709 0.991465 74.3444 1.11014 74.0974 1.35714L74.2759 1.53561ZM75.0632 1.24386C75.3813 1.24386 75.619 1.343 75.792 1.53165L75.978 1.3611C75.7492 1.11146 75.4391 0.991465 75.0632 0.991465V1.24386ZM75.7997 1.5394C75.987 1.71106 76.0875 1.95697 76.0875 2.29554H76.3399C76.3399 1.90365 76.2213 1.58344 75.9703 1.35335L75.7997 1.5394ZM76.0875 2.29554V10.1298H76.3399V2.29554H76.0875ZM76.3155 10.2044C76.9057 9.39961 77.6753 8.75471 78.6267 8.26999L78.5122 8.0451C77.5279 8.54651 76.727 9.21645 76.1119 10.0552L76.3155 10.2044ZM78.6284 8.26913C79.5766 7.76819 80.6335 7.51675 81.8018 7.51675V7.26435C80.596 7.26435 79.498 7.52424 78.5105 8.04596L78.6284 8.26913ZM81.8018 7.51675C83.1682 7.51675 84.3867 7.84905 85.4609 8.51149L85.5934 8.29666C84.4762 7.60774 83.2112 7.26435 81.8018 7.26435V7.51675ZM85.4622 8.51229C86.538 9.15777 87.3806 10.0448 87.991 11.1759L88.2131 11.056C87.5817 9.88606 86.7077 8.96522 85.5921 8.29586L85.4622 8.51229ZM87.9917 11.1772C88.6195 12.3072 88.9346 13.5823 88.9346 15.0057H89.187C89.187 13.5437 88.8629 12.2256 88.2124 11.0547L87.9917 11.1772ZM88.9346 15.0057C88.9346 16.4463 88.6017 17.7296 87.9384 18.8589L88.1561 18.9867C88.8442 17.815 89.187 16.4869 89.187 15.0057H88.9346ZM87.9377 18.8602C87.2913 19.9914 86.4031 20.8886 85.2715 21.5532L85.3993 21.7709C86.5687 21.0841 87.4884 20.1552 88.1568 18.9854L87.9377 18.8602ZM85.272 21.5529C84.1612 22.1979 82.887 22.522 81.4457 22.522V22.7744C82.9262 22.7744 84.2451 22.441 85.3988 21.7712L85.272 21.5529ZM81.4457 20.6926C82.4896 20.6926 83.4259 20.4406 84.2509 19.9343L84.1189 19.7192C83.3369 20.1991 82.4471 20.4402 81.4457 20.4402V20.6926ZM84.2498 19.935C85.0902 19.4308 85.7452 18.7573 86.2127 17.9158L85.9921 17.7932C85.5465 18.5952 84.9232 19.2366 84.12 19.7185L84.2498 19.935ZM86.2123 17.9166C86.6988 17.0558 86.9408 16.0844 86.9408 15.0057H86.6884C86.6884 16.0453 86.4556 16.9731 85.9925 17.7924L86.2123 17.9166ZM86.9408 15.0057C86.9408 13.9448 86.6986 12.9826 86.2123 12.1221L85.9925 12.2463C86.4558 13.066 86.6884 13.9848 86.6884 15.0057H86.9408ZM86.2133 12.124C85.7457 11.2637 85.0901 10.5892 84.2481 10.1027L84.1218 10.3213C84.9233 10.7843 85.546 11.4247 85.9915 12.2445L86.2133 12.124ZM84.2509 10.1044C83.4259 9.59814 82.4896 9.34619 81.4457 9.34619V9.59858C82.4471 9.59858 83.3369 9.83969 84.1189 10.3195L84.2509 10.1044ZM81.4457 9.34619C80.4374 9.34619 79.5109 9.59858 78.6689 10.1038L78.7987 10.3202C79.6003 9.83925 80.4817 9.59858 81.4457 9.59858V9.34619ZM78.6696 10.1033C77.8459 10.59 77.2 11.2644 76.7328 12.124L76.9546 12.2445C77.4005 11.424 78.0146 10.7835 78.798 10.3206L78.6696 10.1033ZM76.7328 12.124C76.2654 12.9841 76.0327 13.9456 76.0327 15.0057H76.2851C76.2851 13.9839 76.509 13.0644 76.9546 12.2445L76.7328 12.124ZM76.0327 15.0057C76.0327 16.0836 76.2652 17.0543 76.7328 17.9148L76.9546 17.7942C76.5092 16.9746 76.2851 16.0461 76.2851 15.0057H76.0327ZM76.7334 17.9158C77.2005 18.7566 77.8458 19.4299 78.6678 19.9343L78.7998 19.7192C78.0147 19.2375 77.4 18.596 76.954 17.7932L76.7334 17.9158ZM78.6689 19.935C79.5109 20.4402 80.4374 20.6926 81.4457 20.6926V20.4402C80.4817 20.4402 79.6003 20.1995 78.7987 19.7185L78.6689 19.935Z" fill="#9A54BC" mask="url(#path-1-outside-1_1_1168)"/>
</g>
<defs>
<filter id="filter0_d_1_1168" x="0.536511" y="0.470756" width="89.1211" height="23.135" filterUnits="userSpaceOnUse" color-interpolation-filters="sRGB">
<feFlood flood-opacity="0" result="BackgroundImageFix"/>
<feColorMatrix in="SourceAlpha" type="matrix" values="0 0 0 0 0 0 0 0 0 0 0 0 0 0 0 0 0 0 127 0" result="hardAlpha"/>
<feOffset dy="0.223796"/>
<feGaussianBlur stdDeviation="0.298395"/>
<feComposite in2="hardAlpha" operator="out"/>
<feColorMatrix type="matrix" values="0 0 0 0 0.721569 0 0 0 0 0.847059 0 0 0 0 0.94902 0 0 0 0.25 0"/>
<feBlend mode="normal" in2="BackgroundImageFix" result="effect1_dropShadow_1_1168"/>
<feBlend mode="normal" in="SourceGraphic" in2="effect1_dropShadow_1_1168" result="shape"/>
</filter>
</defs>
</svg>
