<svg width="452" height="45" viewBox="0 0 452 45" fill="none" xmlns="http://www.w3.org/2000/svg">
<path d="M312.958 4.912C317.064 4.912 320.667 5.71467 323.766 7.32C326.902 8.92533 329.31 11.2213 330.99 14.208C332.707 17.1573 333.566 20.592 333.566 24.512C333.566 28.432 332.707 31.8667 330.99 34.816C329.31 37.728 326.902 39.9867 323.766 41.592C320.667 43.1973 317.064 44 312.958 44H299.294V4.912H312.958ZM312.678 37.336C316.784 37.336 319.958 36.216 322.198 33.976C324.438 31.736 325.558 28.5813 325.558 24.512C325.558 20.4427 324.438 17.2693 322.198 14.992C319.958 12.6773 316.784 11.52 312.678 11.52H307.134V37.336H312.678ZM368.274 27.816C368.274 28.936 368.2 29.944 368.05 30.84H345.37C345.557 33.08 346.341 34.8347 347.722 36.104C349.104 37.3733 350.802 38.008 352.818 38.008C355.73 38.008 357.802 36.7573 359.034 34.256H367.49C366.594 37.2427 364.877 39.7067 362.338 41.648C359.8 43.552 356.682 44.504 352.986 44.504C350 44.504 347.312 43.8507 344.922 42.544C342.57 41.2 340.722 39.3147 339.378 36.888C338.072 34.4613 337.418 31.6613 337.418 28.488C337.418 25.2773 338.072 22.4587 339.378 20.032C340.685 17.6053 342.514 15.7387 344.866 14.432C347.218 13.1253 349.925 12.472 352.986 12.472C355.936 12.472 358.568 13.1067 360.882 14.376C363.234 15.6453 365.045 17.456 366.314 19.808C367.621 22.1227 368.274 24.792 368.274 27.816ZM360.154 25.576C360.117 23.56 359.389 21.9547 357.97 20.76C356.552 19.528 354.816 18.912 352.762 18.912C350.821 18.912 349.178 19.5093 347.834 20.704C346.528 21.8613 345.725 23.4853 345.426 25.576H360.154ZM371.981 28.376C371.981 25.24 372.597 22.4587 373.829 20.032C375.098 17.6053 376.797 15.7387 378.925 14.432C381.09 13.1253 383.498 12.472 386.149 12.472C388.463 12.472 390.479 12.9387 392.197 13.872C393.951 14.8053 395.351 15.9813 396.397 17.4V12.976H404.293V44H396.397V39.464C395.389 40.92 393.989 42.1333 392.197 43.104C390.442 44.0373 388.407 44.504 386.093 44.504C383.479 44.504 381.09 43.832 378.925 42.488C376.797 41.144 375.098 39.2587 373.829 36.832C372.597 34.368 371.981 31.5493 371.981 28.376ZM396.397 28.488C396.397 26.584 396.023 24.96 395.277 23.616C394.53 22.2347 393.522 21.1893 392.253 20.48C390.983 19.7333 389.621 19.36 388.165 19.36C386.709 19.36 385.365 19.7147 384.133 20.424C382.901 21.1333 381.893 22.1787 381.109 23.56C380.362 24.904 379.989 26.5093 379.989 28.376C379.989 30.2427 380.362 31.8853 381.109 33.304C381.893 34.6853 382.901 35.7493 384.133 36.496C385.402 37.2427 386.746 37.616 388.165 37.616C389.621 37.616 390.983 37.2613 392.253 36.552C393.522 35.8053 394.53 34.76 395.277 33.416C396.023 32.0347 396.397 30.392 396.397 28.488ZM419.79 2.56V44H411.95V2.56H419.79ZM439.408 44.504C436.869 44.504 434.592 44.056 432.576 43.16C430.56 42.2267 428.955 40.976 427.76 39.408C426.603 37.84 425.968 36.104 425.856 34.2H433.752C433.901 35.3947 434.48 36.384 435.488 37.168C436.533 37.952 437.821 38.344 439.352 38.344C440.845 38.344 442.003 38.0453 442.824 37.448C443.683 36.8507 444.112 36.0853 444.112 35.152C444.112 34.144 443.589 33.3973 442.544 32.912C441.536 32.3893 439.912 31.8293 437.672 31.232C435.357 30.672 433.453 30.0933 431.96 29.496C430.504 28.8987 429.235 27.984 428.152 26.752C427.107 25.52 426.584 23.8587 426.584 21.768C426.584 20.0507 427.069 18.4827 428.04 17.064C429.048 15.6453 430.467 14.5253 432.296 13.704C434.163 12.8827 436.347 12.472 438.848 12.472C442.544 12.472 445.493 13.4053 447.696 15.272C449.899 17.1013 451.112 19.584 451.336 22.72H443.832C443.72 21.488 443.197 20.5173 442.264 19.808C441.368 19.0613 440.155 18.688 438.624 18.688C437.205 18.688 436.104 18.9493 435.32 19.472C434.573 19.9947 434.2 20.7227 434.2 21.656C434.2 22.7013 434.723 23.504 435.768 24.064C436.813 24.5867 438.437 25.128 440.64 25.688C442.88 26.248 444.728 26.8267 446.184 27.424C447.64 28.0213 448.891 28.9547 449.936 30.224C451.019 31.456 451.579 33.0987 451.616 35.152C451.616 36.944 451.112 38.5493 450.104 39.968C449.133 41.3867 447.715 42.5067 445.848 43.328C444.019 44.112 441.872 44.504 439.408 44.504Z" fill="black"/>
</svg>
