<svg width="57" height="27" viewBox="0 0 57 27" fill="none" xmlns="http://www.w3.org/2000/svg">
<path d="M5.066 19.4523C4.284 19.4523 3.58133 19.3163 2.958 19.0443C2.346 18.7609 1.86433 18.3756 1.513 17.8883C1.16167 17.3896 0.980333 16.8173 0.969 16.1713H2.618C2.67467 16.7266 2.90133 17.1969 3.298 17.5823C3.706 17.9563 4.29533 18.1433 5.066 18.1433C5.80267 18.1433 6.38067 17.9619 6.8 17.5993C7.23067 17.2253 7.446 16.7493 7.446 16.1713C7.446 15.7179 7.32133 15.3496 7.072 15.0663C6.82267 14.7829 6.511 14.5676 6.137 14.4203C5.763 14.2729 5.25867 14.1143 4.624 13.9443C3.842 13.7403 3.213 13.5363 2.737 13.3323C2.27233 13.1283 1.87 12.8109 1.53 12.3803C1.20133 11.9383 1.037 11.3489 1.037 10.6123C1.037 9.96625 1.20133 9.39392 1.53 8.89525C1.85867 8.39658 2.31767 8.01125 2.907 7.73925C3.50767 7.46725 4.19333 7.33125 4.964 7.33125C6.07467 7.33125 6.98133 7.60892 7.684 8.16425C8.398 8.71958 8.80033 9.45625 8.891 10.3743H7.191C7.13433 9.92092 6.89633 9.52425 6.477 9.18425C6.05767 8.83292 5.50233 8.65725 4.811 8.65725C4.165 8.65725 3.638 8.82725 3.23 9.16725C2.822 9.49592 2.618 9.96059 2.618 10.5613C2.618 10.9919 2.737 11.3433 2.975 11.6153C3.22433 11.8873 3.52467 12.0969 3.876 12.2443C4.23867 12.3803 4.743 12.5389 5.389 12.7203C6.171 12.9356 6.8 13.1509 7.276 13.3663C7.752 13.5703 8.16 13.8933 8.5 14.3353C8.84 14.7659 9.01 15.3553 9.01 16.1033C9.01 16.6813 8.857 17.2253 8.551 17.7353C8.245 18.2453 7.79167 18.6589 7.191 18.9763C6.59033 19.2936 5.882 19.4523 5.066 19.4523ZM19.1865 14.3183C19.1865 14.6129 19.1695 14.9246 19.1355 15.2533H11.6895C11.7462 16.1713 12.0579 16.8909 12.6245 17.4123C13.2025 17.9223 13.8995 18.1773 14.7155 18.1773C15.3842 18.1773 15.9395 18.0243 16.3815 17.7183C16.8349 17.4009 17.1522 16.9816 17.3335 16.4603H18.9995C18.7502 17.3556 18.2515 18.0866 17.5035 18.6533C16.7555 19.2086 15.8262 19.4863 14.7155 19.4863C13.8315 19.4863 13.0382 19.2879 12.3355 18.8913C11.6442 18.4946 11.1002 17.9336 10.7035 17.2083C10.3069 16.4716 10.1085 15.6216 10.1085 14.6583C10.1085 13.6949 10.3012 12.8506 10.6865 12.1253C11.0719 11.3999 11.6102 10.8446 12.3015 10.4593C13.0042 10.0626 13.8089 9.86425 14.7155 9.86425C15.5995 9.86425 16.3815 10.0569 17.0615 10.4423C17.7415 10.8276 18.2629 11.3603 18.6255 12.0403C18.9995 12.7089 19.1865 13.4683 19.1865 14.3183ZM17.5885 13.9953C17.5885 13.4059 17.4582 12.9016 17.1975 12.4823C16.9369 12.0516 16.5799 11.7286 16.1265 11.5133C15.6845 11.2866 15.1915 11.1733 14.6475 11.1733C13.8655 11.1733 13.1969 11.4226 12.6415 11.9213C12.0975 12.4199 11.7859 13.1113 11.7065 13.9953H17.5885ZM20.0505 14.6413C20.0505 13.6893 20.2432 12.8563 20.6285 12.1423C21.0139 11.4169 21.5409 10.8559 22.2095 10.4593C22.8895 10.0626 23.6432 9.86425 24.4705 9.86425C25.2865 9.86425 25.9949 10.0399 26.5955 10.3913C27.1962 10.7426 27.6439 11.1846 27.9385 11.7173V10.0173H29.5025V19.3333H27.9385V17.5993C27.6325 18.1433 27.1735 18.5966 26.5615 18.9593C25.9609 19.3106 25.2582 19.4863 24.4535 19.4863C23.6262 19.4863 22.8782 19.2823 22.2095 18.8743C21.5409 18.4663 21.0139 17.8939 20.6285 17.1573C20.2432 16.4206 20.0505 15.5819 20.0505 14.6413ZM27.9385 14.6583C27.9385 13.9556 27.7969 13.3436 27.5135 12.8223C27.2302 12.3009 26.8449 11.9043 26.3575 11.6323C25.8815 11.3489 25.3545 11.2073 24.7765 11.2073C24.1985 11.2073 23.6715 11.3433 23.1955 11.6153C22.7195 11.8873 22.3399 12.2839 22.0565 12.8053C21.7732 13.3266 21.6315 13.9386 21.6315 14.6413C21.6315 15.3553 21.7732 15.9786 22.0565 16.5113C22.3399 17.0326 22.7195 17.4349 23.1955 17.7183C23.6715 17.9903 24.1985 18.1263 24.7765 18.1263C25.3545 18.1263 25.8815 17.9903 26.3575 17.7183C26.8449 17.4349 27.2302 17.0326 27.5135 16.5113C27.7969 15.9786 27.9385 15.3609 27.9385 14.6583ZM33.0638 11.5303C33.3358 10.9976 33.7211 10.5839 34.2198 10.2893C34.7298 9.99458 35.3475 9.84725 36.0728 9.84725V11.4453H35.6648C33.9308 11.4453 33.0638 12.3859 33.0638 14.2673V19.3333H31.5168V10.0173H33.0638V11.5303ZM36.6806 14.6583C36.6806 13.6949 36.8733 12.8563 37.2586 12.1423C37.6439 11.4169 38.1766 10.8559 38.8566 10.4593C39.5479 10.0626 40.3356 9.86425 41.2196 9.86425C42.3643 9.86425 43.3049 10.1419 44.0416 10.6973C44.7896 11.2526 45.2826 12.0233 45.5206 13.0093H43.8546C43.6959 12.4426 43.3843 11.9949 42.9196 11.6663C42.4663 11.3376 41.8996 11.1733 41.2196 11.1733C40.3356 11.1733 39.6216 11.4793 39.0776 12.0913C38.5336 12.6919 38.2616 13.5476 38.2616 14.6583C38.2616 15.7803 38.5336 16.6473 39.0776 17.2593C39.6216 17.8713 40.3356 18.1773 41.2196 18.1773C41.8996 18.1773 42.4663 18.0186 42.9196 17.7013C43.3729 17.3839 43.6846 16.9306 43.8546 16.3413H45.5206C45.2713 17.2933 44.7726 18.0583 44.0246 18.6363C43.2766 19.2029 42.3416 19.4863 41.2196 19.4863C40.3356 19.4863 39.5479 19.2879 38.8566 18.8913C38.1766 18.4946 37.6439 17.9336 37.2586 17.2083C36.8733 16.4829 36.6806 15.6329 36.6806 14.6583ZM51.6088 9.84725C52.3114 9.84725 52.9461 10.0003 53.5128 10.3063C54.0794 10.6009 54.5214 11.0486 54.8388 11.6493C55.1674 12.2499 55.3318 12.9809 55.3318 13.8423V19.3333H53.8018V14.0633C53.8018 13.1339 53.5694 12.4256 53.1048 11.9383C52.6401 11.4396 52.0054 11.1903 51.2008 11.1903C50.3848 11.1903 49.7331 11.4453 49.2458 11.9553C48.7698 12.4653 48.5318 13.2076 48.5318 14.1823V19.3333H46.9848V6.75325H48.5318V11.3433C48.8378 10.8673 49.2571 10.4989 49.7898 10.2383C50.3338 9.97758 50.9401 9.84725 51.6088 9.84725Z" fill="#979797"/>
</svg>
