<svg width="484" height="24" viewBox="0 0 484 24" fill="none" xmlns="http://www.w3.org/2000/svg">
<path d="M14.938 12.416C14.938 11.328 15.1833 10.352 15.674 9.488C16.1647 8.61333 16.8313 7.93067 17.674 7.44C18.5273 6.94933 19.4713 6.704 20.506 6.704C21.722 6.704 22.7833 6.99733 23.69 7.584C24.5967 8.17067 25.258 9.00267 25.674 10.08H23.93C23.6207 9.408 23.1727 8.89067 22.586 8.528C22.01 8.16533 21.3167 7.984 20.506 7.984C19.7273 7.984 19.0287 8.16533 18.41 8.528C17.7913 8.89067 17.306 9.408 16.954 10.08C16.602 10.7413 16.426 11.52 16.426 12.416C16.426 13.3013 16.602 14.08 16.954 14.752C17.306 15.4133 17.7913 15.9253 18.41 16.288C19.0287 16.6507 19.7273 16.832 20.506 16.832C21.3167 16.832 22.01 16.656 22.586 16.304C23.1727 15.9413 23.6207 15.424 23.93 14.752H25.674C25.258 15.8187 24.5967 16.6453 23.69 17.232C22.7833 17.808 21.722 18.096 20.506 18.096C19.4713 18.096 18.5273 17.856 17.674 17.376C16.8313 16.8853 16.1647 16.208 15.674 15.344C15.1833 14.48 14.938 13.504 14.938 12.416ZM34.8974 18.112C33.8627 18.112 32.9187 17.872 32.0654 17.392C31.212 16.9013 30.5347 16.224 30.0334 15.36C29.5427 14.4853 29.2974 13.504 29.2974 12.416C29.2974 11.328 29.5427 10.352 30.0334 9.488C30.5347 8.61333 31.212 7.936 32.0654 7.456C32.9187 6.96533 33.8627 6.72 34.8974 6.72C35.9427 6.72 36.892 6.96533 37.7454 7.456C38.5987 7.936 39.2707 8.608 39.7614 9.472C40.252 10.336 40.4974 11.3173 40.4974 12.416C40.4974 13.5147 40.252 14.496 39.7614 15.36C39.2707 16.224 38.5987 16.9013 37.7454 17.392C36.892 17.872 35.9427 18.112 34.8974 18.112ZM34.8974 16.848C35.676 16.848 36.3747 16.6667 36.9934 16.304C37.6227 15.9413 38.1134 15.424 38.4654 14.752C38.828 14.08 39.0094 13.3013 39.0094 12.416C39.0094 11.52 38.828 10.7413 38.4654 10.08C38.1134 9.408 37.628 8.89067 37.0094 8.528C36.3907 8.16533 35.6867 7.984 34.8974 7.984C34.108 7.984 33.404 8.16533 32.7854 8.528C32.1667 8.89067 31.676 9.408 31.3134 10.08C30.9614 10.7413 30.7854 11.52 30.7854 12.416C30.7854 13.3013 30.9614 14.08 31.3134 14.752C31.676 15.424 32.1667 15.9413 32.7854 16.304C33.4147 16.6667 34.1187 16.848 34.8974 16.848ZM51.8755 10.112C51.8755 11.04 51.5555 11.8133 50.9155 12.432C50.2862 13.04 49.3208 13.344 48.0195 13.344H45.8755V18H44.4195V6.848H48.0195C49.2782 6.848 50.2328 7.152 50.8835 7.76C51.5448 8.368 51.8755 9.152 51.8755 10.112ZM48.0195 12.144C48.8302 12.144 49.4275 11.968 49.8115 11.616C50.1955 11.264 50.3875 10.7627 50.3875 10.112C50.3875 8.736 49.5982 8.048 48.0195 8.048H45.8755V12.144H48.0195ZM63.4931 6.848L59.8611 13.792V18H58.4051V13.792L54.7571 6.848H56.3731L59.1251 12.496L61.8771 6.848H63.4931ZM72.9009 18L70.2449 13.44H68.4849V18H67.0289V6.848H70.6289C71.4715 6.848 72.1809 6.992 72.7569 7.28C73.3435 7.568 73.7809 7.95733 74.0689 8.448C74.3569 8.93867 74.5009 9.49867 74.5009 10.128C74.5009 10.896 74.2769 11.5733 73.8289 12.16C73.3915 12.7467 72.7302 13.136 71.8449 13.328L74.6449 18H72.9009ZM68.4849 12.272H70.6289C71.4182 12.272 72.0102 12.08 72.4049 11.696C72.7995 11.3013 72.9969 10.7787 72.9969 10.128C72.9969 9.46667 72.7995 8.95467 72.4049 8.592C72.0209 8.22933 71.4289 8.048 70.6289 8.048H68.4849V12.272ZM80.2193 6.848V18H78.7633V6.848H80.2193ZM93.1488 10.08C92.8394 9.42933 92.3914 8.928 91.8048 8.576C91.2181 8.21333 90.5354 8.032 89.7568 8.032C88.9781 8.032 88.2741 8.21333 87.6448 8.576C87.0261 8.928 86.5354 9.44 86.1728 10.112C85.8208 10.7733 85.6448 11.5413 85.6448 12.416C85.6448 13.2907 85.8208 14.0587 86.1728 14.72C86.5354 15.3813 87.0261 15.8933 87.6448 16.256C88.2741 16.608 88.9781 16.784 89.7568 16.784C90.8448 16.784 91.7408 16.4587 92.4448 15.808C93.1488 15.1573 93.5594 14.2773 93.6768 13.168H89.2288V11.984H95.2288V13.104C95.1434 14.0213 94.8554 14.864 94.3648 15.632C93.8741 16.3893 93.2288 16.992 92.4288 17.44C91.6288 17.8773 90.7381 18.096 89.7568 18.096C88.7221 18.096 87.7781 17.856 86.9248 17.376C86.0714 16.8853 85.3941 16.208 84.8928 15.344C84.4021 14.48 84.1568 13.504 84.1568 12.416C84.1568 11.328 84.4021 10.352 84.8928 9.488C85.3941 8.61333 86.0714 7.936 86.9248 7.456C87.7781 6.96533 88.7221 6.72 89.7568 6.72C90.9408 6.72 91.9861 7.01333 92.8928 7.6C93.8101 8.18667 94.4768 9.01333 94.8928 10.08H93.1488ZM107.746 6.848V18H106.29V12.944H100.61V18H99.1539V6.848H100.61V11.744H106.29V6.848H107.746ZM119.096 6.848V8.032H116.056V18H114.6V8.032H111.544V6.848H119.096ZM137.602 10.08C137.293 9.42933 136.845 8.928 136.258 8.576C135.671 8.21333 134.989 8.032 134.21 8.032C133.431 8.032 132.727 8.21333 132.098 8.576C131.479 8.928 130.989 9.44 130.626 10.112C130.274 10.7733 130.098 11.5413 130.098 12.416C130.098 13.2907 130.274 14.0587 130.626 14.72C130.989 15.3813 131.479 15.8933 132.098 16.256C132.727 16.608 133.431 16.784 134.21 16.784C135.298 16.784 136.194 16.4587 136.898 15.808C137.602 15.1573 138.013 14.2773 138.13 13.168H133.682V11.984H139.682V13.104C139.597 14.0213 139.309 14.864 138.818 15.632C138.327 16.3893 137.682 16.992 136.882 17.44C136.082 17.8773 135.191 18.096 134.21 18.096C133.175 18.096 132.231 17.856 131.378 17.376C130.525 16.8853 129.847 16.208 129.346 15.344C128.855 14.48 128.61 13.504 128.61 12.416C128.61 11.328 128.855 10.352 129.346 9.488C129.847 8.61333 130.525 7.936 131.378 7.456C132.231 6.96533 133.175 6.72 134.21 6.72C135.394 6.72 136.439 7.01333 137.346 7.6C138.263 8.18667 138.93 9.01333 139.346 10.08H137.602ZM149.479 18L146.823 13.44H145.063V18H143.607V6.848H147.207C148.05 6.848 148.759 6.992 149.335 7.28C149.922 7.568 150.359 7.95733 150.647 8.448C150.935 8.93867 151.079 9.49867 151.079 10.128C151.079 10.896 150.855 11.5733 150.407 12.16C149.97 12.7467 149.308 13.136 148.423 13.328L151.223 18H149.479ZM145.063 12.272H147.207C147.996 12.272 148.588 12.08 148.983 11.696C149.378 11.3013 149.575 10.7787 149.575 10.128C149.575 9.46667 149.378 8.95467 148.983 8.592C148.599 8.22933 148.007 8.048 147.207 8.048H145.063V12.272ZM156.797 8.032V11.76H160.861V12.96H156.797V16.8H161.341V18H155.341V6.832H161.341V8.032H156.797ZM167.001 8.032V11.76H171.065V12.96H167.001V16.8H171.545V18H165.545V6.832H171.545V8.032H167.001ZM184.516 18H183.06L177.204 9.12V18H175.748V6.832H177.204L183.06 15.696V6.832H184.516V18ZM202.127 6.848V8.032H199.087V18H197.631V8.032H194.575V6.848H202.127ZM214.512 6.848V18H213.056V12.944H207.376V18H205.92V6.848H207.376V11.744H213.056V6.848H214.512ZM220.422 6.848V13.904C220.422 14.896 220.662 15.632 221.142 16.112C221.632 16.592 222.31 16.832 223.174 16.832C224.027 16.832 224.694 16.592 225.174 16.112C225.664 15.632 225.91 14.896 225.91 13.904V6.848H227.366V13.888C227.366 14.816 227.179 15.6 226.806 16.24C226.432 16.8693 225.926 17.3387 225.286 17.648C224.656 17.9573 223.947 18.112 223.158 18.112C222.368 18.112 221.654 17.9573 221.014 17.648C220.384 17.3387 219.883 16.8693 219.51 16.24C219.147 15.6 218.966 14.816 218.966 13.888V6.848H220.422ZM243.107 6.928V18H241.651V9.744L237.971 18H236.947L233.251 9.728V18H231.795V6.928H233.363L237.459 16.08L241.555 6.928H243.107ZM253.16 12.256C253.565 12.32 253.933 12.4853 254.264 12.752C254.605 13.0187 254.872 13.3493 255.064 13.744C255.266 14.1387 255.368 14.56 255.368 15.008C255.368 15.5733 255.224 16.0853 254.936 16.544C254.648 16.992 254.226 17.3493 253.672 17.616C253.128 17.872 252.482 18 251.736 18H247.576V6.848H251.576C252.333 6.848 252.978 6.976 253.512 7.232C254.045 7.47733 254.445 7.81333 254.712 8.24C254.978 8.66667 255.112 9.14667 255.112 9.68C255.112 10.3413 254.93 10.8907 254.568 11.328C254.216 11.7547 253.746 12.064 253.16 12.256ZM249.032 11.664H251.48C252.162 11.664 252.69 11.504 253.064 11.184C253.437 10.864 253.624 10.4213 253.624 9.856C253.624 9.29067 253.437 8.848 253.064 8.528C252.69 8.208 252.152 8.048 251.448 8.048H249.032V11.664ZM251.608 16.8C252.333 16.8 252.898 16.6293 253.304 16.288C253.709 15.9467 253.912 15.472 253.912 14.864C253.912 14.2453 253.698 13.76 253.272 13.408C252.845 13.0453 252.274 12.864 251.56 12.864H249.032V16.8H251.608ZM259.852 18.096C259.575 18.096 259.34 18 259.148 17.808C258.956 17.616 258.86 17.3813 258.86 17.104C258.86 16.8267 258.956 16.592 259.148 16.4C259.34 16.208 259.575 16.112 259.852 16.112C260.119 16.112 260.343 16.208 260.524 16.4C260.716 16.592 260.812 16.8267 260.812 17.104C260.812 17.3813 260.716 17.616 260.524 17.808C260.343 18 260.119 18.096 259.852 18.096ZM277.605 15.52H272.741L271.845 18H270.309L274.341 6.912H276.021L280.037 18H278.501L277.605 15.52ZM277.189 14.336L275.173 8.704L273.157 14.336H277.189ZM285.251 16.816H289.155V18H283.795V6.848H285.251V16.816ZM294.157 16.816H298.061V18H292.701V6.848H294.157V16.816ZM313.745 18L311.089 13.44H309.329V18H307.873V6.848H311.473C312.315 6.848 313.025 6.992 313.601 7.28C314.187 7.568 314.625 7.95733 314.913 8.448C315.201 8.93867 315.345 9.49867 315.345 10.128C315.345 10.896 315.121 11.5733 314.673 12.16C314.235 12.7467 313.574 13.136 312.689 13.328L315.489 18H313.745ZM309.329 12.272H311.473C312.262 12.272 312.854 12.08 313.249 11.696C313.643 11.3013 313.841 10.7787 313.841 10.128C313.841 9.46667 313.643 8.95467 313.249 8.592C312.865 8.22933 312.273 8.048 311.473 8.048H309.329V12.272ZM321.063 6.848V18H319.607V6.848H321.063ZM333.993 10.08C333.683 9.42933 333.235 8.928 332.649 8.576C332.062 8.21333 331.379 8.032 330.601 8.032C329.822 8.032 329.118 8.21333 328.489 8.576C327.87 8.928 327.379 9.44 327.017 10.112C326.665 10.7733 326.489 11.5413 326.489 12.416C326.489 13.2907 326.665 14.0587 327.017 14.72C327.379 15.3813 327.87 15.8933 328.489 16.256C329.118 16.608 329.822 16.784 330.601 16.784C331.689 16.784 332.585 16.4587 333.289 15.808C333.993 15.1573 334.403 14.2773 334.521 13.168H330.073V11.984H336.073V13.104C335.987 14.0213 335.699 14.864 335.209 15.632C334.718 16.3893 334.073 16.992 333.273 17.44C332.473 17.8773 331.582 18.096 330.601 18.096C329.566 18.096 328.622 17.856 327.769 17.376C326.915 16.8853 326.238 16.208 325.737 15.344C325.246 14.48 325.001 13.504 325.001 12.416C325.001 11.328 325.246 10.352 325.737 9.488C326.238 8.61333 326.915 7.936 327.769 7.456C328.622 6.96533 329.566 6.72 330.601 6.72C331.785 6.72 332.83 7.01333 333.737 7.6C334.654 8.18667 335.321 9.01333 335.737 10.08H333.993ZM348.59 6.848V18H347.134V12.944H341.454V18H339.998V6.848H341.454V11.744H347.134V6.848H348.59ZM359.94 6.848V8.032H356.9V18H355.444V8.032H352.388V6.848H359.94ZM367.268 18.112C366.532 18.112 365.871 17.984 365.284 17.728C364.708 17.4613 364.255 17.0987 363.924 16.64C363.593 16.1707 363.423 15.632 363.412 15.024H364.964C365.017 15.5467 365.231 15.9893 365.604 16.352C365.988 16.704 366.543 16.88 367.268 16.88C367.961 16.88 368.505 16.7093 368.9 16.368C369.305 16.016 369.508 15.568 369.508 15.024C369.508 14.5973 369.391 14.2507 369.156 13.984C368.921 13.7173 368.628 13.5147 368.276 13.376C367.924 13.2373 367.449 13.088 366.852 12.928C366.116 12.736 365.524 12.544 365.076 12.352C364.639 12.16 364.26 11.8613 363.94 11.456C363.631 11.04 363.476 10.4853 363.476 9.792C363.476 9.184 363.631 8.64533 363.94 8.176C364.249 7.70667 364.681 7.344 365.236 7.088C365.801 6.832 366.447 6.704 367.172 6.704C368.217 6.704 369.071 6.96533 369.732 7.488C370.404 8.01067 370.783 8.704 370.868 9.568H369.268C369.215 9.14133 368.991 8.768 368.596 8.448C368.201 8.11733 367.679 7.952 367.028 7.952C366.42 7.952 365.924 8.112 365.54 8.432C365.156 8.74133 364.964 9.17867 364.964 9.744C364.964 10.1493 365.076 10.48 365.3 10.736C365.535 10.992 365.817 11.1893 366.148 11.328C366.489 11.456 366.964 11.6053 367.572 11.776C368.308 11.9787 368.9 12.1813 369.348 12.384C369.796 12.576 370.18 12.88 370.5 13.296C370.82 13.7013 370.98 14.256 370.98 14.96C370.98 15.504 370.836 16.016 370.548 16.496C370.26 16.976 369.833 17.3653 369.268 17.664C368.703 17.9627 368.036 18.112 367.268 18.112ZM387.26 18L384.604 13.44H382.844V18H381.388V6.848H384.988C385.831 6.848 386.54 6.992 387.116 7.28C387.703 7.568 388.14 7.95733 388.428 8.448C388.716 8.93867 388.86 9.49867 388.86 10.128C388.86 10.896 388.636 11.5733 388.188 12.16C387.751 12.7467 387.09 13.136 386.204 13.328L389.004 18H387.26ZM382.844 12.272H384.988C385.778 12.272 386.37 12.08 386.764 11.696C387.159 11.3013 387.356 10.7787 387.356 10.128C387.356 9.46667 387.159 8.95467 386.764 8.592C386.38 8.22933 385.788 8.048 384.988 8.048H382.844V12.272ZM394.579 8.032V11.76H398.643V12.96H394.579V16.8H399.123V18H393.123V6.832H399.123V8.032H394.579ZM406.862 18.112C406.126 18.112 405.464 17.984 404.878 17.728C404.302 17.4613 403.848 17.0987 403.518 16.64C403.187 16.1707 403.016 15.632 403.006 15.024H404.558C404.611 15.5467 404.824 15.9893 405.198 16.352C405.582 16.704 406.136 16.88 406.862 16.88C407.555 16.88 408.099 16.7093 408.494 16.368C408.899 16.016 409.102 15.568 409.102 15.024C409.102 14.5973 408.984 14.2507 408.75 13.984C408.515 13.7173 408.222 13.5147 407.87 13.376C407.518 13.2373 407.043 13.088 406.446 12.928C405.71 12.736 405.118 12.544 404.67 12.352C404.232 12.16 403.854 11.8613 403.534 11.456C403.224 11.04 403.07 10.4853 403.07 9.792C403.07 9.184 403.224 8.64533 403.534 8.176C403.843 7.70667 404.275 7.344 404.83 7.088C405.395 6.832 406.04 6.704 406.766 6.704C407.811 6.704 408.664 6.96533 409.326 7.488C409.998 8.01067 410.376 8.704 410.462 9.568H408.862C408.808 9.14133 408.584 8.768 408.19 8.448C407.795 8.11733 407.272 7.952 406.622 7.952C406.014 7.952 405.518 8.112 405.134 8.432C404.75 8.74133 404.558 9.17867 404.558 9.744C404.558 10.1493 404.67 10.48 404.894 10.736C405.128 10.992 405.411 11.1893 405.742 11.328C406.083 11.456 406.558 11.6053 407.166 11.776C407.902 11.9787 408.494 12.1813 408.942 12.384C409.39 12.576 409.774 12.88 410.094 13.296C410.414 13.7013 410.574 14.256 410.574 14.96C410.574 15.504 410.43 16.016 410.142 16.496C409.854 16.976 409.427 17.3653 408.862 17.664C408.296 17.9627 407.63 18.112 406.862 18.112ZM416.172 8.032V11.76H420.236V12.96H416.172V16.8H420.716V18H414.716V6.832H420.716V8.032H416.172ZM430.792 18L428.136 13.44H426.376V18H424.92V6.848H428.52C429.362 6.848 430.072 6.992 430.648 7.28C431.234 7.568 431.672 7.95733 431.96 8.448C432.248 8.93867 432.392 9.49867 432.392 10.128C432.392 10.896 432.168 11.5733 431.72 12.16C431.282 12.7467 430.621 13.136 429.736 13.328L432.536 18H430.792ZM426.376 12.272H428.52C429.309 12.272 429.901 12.08 430.296 11.696C430.69 11.3013 430.888 10.7787 430.888 10.128C430.888 9.46667 430.69 8.95467 430.296 8.592C429.912 8.22933 429.32 8.048 428.52 8.048H426.376V12.272ZM445.87 6.848L441.662 18H439.982L435.774 6.848H437.326L440.83 16.464L444.334 6.848H445.87ZM450.922 8.032V11.76H454.986V12.96H450.922V16.8H455.466V18H449.466V6.832H455.466V8.032H450.922ZM463.141 6.848C464.358 6.848 465.408 7.07733 466.294 7.536C467.19 7.984 467.872 8.62933 468.342 9.472C468.822 10.3147 469.062 11.3067 469.062 12.448C469.062 13.5893 468.822 14.5813 468.342 15.424C467.872 16.256 467.19 16.896 466.294 17.344C465.408 17.7813 464.358 18 463.141 18H459.67V6.848H463.141ZM463.141 16.8C464.582 16.8 465.68 16.4213 466.438 15.664C467.195 14.896 467.574 13.824 467.574 12.448C467.574 11.0613 467.19 9.97867 466.422 9.2C465.664 8.42133 464.571 8.032 463.141 8.032H461.126V16.8H463.141Z" fill="#E8EDDE"/>
</svg>
