<svg width="1228" height="131" viewBox="0 0 1228 131" fill="none" xmlns="http://www.w3.org/2000/svg">
<mask id="path-1-inside-1_314_3251" fill="white">
<path d="M0 0H1228V131H0V0Z"/>
</mask>
<path d="M1228 130H0V132H1228V130Z" fill="black" mask="url(#path-1-inside-1_314_3251)"/>
<path d="M169.86 58.512C170.868 57.0187 172.25 55.8053 174.004 54.872C175.796 53.9387 177.831 53.472 180.108 53.472C182.759 53.472 185.148 54.1253 187.276 55.432C189.442 56.7387 191.14 58.6053 192.372 61.032C193.642 63.4213 194.276 66.2027 194.276 69.376C194.276 72.5493 193.642 75.368 192.372 77.832C191.14 80.2587 189.442 82.144 187.276 83.488C185.148 84.832 182.759 85.504 180.108 85.504C177.794 85.504 175.759 85.056 174.004 84.16C172.287 83.2267 170.906 82.032 169.86 80.576V85H162.02V43.56H169.86V58.512ZM186.268 69.376C186.268 67.5093 185.876 65.904 185.092 64.56C184.346 63.1787 183.338 62.1333 182.068 61.424C180.836 60.7147 179.492 60.36 178.036 60.36C176.618 60.36 175.274 60.7333 174.004 61.48C172.772 62.1893 171.764 63.2347 170.98 64.616C170.234 65.9973 169.86 67.6213 169.86 69.488C169.86 71.3547 170.234 72.9787 170.98 74.36C171.764 75.7413 172.772 76.8053 174.004 77.552C175.274 78.2613 176.618 78.616 178.036 78.616C179.492 78.616 180.836 78.2427 182.068 77.496C183.338 76.7493 184.346 75.6853 185.092 74.304C185.876 72.9227 186.268 71.28 186.268 69.376ZM229.653 53.976L210.445 99.672H202.101L208.821 84.216L196.389 53.976H205.181L213.189 75.648L221.309 53.976H229.653ZM245.319 65.4C245.319 61.5547 246.178 58.12 247.895 55.096C249.65 52.0347 252.021 49.664 255.007 47.984C258.031 46.2667 261.41 45.408 265.143 45.408C269.511 45.408 273.338 46.528 276.623 48.768C279.909 51.008 282.205 54.1067 283.511 58.064H274.495C273.599 56.1973 272.33 54.7973 270.687 53.864C269.082 52.9307 267.215 52.464 265.087 52.464C262.81 52.464 260.775 53.0053 258.983 54.088C257.229 55.1333 255.847 56.6267 254.839 58.568C253.869 60.5093 253.383 62.7867 253.383 65.4C253.383 67.976 253.869 70.2533 254.839 72.232C255.847 74.1733 257.229 75.6853 258.983 76.768C260.775 77.8133 262.81 78.336 265.087 78.336C267.215 78.336 269.082 77.8693 270.687 76.936C272.33 75.9653 273.599 74.5467 274.495 72.68H283.511C282.205 76.6747 279.909 79.792 276.623 82.032C273.375 84.2347 269.549 85.336 265.143 85.336C261.41 85.336 258.031 84.496 255.007 82.816C252.021 81.0987 249.65 78.728 247.895 75.704C246.178 72.68 245.319 69.2453 245.319 65.4ZM288.192 69.376C288.192 66.24 288.808 63.4587 290.04 61.032C291.309 58.6053 293.008 56.7387 295.136 55.432C297.301 54.1253 299.709 53.472 302.36 53.472C304.674 53.472 306.69 53.9387 308.408 54.872C310.162 55.8053 311.562 56.9813 312.608 58.4V53.976H320.504V85H312.608V80.464C311.6 81.92 310.2 83.1333 308.408 84.104C306.653 85.0373 304.618 85.504 302.304 85.504C299.69 85.504 297.301 84.832 295.136 83.488C293.008 82.144 291.309 80.2587 290.04 77.832C288.808 75.368 288.192 72.5493 288.192 69.376ZM312.608 69.488C312.608 67.584 312.234 65.96 311.488 64.616C310.741 63.2347 309.733 62.1893 308.464 61.48C307.194 60.7333 305.832 60.36 304.376 60.36C302.92 60.36 301.576 60.7147 300.344 61.424C299.112 62.1333 298.104 63.1787 297.32 64.56C296.573 65.904 296.2 67.5093 296.2 69.376C296.2 71.2427 296.573 72.8853 297.32 74.304C298.104 75.6853 299.112 76.7493 300.344 77.496C301.613 78.2427 302.957 78.616 304.376 78.616C305.832 78.616 307.194 78.2613 308.464 77.552C309.733 76.8053 310.741 75.76 311.488 74.416C312.234 73.0347 312.608 71.392 312.608 69.488ZM337.289 60.416V75.424C337.289 76.4693 337.532 77.2347 338.017 77.72C338.54 78.168 339.398 78.392 340.593 78.392H344.233V85H339.305C332.697 85 329.393 81.7893 329.393 75.368V60.416H325.697V53.976H329.393V46.304H337.289V53.976H344.233V60.416H337.289ZM378.712 68.816C378.712 69.936 378.637 70.944 378.488 71.84H355.808C355.994 74.08 356.778 75.8347 358.16 77.104C359.541 78.3733 361.24 79.008 363.256 79.008C366.168 79.008 368.24 77.7573 369.472 75.256H377.928C377.032 78.2427 375.314 80.7067 372.776 82.648C370.237 84.552 367.12 85.504 363.424 85.504C360.437 85.504 357.749 84.8507 355.36 83.544C353.008 82.2 351.16 80.3147 349.816 77.888C348.509 75.4613 347.856 72.6613 347.856 69.488C347.856 66.2773 348.509 63.4587 349.816 61.032C351.122 58.6053 352.952 56.7387 355.304 55.432C357.656 54.1253 360.362 53.472 363.424 53.472C366.373 53.472 369.005 54.1067 371.32 55.376C373.672 56.6453 375.482 58.456 376.752 60.808C378.058 63.1227 378.712 65.792 378.712 68.816ZM370.592 66.576C370.554 64.56 369.826 62.9547 368.408 61.76C366.989 60.528 365.253 59.912 363.2 59.912C361.258 59.912 359.616 60.5093 358.272 61.704C356.965 62.8613 356.162 64.4853 355.864 66.576H370.592ZM396.586 53.472C398.901 53.472 400.936 53.9387 402.69 54.872C404.445 55.768 405.826 56.944 406.834 58.4V53.976H414.73V85.224C414.73 88.0987 414.152 90.656 412.994 92.896C411.837 95.1733 410.101 96.9653 407.786 98.272C405.472 99.616 402.672 100.288 399.386 100.288C394.981 100.288 391.36 99.2613 388.522 97.208C385.722 95.1547 384.136 92.3547 383.762 88.808H391.546C391.957 90.2267 392.834 91.3467 394.178 92.168C395.56 93.0267 397.221 93.456 399.162 93.456C401.44 93.456 403.288 92.7653 404.706 91.384C406.125 90.04 406.834 87.9867 406.834 85.224V80.408C405.826 81.864 404.426 83.0773 402.634 84.048C400.88 85.0187 398.864 85.504 396.586 85.504C393.973 85.504 391.584 84.832 389.418 83.488C387.253 82.144 385.536 80.2587 384.266 77.832C383.034 75.368 382.418 72.5493 382.418 69.376C382.418 66.24 383.034 63.4587 384.266 61.032C385.536 58.6053 387.234 56.7387 389.362 55.432C391.528 54.1253 393.936 53.472 396.586 53.472ZM406.834 69.488C406.834 67.584 406.461 65.96 405.714 64.616C404.968 63.2347 403.96 62.1893 402.69 61.48C401.421 60.7333 400.058 60.36 398.602 60.36C397.146 60.36 395.802 60.7147 394.57 61.424C393.338 62.1333 392.33 63.1787 391.546 64.56C390.8 65.904 390.426 67.5093 390.426 69.376C390.426 71.2427 390.8 72.8853 391.546 74.304C392.33 75.6853 393.338 76.7493 394.57 77.496C395.84 78.2427 397.184 78.616 398.602 78.616C400.058 78.616 401.421 78.2613 402.69 77.552C403.96 76.8053 404.968 75.76 405.714 74.416C406.461 73.0347 406.834 71.392 406.834 69.488ZM436.163 85.504C433.177 85.504 430.489 84.8507 428.099 83.544C425.71 82.2 423.825 80.3147 422.443 77.888C421.099 75.4613 420.427 72.6613 420.427 69.488C420.427 66.3147 421.118 63.5147 422.499 61.088C423.918 58.6613 425.841 56.7947 428.267 55.488C430.694 54.144 433.401 53.472 436.387 53.472C439.374 53.472 442.081 54.144 444.507 55.488C446.934 56.7947 448.838 58.6613 450.219 61.088C451.638 63.5147 452.347 66.3147 452.347 69.488C452.347 72.6613 451.619 75.4613 450.163 77.888C448.745 80.3147 446.803 82.2 444.339 83.544C441.913 84.8507 439.187 85.504 436.163 85.504ZM436.163 78.672C437.582 78.672 438.907 78.336 440.139 77.664C441.409 76.9547 442.417 75.9093 443.163 74.528C443.91 73.1467 444.283 71.4667 444.283 69.488C444.283 66.5387 443.499 64.28 441.931 62.712C440.401 61.1067 438.515 60.304 436.275 60.304C434.035 60.304 432.15 61.1067 430.619 62.712C429.126 64.28 428.379 66.5387 428.379 69.488C428.379 72.4373 429.107 74.7147 430.563 76.32C432.057 77.888 433.923 78.672 436.163 78.672ZM465.938 58.792C466.946 57.1493 468.253 55.8613 469.858 54.928C471.501 53.9947 473.368 53.528 475.458 53.528V61.76H473.386C470.922 61.76 469.056 62.3387 467.786 63.496C466.554 64.6533 465.938 66.6693 465.938 69.544V85H458.098V53.976H465.938V58.792ZM510.419 53.976L491.211 99.672H482.867L489.587 84.216L477.155 53.976H485.947L493.955 75.648L502.075 53.976H510.419Z" fill="black"/>
</svg>
