<svg width="195" height="37" viewBox="0 0 195 37" fill="none" xmlns="http://www.w3.org/2000/svg">
<path d="M14.43 16.312C14.014 15.5493 13.442 14.9687 12.714 14.57C11.986 14.1713 11.1367 13.972 10.166 13.972C9.09133 13.972 8.138 14.2147 7.306 14.7C6.474 15.1853 5.824 15.8787 5.356 16.78C4.888 17.6813 4.654 18.7213 4.654 19.9C4.654 21.1133 4.888 22.1707 5.356 23.072C5.84133 23.9733 6.50867 24.6667 7.358 25.152C8.20733 25.6373 9.19533 25.88 10.322 25.88C11.7087 25.88 12.844 25.516 13.728 24.788C14.612 24.0427 15.1927 23.0113 15.47 21.694H9.23V18.912H19.058V22.084C18.8153 23.3493 18.2953 24.5193 17.498 25.594C16.7007 26.6687 15.6693 27.5353 14.404 28.194C13.156 28.8353 11.752 29.156 10.192 29.156C8.44133 29.156 6.85533 28.766 5.434 27.986C4.03 27.1887 2.92067 26.088 2.106 24.684C1.30867 23.28 0.91 21.6853 0.91 19.9C0.91 18.1147 1.30867 16.52 2.106 15.116C2.92067 13.6947 4.03 12.594 5.434 11.814C6.85533 11.0167 8.43267 10.618 10.166 10.618C12.2113 10.618 13.988 11.1207 15.496 12.126C17.004 13.114 18.044 14.5093 18.616 16.312H14.43ZM24.791 16.832C25.259 16.0693 25.8657 15.4713 26.611 15.038C27.3737 14.6047 28.2404 14.388 29.211 14.388V18.21H28.249C27.105 18.21 26.2384 18.4787 25.649 19.016C25.077 19.5533 24.791 20.4893 24.791 21.824V29H21.151V14.596H24.791V16.832ZM44.4528 21.486C44.4528 22.006 44.4181 22.474 44.3488 22.89H33.8187C33.9054 23.93 34.2694 24.7447 34.9107 25.334C35.5521 25.9233 36.3407 26.218 37.2767 26.218C38.6287 26.218 39.5907 25.6373 40.1628 24.476H44.0888C43.6727 25.8627 42.8754 27.0067 41.6967 27.908C40.5181 28.792 39.0707 29.234 37.3547 29.234C35.9681 29.234 34.7201 28.9307 33.6107 28.324C32.5187 27.7 31.6607 26.8247 31.0367 25.698C30.4301 24.5713 30.1267 23.2713 30.1267 21.798C30.1267 20.3073 30.4301 18.9987 31.0367 17.872C31.6434 16.7453 32.4927 15.8787 33.5847 15.272C34.6767 14.6653 35.9334 14.362 37.3547 14.362C38.7241 14.362 39.9461 14.6567 41.0207 15.246C42.1128 15.8353 42.9534 16.676 43.5427 17.768C44.1494 18.8427 44.4528 20.082 44.4528 21.486ZM40.6827 20.446C40.6654 19.51 40.3274 18.7647 39.6687 18.21C39.0101 17.638 38.2041 17.352 37.2507 17.352C36.3494 17.352 35.5867 17.6293 34.9627 18.184C34.3561 18.7213 33.9834 19.4753 33.8447 20.446H40.6827ZM59.8996 21.486C59.8996 22.006 59.865 22.474 59.7956 22.89H49.2656C49.3523 23.93 49.7163 24.7447 50.3576 25.334C50.999 25.9233 51.7876 26.218 52.7236 26.218C54.0756 26.218 55.0376 25.6373 55.6096 24.476H59.5356C59.1196 25.8627 58.3223 27.0067 57.1436 27.908C55.965 28.792 54.5176 29.234 52.8016 29.234C51.415 29.234 50.167 28.9307 49.0576 28.324C47.9656 27.7 47.1076 26.8247 46.4836 25.698C45.877 24.5713 45.5736 23.2713 45.5736 21.798C45.5736 20.3073 45.877 18.9987 46.4836 17.872C47.0903 16.7453 47.9396 15.8787 49.0316 15.272C50.1236 14.6653 51.3803 14.362 52.8016 14.362C54.171 14.362 55.393 14.6567 56.4676 15.246C57.5596 15.8353 58.4003 16.676 58.9896 17.768C59.5963 18.8427 59.8996 20.082 59.8996 21.486ZM56.1296 20.446C56.1123 19.51 55.7743 18.7647 55.1156 18.21C54.457 17.638 53.651 17.352 52.6976 17.352C51.7963 17.352 51.0336 17.6293 50.4096 18.184C49.803 18.7213 49.4303 19.4753 49.2916 20.446H56.1296ZM69.9385 14.388C71.6545 14.388 73.0412 14.934 74.0985 16.026C75.1558 17.1007 75.6845 18.6087 75.6845 20.55V29H72.0445V21.044C72.0445 19.9 71.7585 19.0247 71.1865 18.418C70.6145 17.794 69.8345 17.482 68.8465 17.482C67.8412 17.482 67.0438 17.794 66.4545 18.418C65.8825 19.0247 65.5965 19.9 65.5965 21.044V29H61.9565V14.596H65.5965V16.39C66.0818 15.766 66.6972 15.2807 67.4425 14.934C68.2052 14.57 69.0372 14.388 69.9385 14.388Z" fill="#50806B"/>
<path d="M96.4913 10.852V13.79H91.6553V29H88.0153V13.79H83.1793V10.852H96.4913ZM106.659 14.388C107.751 14.388 108.722 14.6307 109.571 15.116C110.42 15.584 111.079 16.286 111.547 17.222C112.032 18.1407 112.275 19.25 112.275 20.55V29H108.635V21.044C108.635 19.9 108.349 19.0247 107.777 18.418C107.205 17.794 106.425 17.482 105.437 17.482C104.432 17.482 103.634 17.794 103.045 18.418C102.473 19.0247 102.187 19.9 102.187 21.044V29H98.5471V9.76H102.187V16.39C102.655 15.766 103.279 15.2807 104.059 14.934C104.839 14.57 105.706 14.388 106.659 14.388ZM128.735 14.596V29H125.069V27.18C124.601 27.804 123.985 28.298 123.223 28.662C122.477 29.0087 121.663 29.182 120.779 29.182C119.652 29.182 118.655 28.948 117.789 28.48C116.922 27.9947 116.237 27.2927 115.735 26.374C115.249 25.438 115.007 24.3287 115.007 23.046V14.596H118.647V22.526C118.647 23.67 118.933 24.554 119.505 25.178C120.077 25.7847 120.857 26.088 121.845 26.088C122.85 26.088 123.639 25.7847 124.211 25.178C124.783 24.554 125.069 23.67 125.069 22.526V14.596H128.735ZM149.614 14.388C151.382 14.388 152.803 14.934 153.878 16.026C154.97 17.1007 155.516 18.6087 155.516 20.55V29H151.876V21.044C151.876 19.9173 151.59 19.0593 151.018 18.47C150.446 17.8633 149.666 17.56 148.678 17.56C147.69 17.56 146.901 17.8633 146.312 18.47C145.74 19.0593 145.454 19.9173 145.454 21.044V29H141.814V21.044C141.814 19.9173 141.528 19.0593 140.956 18.47C140.384 17.8633 139.604 17.56 138.616 17.56C137.611 17.56 136.813 17.8633 136.224 18.47C135.652 19.0593 135.366 19.9173 135.366 21.044V29H131.726V14.596H135.366V16.338C135.834 15.7313 136.432 15.2547 137.16 14.908C137.905 14.5613 138.72 14.388 139.604 14.388C140.731 14.388 141.736 14.6307 142.62 15.116C143.504 15.584 144.189 16.26 144.674 17.144C145.142 16.312 145.818 15.6447 146.702 15.142C147.603 14.6393 148.574 14.388 149.614 14.388ZM162.01 16.702C162.478 16.0087 163.12 15.4453 163.934 15.012C164.766 14.5787 165.711 14.362 166.768 14.362C167.999 14.362 169.108 14.6653 170.096 15.272C171.102 15.8787 171.89 16.7453 172.462 17.872C173.052 18.9813 173.346 20.2727 173.346 21.746C173.346 23.2193 173.052 24.528 172.462 25.672C171.89 26.7987 171.102 27.674 170.096 28.298C169.108 28.922 167.999 29.234 166.768 29.234C165.694 29.234 164.749 29.026 163.934 28.61C163.137 28.1767 162.496 27.622 162.01 26.946V29H158.37V9.76H162.01V16.702ZM169.628 21.746C169.628 20.8793 169.446 20.134 169.082 19.51C168.736 18.8687 168.268 18.3833 167.678 18.054C167.106 17.7247 166.482 17.56 165.806 17.56C165.148 17.56 164.524 17.7333 163.934 18.08C163.362 18.4093 162.894 18.8947 162.53 19.536C162.184 20.1773 162.01 20.9313 162.01 21.798C162.01 22.6647 162.184 23.4187 162.53 24.06C162.894 24.7013 163.362 25.1953 163.934 25.542C164.524 25.8713 165.148 26.036 165.806 26.036C166.482 26.036 167.106 25.8627 167.678 25.516C168.268 25.1693 168.736 24.6753 169.082 24.034C169.446 23.3927 169.628 22.63 169.628 21.746Z" fill="black"/>
</svg>
