<svg width="154" height="22" viewBox="0 0 154 22" fill="none" xmlns="http://www.w3.org/2000/svg">
<path d="M7.32281 21.71C5.94281 21.71 4.70281 21.47 3.60281 20.99C2.52281 20.49 1.67281 19.81 1.05281 18.95C0.432813 18.07 0.112813 17.06 0.0928126 15.92H3.00281C3.10281 16.9 3.50281 17.73 4.20281 18.41C4.92281 19.07 5.96281 19.4 7.32281 19.4C8.62281 19.4 9.64281 19.08 10.3828 18.44C11.1428 17.78 11.5228 16.94 11.5228 15.92C11.5228 15.12 11.3028 14.47 10.8628 13.97C10.4228 13.47 9.87281 13.09 9.21281 12.83C8.55281 12.57 7.66281 12.29 6.54281 11.99C5.16281 11.63 4.05281 11.27 3.21281 10.91C2.39281 10.55 1.68281 9.99 1.08281 9.23C0.502813 8.45 0.212813 7.41 0.212813 6.11C0.212813 4.97 0.502813 3.96 1.08281 3.08C1.66281 2.2 2.47281 1.52 3.51281 1.04C4.57281 0.559999 5.78281 0.319999 7.14281 0.319999C9.10281 0.319999 10.7028 0.809999 11.9428 1.79C13.2028 2.77 13.9128 4.07 14.0728 5.69H11.0728C10.9728 4.89 10.5528 4.19 9.81281 3.59C9.07281 2.97 8.09281 2.66 6.87281 2.66C5.73281 2.66 4.80281 2.96 4.08281 3.56C3.36281 4.14 3.00281 4.96 3.00281 6.02C3.00281 6.78 3.21281 7.4 3.63281 7.88C4.07281 8.36 4.60281 8.73 5.22281 8.99C5.86281 9.23 6.75281 9.51 7.89281 9.83C9.27281 10.21 10.3828 10.59 11.2228 10.97C12.0628 11.33 12.7828 11.9 13.3828 12.68C13.9828 13.44 14.2828 14.48 14.2828 15.8C14.2828 16.82 14.0128 17.78 13.4728 18.68C12.9328 19.58 12.1328 20.31 11.0728 20.87C10.0128 21.43 8.76281 21.71 7.32281 21.71ZM34.4102 0.589999V21.5H31.6802V12.02H21.0302V21.5H18.3002V0.589999H21.0302V9.77H31.6802V0.589999H34.4102ZM48.5517 21.71C46.6117 21.71 44.8417 21.26 43.2417 20.36C41.6417 19.44 40.3717 18.17 39.4317 16.55C38.5117 14.91 38.0517 13.07 38.0517 11.03C38.0517 8.99 38.5117 7.16 39.4317 5.54C40.3717 3.9 41.6417 2.63 43.2417 1.73C44.8417 0.809999 46.6117 0.349999 48.5517 0.349999C50.5117 0.349999 52.2917 0.809999 53.8917 1.73C55.4917 2.63 56.7517 3.89 57.6717 5.51C58.5917 7.13 59.0517 8.97 59.0517 11.03C59.0517 13.09 58.5917 14.93 57.6717 16.55C56.7517 18.17 55.4917 19.44 53.8917 20.36C52.2917 21.26 50.5117 21.71 48.5517 21.71ZM48.5517 19.34C50.0117 19.34 51.3217 19 52.4817 18.32C53.6617 17.64 54.5817 16.67 55.2417 15.41C55.9217 14.15 56.2617 12.69 56.2617 11.03C56.2617 9.35 55.9217 7.89 55.2417 6.65C54.5817 5.39 53.6717 4.42 52.5117 3.74C51.3517 3.06 50.0317 2.72 48.5517 2.72C47.0717 2.72 45.7517 3.06 44.5917 3.74C43.4317 4.42 42.5117 5.39 41.8317 6.65C41.1717 7.89 40.8417 9.35 40.8417 11.03C40.8417 12.69 41.1717 14.15 41.8317 15.41C42.5117 16.67 43.4317 17.64 44.5917 18.32C45.7717 19 47.0917 19.34 48.5517 19.34ZM76.6357 6.71C76.6357 8.45 76.0357 9.9 74.8357 11.06C73.6557 12.2 71.8457 12.77 69.4057 12.77H65.3857V21.5H62.6557V0.589999H69.4057C71.7657 0.589999 73.5557 1.16 74.7757 2.3C76.0157 3.44 76.6357 4.91 76.6357 6.71ZM69.4057 10.52C70.9257 10.52 72.0457 10.19 72.7657 9.53C73.4857 8.87 73.8457 7.93 73.8457 6.71C73.8457 4.13 72.3657 2.84 69.4057 2.84H65.3857V10.52H69.4057ZM100.387 16.85H91.2668L89.5868 21.5H86.7068L94.2668 0.709999H97.4168L104.947 21.5H102.067L100.387 16.85ZM99.6068 14.63L95.8268 4.07L92.0468 14.63H99.6068ZM110.972 19.28H118.292V21.5H108.242V0.589999H110.972V19.28ZM123.921 19.28H131.241V21.5H121.191V0.589999H123.921V19.28ZM142.648 3.65H146.098L153.358 10.52L146.098 17.42H142.648L149.908 10.52L142.648 3.65Z" fill="black"/>
</svg>
